SplineFontDB: 1.0
FontName: CenturySchL-Bold
FullName: Century Schoolbook L Bold
FamilyName: Century Schoolbook L
Weight: Bold
Copyright: Copyright (URW)++,Copyright 1999 by (URW)++ Design & Development; Cyrillic glyphs added by Valek Filippov (C) 2001
Version: 1.06
ItalicAngle: 0
UnderlinePosition: -103
UnderlineWidth: 90
Ascent: 800
Descent: 200
NeedsXUIDChange: 1
UniqueID: 4059069
FSType: 12
OS2WinAscent: 0
OS2WinAOffset: 1
OS2WinDescent: 0
OS2WinDOffset: 1
HheadAscent: 0
HheadAOffset: 1
HheadDescent: 0
HheadDOffset: 1
ScriptLang: 2
 1 latn 1 dflt 
 1 DFLT 1 dflt 
Encoding: adobestandard
UnicodeInterp: none
DisplaySize: -48
AntiAlias: 1
FitToEm: 1
WinInfo: 437 19 10
BeginPrivate: 7
BlueValues 31 [-20 0 473 493 722 742 694 714]
BlueScale 8 0.039625
StdHW 4 [53]
StdVW 5 [174]
StemSnapH 207 [53 58 61 69 76 86 94 193] 
systemdict /internaldict known
{1183615869 systemdict /internaldict get exec
/StemSnapLength 2 copy known { get 8 lt } { pop pop true } ifelse }
{ true } ifelse { pop [53 61] } if
StemSnapV 211 [81 141 154 158 174 181 199] 
systemdict /internaldict known
{1183615869 systemdict /internaldict get exec
/StemSnapLength 2 copy known { get 7 lt } { pop pop true } ifelse }
{ true } ifelse { pop [174 181] } if
ForceBold 5 false
EndPrivate
BeginChars: 767 661
StartChar: exclam
Encoding: 33 33 2
Width: 296
Flags: W
HStem: -15 187<136 154> 717 20G<121.5 180>
Fore
177 228 m 1
 124 228 l 1
 118 373 111 416 71 548 c 0
 62 578 57 611 57 637 c 0
 57 700 92 737 151 737 c 0
 209 737 244 700 244 637 c 0
 244 598 242 589 210 479 c 0
 191 414 181 337 177 228 c 1
150 172 m 0
 202 172 244 130 244 79 c 0
 244 27 202 -15 149 -15 c 0
 99 -15 57 28 57 79 c 0
 57 130 99 172 150 172 c 0
EndSplineSet
EndChar
StartChar: quotedbl
Encoding: 34 34 3
Width: 333
Flags: W
HStem: 717 20G<36.5 75.5 258.5 297.5>
VStem: -12 136<655 673> 210 136<655 673>
Fore
79 416 m 1
 33 416 l 1
 -9 635 l 1
 -11 647 -12 657 -12 668 c 0
 -12 707 17 737 56 737 c 0
 95 737 124 707 124 667 c 0
 124 658 123 647 121 635 c 1
 79 416 l 1
301 416 m 1
 255 416 l 1
 213 635 l 1
 211 647 210 657 210 668 c 0
 210 707 239 737 278 737 c 0
 317 737 346 707 346 667 c 0
 346 658 345 647 343 635 c 1
 301 416 l 1
EndSplineSet
EndChar
StartChar: numbersign
Encoding: 35 35 4
Width: 574
Flags: W
HStem: 0 21G<103 193 279 369> 220 83<41 135 237 311 413 507> 411 83<67 163 264 338 440 533> 680 20G<204 294 379 469>
DStem: 135 220 225 220 103 0 193 0 163 411 253 411 147 303 237 303 204 700 294 700 174 494 264 494 311 220 401 220 279 0 369 0 338 411 428 411 322 303 413 303 379 700 469 700 350 494 440 494
Fore
135 220 m 1
 41 220 l 1
 41 303 l 1
 147 303 l 1
 163 411 l 1
 67 411 l 1
 67 494 l 1
 174 494 l 1
 204 700 l 1
 294 700 l 1
 264 494 l 1
 350 494 l 1
 379 700 l 1
 469 700 l 1
 440 494 l 1
 533 494 l 1
 533 411 l 1
 428 411 l 1
 413 303 l 1
 507 303 l 1
 507 220 l 1
 401 220 l 1
 369 0 l 1
 279 0 l 1
 311 220 l 1
 225 220 l 1
 193 0 l 1
 103 0 l 1
 135 220 l 1
253 411 m 1
 237 303 l 1
 322 303 l 1
 338 411 l 1
 253 411 l 1
EndSplineSet
EndChar
StartChar: dollar
Encoding: 36 36 5
Width: 574
Flags: W
VStem: 45 120<480 549> 261 58<-137 -12 41 261 451 646 699 801> 375 163<538 557> 424 125<149 211>
Fore
319 433 m 1xe0
 345 425 l 2
 489 381 549 318 549 211 c 0xd0
 549 86 466 5 319 -12 c 1
 319 -137 l 1
 261 -137 l 1
 261 -14 l 1
 238 -12 224 -11 206 -7 c 0
 90 16 25 73 25 153 c 0
 25 208 61 247 111 247 c 0
 157 247 192 216 192 174 c 0
 192 147 178 117 157 100 c 0
 152 95 150 93 150 89 c 0
 150 67 202 45 261 41 c 1
 261 279 l 1
 227 290 l 2
 100 329 45 386 45 480 c 0
 45 565 91 638 168 675 c 0
 194 688 213 693 261 699 c 1
 261 801 l 1
 319 801 l 1
 319 700 l 1
 453 691 538 636 538 557 c 0
 538 505 502 467 451 467 c 0
 408 467 375 498 375 538 c 0
 375 556 381 574 392 592 c 0
 397 599 398 602 398 607 c 0
 398 627 370 641 319 646 c 1
 319 433 l 1xe0
261 451 m 1
 261 645 l 1
 197 634 165 603 165 549 c 0
 165 502 192 472 248 455 c 2
 261 451 l 1
319 261 m 1
 319 44 l 1
 339 46 350 49 362 54 c 0
 400 69 424 107 424 149 c 0
 424 204 394 238 329 258 c 2
 319 261 l 1
EndSplineSet
EndChar
StartChar: percent
Encoding: 37 37 6
Width: 833
Flags: W
HStem: 14 47<601 620> 315 47<150 172> 355 52<699 724> 594 47<416 450> 702 20G<605 651>
VStem: 17 104<416 443> 330 40<567 583> 466 103<114 140> 781 40<271 289>
DStem: 535 612 651 722 186 0 237 0
Fore
651 722 m 1xdf80
 237 0 l 1
 186 0 l 1
 535 612 l 1
 493 598 469 594 433 594 c 0
 408 594 393 596 367 603 c 1
 369 589 370 581 370 573 c 0
 370 515 342 443 299 392 c 0
 255 339 207 315 150 315 c 0
 73 315 17 369 17 443 c 0
 17 512 63 603 123 655 c 0
 163 689 209 708 252 708 c 0
 293 708 320 694 346 660 c 1
 373 647 401 641 438 641 c 0
 512 641 561 664 605 722 c 1
 651 722 l 1xdf80
266 658 m 1
 229 645 217 633 181 569 c 0
 137 492 121 451 121 416 c 0
 121 384 142 362 172 362 c 0
 248 362 330 476 330 581 c 0
 330 595 328 606 324 620 c 1
 298 629 283 639 266 658 c 1
699 407 m 0xbf80
 770 407 821 355 821 283 c 0
 821 223 791 147 745 89 c 0
 707 42 654 14 601 14 c 0
 523 14 466 67 466 140 c 0
 466 197 493 266 535 319 c 0
 582 376 639 407 699 407 c 0xbf80
724 355 m 0
 696 355 671 334 641 285 c 0
 590 202 569 151 569 114 c 0
 569 84 592 61 620 61 c 0
 697 61 781 175 781 279 c 0
 781 321 756 355 724 355 c 0
EndSplineSet
EndChar
StartChar: ampersand
Encoding: 38 38 7
Width: 852
Flags: W
HStem: -15 108<638 703> 354 54<524 546.114> 685 52<406 424>
VStem: 39 170<179 258> 202 140<551 610> 490 110<587 596>
Fore
797 408 m 1xec
 797 354 l 1
 726 352 703 336 664 260 c 1
 637 211 629 197 601 159 c 1
 635 114 667 93 703 93 c 0
 737 93 760 122 772 177 c 1
 822 166 l 1
 818 129 809 103 792 74 c 0
 754 11 708 -15 638 -15 c 0
 576 -15 524 7 480 51 c 1
 417 6 349 -16 269 -16 c 0
 194 -16 132 6 93 47 c 0
 58 84 39 130 39 179 c 0xf4
 39 254 81 319 158 365 c 0
 183 380 203 390 241 407 c 1
 212 467 202 503 202 551 c 0
 202 600 225 651 261 684 c 0
 300 719 353 737 418 737 c 0
 527 737 600 679 600 594 c 0
 600 551 579 510 543 481 c 0
 511 456 486 442 425 417 c 1
 476 330 541 232 565 206 c 1
 599 247 613 277 613 305 c 0
 613 339 587 353 524 354 c 1
 524 408 l 1
 797 408 l 1xec
265 357 m 1
 228 334 209 301 209 258 c 0
 209 231 217 201 232 171 c 0
 266 102 314 67 374 67 c 0
 399 67 416 72 440 89 c 1
 366 179 308 268 265 357 c 1
397 464 m 1
 406 468 408 469 413 471 c 0
 463 496 490 538 490 589 c 0
 490 644 457 685 412 685 c 0
 372 685 342 652 342 610 c 0xec
 342 572 357 533 397 464 c 1
EndSplineSet
EndChar
StartChar: quoteright
Encoding: 39 8217 8
Width: 241
Flags: W
HStem: 717 20G<91 148>
Fore
50 379 m 1
 23 420 l 1
 85 462 122 511 122 548 c 0
 122 552 120 554 118 554 c 0
 117 554 116 554 114 553 c 0
 111 552 109 552 106 552 c 0
 58 552 22 589 22 638 c 0
 22 694 64 737 118 737 c 0
 178 737 219 688 219 617 c 0
 219 528 161 446 50 379 c 1
EndSplineSet
KernsSLIF: 121 9 1 0 119 8 1 0 118 11 1 0 116 6 1 0 115 6 1 0 114 6 1 0 46 -9 1 0 111 -6 1 0 100 -5 1 0 44 -7 1 0 262 -67 1 0 256 -67 1 0 257 -67 1 0 225 -51 1 0 65 -67 1 0
EndChar
StartChar: parenleft
Encoding: 40 40 9
Width: 389
Flags: W
Fore
338 -68 m 1
 338 -118 l 1
 265 -80 220 -43 173 17 c 0
 107 101 72 204 72 310 c 0
 72 424 113 533 188 621 c 0
 233 673 271 702 338 737 c 1
 338 687 l 1
 284 649 259 618 236 558 c 0
 210 493 197 407 197 309 c 0
 197 201 214 108 244 41 c 0
 267 -7 289 -34 338 -68 c 1
EndSplineSet
EndChar
StartChar: parenright
Encoding: 41 41 10
Width: 389
Flags: W
Fore
50 687 m 1
 50 737 l 1
 123 699 168 662 215 602 c 0
 281 518 316 415 316 309 c 0
 316 195 275 86 200 -2 c 0
 155 -54 117 -83 50 -118 c 1
 50 -68 l 1
 104 -30 129 1 152 61 c 0
 178 126 191 212 191 310 c 0
 191 418 174 511 144 578 c 0
 121 626 99 653 50 687 c 1
EndSplineSet
EndChar
StartChar: asterisk
Encoding: 42 42 11
Width: 500
Flags: W
HStem: 717 20G<238 264.5>
VStem: 239 25<476 495 539 570>
Fore
239 495 m 1
 223 485 l 2
 194 468 186 459 159 419 c 0
 144 396 125 384 103 384 c 0
 77 384 56 405 56 430 c 0
 56 451 69 470 89 479 c 0
 102 484 105 485 144 487 c 0
 169 489 189 495 210 507 c 2
 226 517 l 1
 210 526 l 2
 179 543 171 545 120 548 c 0
 81 551 56 573 56 604 c 0
 56 629 77 650 104 650 c 0
 117 650 133 644 144 634 c 0
 152 626 152 626 172 596 c 0
 187 575 200 562 223 549 c 2
 239 539 l 1
 239 558 l 2
 239 590 237 597 213 647 c 0
 206 660 203 673 203 684 c 0
 203 713 225 737 251 737 c 0
 278 737 300 713 300 683 c 0
 300 669 299 665 280 625 c 0
 268 602 264 583 264 558 c 2
 264 539 l 1
 280 549 l 2
 310 567 316 573 344 615 c 0
 360 639 378 650 400 650 c 0
 426 650 447 630 447 604 c 0
 447 583 434 565 414 555 c 0
 402 550 399 550 359 546 c 0
 333 545 316 539 293 526 c 2
 277 517 l 1
 293 508 l 2
 324 491 333 489 382 486 c 0
 421 483 447 460 447 429 c 0
 447 404 427 385 402 385 c 0
 375 385 364 394 331 439 c 0
 317 459 301 473 280 485 c 2
 264 495 l 1
 264 476 l 2
 264 444 266 436 289 387 c 0
 296 374 299 361 299 351 c 0
 299 321 278 297 251 297 c 0
 225 297 203 321 203 350 c 0
 203 365 205 370 223 409 c 0
 235 432 239 450 239 476 c 2
 239 495 l 1
EndSplineSet
EndChar
StartChar: plus
Encoding: 43 43 12
Width: 606
Flags: W
HStem: 0 21G<246 361> 195 115<51 246 361 555>
VStem: 246 115<0 195 310 505>
Fore
246 195 m 1
 51 195 l 1
 51 310 l 1
 246 310 l 1
 246 505 l 1
 361 505 l 1
 361 310 l 1
 555 310 l 1
 555 195 l 1
 361 195 l 1
 361 0 l 1
 246 0 l 1
 246 195 l 1
EndSplineSet
EndChar
StartChar: comma
Encoding: 44 44 13
Width: 278
Flags: W
HStem: -30 20G<131 135>
Fore
67 -186 m 1
 40 -145 l 1
 102 -102 139 -54 139 -16 c 0
 139 -12 138 -10 135 -10 c 2
 131 -10 l 2
 129 -11 127 -11 123 -11 c 0
 75 -11 39 26 39 75 c 0
 39 130 81 173 135 173 c 0
 195 173 236 124 236 52 c 0
 236 -37 178 -119 67 -186 c 1
EndSplineSet
KernsSLIF: 39 5 1 0 186 5 1 0 49 -28 1 0
EndChar
StartChar: hyphen
Encoding: 45 45 14
Width: 333
Flags: W
HStem: 180 130<42 291>
Fore
42 310 m 1
 291 310 l 1
 291 180 l 1
 42 180 l 1
 42 310 l 1
EndSplineSet
KernsSLIF: 89 -72 1 0 87 -40 1 0 86 -50 1 0 84 -74 1 0 262 -7 1 0 256 -7 1 0 257 -7 1 0 225 3 1 0 65 -7 1 0
EndChar
StartChar: period
Encoding: 46 46 15
Width: 278
Flags: W
HStem: -15 21G<112.5 164.5>
Fore
139 173 m 0
 191 173 233 131 233 79 c 0
 233 27 191 -15 138 -15 c 0
 87 -15 45 28 45 79 c 0
 45 131 87 173 139 173 c 0
EndSplineSet
KernsSLIF: 39 6 1 0 186 6 1 0 49 -31 1 0
EndChar
StartChar: slash
Encoding: 47 47 16
Width: 278
Flags: W
HStem: -15 21G<-23 51> 717 20G<228 302>
DStem: 228 737 302 737 -23 -15 51 -15
Fore
228 737 m 1
 302 737 l 1
 51 -15 l 1
 -23 -15 l 1
 228 737 l 1
EndSplineSet
EndChar
StartChar: zero
Encoding: 48 48 17
Width: 574
Flags: W
HStem: -14 52<282 289> 656 52<282 289>
VStem: 27 172<347 371> 372 174<321 371>
Fore
287 708 m 0
 354 708 413 678 460 621 c 0
 519 547 546 460 546 342 c 0
 546 139 434 -14 287 -14 c 0
 137 -14 27 139 27 347 c 0
 27 555 137 708 287 708 c 0
286 656 m 0
 251 656 227 635 216 595 c 0
 207 561 199 449 199 347 c 0
 199 229 208 121 220 88 c 0
 232 56 255 38 286 38 c 0
 320 38 344 59 355 99 c 0
 364 133 372 243 372 345 c 0
 372 465 364 573 351 606 c 0
 340 638 316 656 286 656 c 0
EndSplineSet
KernsSLIF: 49 -38 1 0 52 12 1 0
EndChar
StartChar: one
Encoding: 49 49 18
Width: 574
Flags: W
HStem: 0 54<92 491> 583 56<83 114.43> 688 20G<336 371>
VStem: 214 157<144 529>
Fore
371 708 m 1
 371 144 l 2
 371 81 371 77 378 69 c 0
 386 58 408 54 459 54 c 2
 491 54 l 1
 491 0 l 1
 92 0 l 1
 92 54 l 1
 124 54 l 2
 177 54 198 58 207 69 c 0
 214 77 214 82 214 144 c 2
 214 499 l 2
 214 582 214 583 125 583 c 2
 83 583 l 1
 83 639 l 1
 201 641 274 661 336 708 c 1
 371 708 l 1
EndSplineSet
KernsSLIF: 48 -49 0 0 50 -12 0 0 51 -35 0 0 54 -51 0 0 55 -73 0 0 46 -26 0 0 49 -48 0 0 57 -34 0 0 52 -69 0 0 53 -35 0 0 56 -38 0 0 44 -23 0 0
EndChar
StartChar: two
Encoding: 50 50 19
Width: 574
Flags: W
HStem: 0 150<175 447> 651 57<248 282>
VStem: 41 184<476 506> 358 170<518 536>
Fore
477 266 m 1
 531 266 l 1
 508 -4 l 1
 478 -1 464 0 447 0 c 2
 71 0 l 2
 57 0 45 -1 19 -4 c 1
 19 43 l 1
 69 115 108 161 220 279 c 0
 326 392 358 451 358 534 c 0
 358 608 318 651 248 651 c 0
 198 651 144 617 144 585 c 0
 144 577 149 571 160 566 c 0
 206 544 225 519 225 476 c 0
 225 424 192 391 140 391 c 0
 80 391 41 436 41 506 c 0
 41 620 146 708 282 708 c 0
 423 708 528 627 528 520 c 0
 528 473 508 420 474 375 c 0
 445 338 414 315 275 225 c 0
 236 199 210 180 175 150 c 1
 368 150 l 2
 431 151 433 151 443 158 c 0
 451 163 457 176 466 216 c 2
 477 266 l 1
EndSplineSet
KernsSLIF: 55 -8 1 0 49 -30 1 0 52 8 1 0
EndChar
StartChar: three
Encoding: 51 51 20
Width: 574
Flags: W
HStem: -14 52<236 266> 332 71<188.149 213> 338 54<261 277> 656 52<248 276>
VStem: 24 177<154 170> 49 172<529 545> 350 162<513 547> 356 174<177 211>
Fore
351 368 m 1xb6
 404 361 428 354 456 338 c 0
 502 311 530 256 530 193 c 0
 530 129 500 68 454 36 c 0
 408 4 339 -14 266 -14 c 0
 122 -14 24 55 24 156 c 0
 24 212 61 251 114 251 c 0
 164 251 201 215 201 168 c 0
 201 140 194 127 164 98 c 0
 157 92 154 86 154 80 c 0
 154 59 198 38 240 38 c 0
 314 38 356 96 356 196 c 0
 356 290 325 338 263 338 c 0xb9
 259 338 243 336 213 333 c 0
 207 332 201 332 197 332 c 0
 176 332 161 348 161 370 c 0
 161 391 174 403 197 403 c 0xd9
 209 403 215 402 238 397 c 0
 254 394 265 392 273 392 c 0
 320 392 350 446 350 532 c 0
 350 610 313 656 250 656 c 0
 212 656 174 637 174 618 c 0
 174 614 176 611 181 606 c 0
 210 579 221 558 221 531 c 0
 221 484 188 452 140 452 c 0
 88 452 49 491 49 543 c 0
 49 581 70 623 102 652 c 0
 144 689 204 708 276 708 c 0
 418 708 512 637 512 531 c 0
 512 454 465 400 377 375 c 0
 370 373 363 371 351 368 c 1xb6
EndSplineSet
KernsSLIF: 55 -18 1 0 49 -37 1 0 52 7 1 0
EndChar
StartChar: four
Encoding: 52 52 21
Width: 574
Flags: W
HStem: 0 54<195 536> 181 67<92 289 446 546> 688 20G<383 452>
VStem: 289 157<144 181 248 556>
DStem: 383 708 289 498 19 255 92 248
Fore
446 248 m 1
 546 248 l 1
 546 181 l 1
 446 181 l 1
 446 144 l 2
 446 81 446 77 453 68 c 0
 461 59 484 54 525 54 c 2
 536 54 l 1
 536 0 l 1
 195 0 l 1
 195 54 l 1
 206 54 l 2
 251 54 274 58 282 68 c 0
 289 77 289 81 289 144 c 2
 289 181 l 1
 19 181 l 1
 19 255 l 1
 383 708 l 1
 452 708 l 1
 448 634 446 578 446 556 c 2
 446 248 l 1
289 248 m 1
 289 498 l 1
 92 248 l 1
 289 248 l 1
EndSplineSet
KernsSLIF: 55 -26 1 0 49 -26 1 0 52 15 1 0
EndChar
StartChar: five
Encoding: 53 53 22
Width: 574
Flags: W
HStem: -14 57<232 259> 392 68<244 286> 536 155<254 303>
VStem: 31 181<151 171> 57 78<333 340> 357 178<225 255>
Fore
157 551 m 1xec
 142 422 l 1
 208 452 239 460 286 460 c 0
 430 460 535 364 535 234 c 0
 535 87 423 -14 259 -14 c 0
 121 -14 31 51 31 151 c 0
 31 213 69 253 127 253 c 0
 178 253 212 220 212 171 c 0xf4
 212 137 197 118 158 99 c 0
 149 94 146 91 146 85 c 0
 146 64 189 43 234 43 c 0
 314 43 357 108 357 229 c 0
 357 337 319 392 244 392 c 0
 203 392 163 379 133 354 c 1
 134 348 135 342 135 338 c 0
 135 316 116 298 94 298 c 0
 73 298 57 314 57 335 c 0
 57 351 61 358 83 380 c 1
 96 553 102 628 106 708 c 1
 168 695 218 691 301 691 c 0
 379 691 449 697 482 705 c 0
 488 707 494 708 498 708 c 0
 503 708 506 703 506 697 c 0
 506 675 491 638 472 613 c 0
 434 564 366 536 283 536 c 0
 244 536 204 541 157 551 c 1xec
EndSplineSet
KernsSLIF: 55 -27 1 0 49 -45 1 0 52 10 1 0
EndChar
StartChar: six
Encoding: 54 54 23
Width: 574
Flags: W
HStem: -14 47<284 302> 352 75<296 348> 478 21G<411 465.5> 656 52<332 348>
VStem: 29 173<306 361> 349 181<553 568> 375 174<209 227>
Fore
202 361 m 1xfc
 244 409 284 427 348 427 c 0
 466 427 549 343 549 223 c 0xfa
 549 86 442 -14 295 -14 c 0
 213 -14 146 17 97 77 c 0
 50 135 29 206 29 306 c 0
 29 425 56 517 115 594 c 0
 173 671 247 708 342 708 c 0
 457 708 530 654 530 568 c 0
 530 513 494 478 437 478 c 0
 385 478 349 510 349 555 c 0
 349 575 356 597 369 614 c 0
 376 623 377 627 377 633 c 0
 377 647 359 656 334 656 c 0
 266 656 221 579 207 437 c 0
 205 418 202 373 202 361 c 1xfc
296 352 m 0
 258 352 227 327 216 284 c 0
 211 261 208 229 208 194 c 0
 208 91 239 33 293 33 c 0
 346 33 375 96 375 212 c 0
 375 302 348 352 296 352 c 0
EndSplineSet
KernsSLIF: 55 -10 0 0 49 -25 0 0 52 17 0 0
EndChar
StartChar: seven
Encoding: 55 55 24
Width: 574
Flags: W
HStem: -14 21G<251 310.5> 549 145<171 318>
VStem: 187 191<81 99>
Fore
546 708 m 1
 546 666 l 1
 397 349 378 281 378 97 c 0
 378 25 342 -14 279 -14 c 0
 223 -14 187 25 187 84 c 0
 187 125 203 174 240 246 c 0
 245 256 287 323 367 447 c 1
 435 548 l 1
 351 546 307 545 303 545 c 0
 273 545 222 547 189 548 c 0
 182 549 176 549 171 549 c 0
 136 549 129 536 110 448 c 2
 100 403 l 1
 45 409 l 1
 79 708 l 1
 178 697 226 694 318 694 c 0
 421 694 483 698 546 708 c 1
EndSplineSet
KernsSLIF: 50 -20 1 0 51 -19 1 0 54 -25 1 0 55 -11 1 0 46 -45 1 0 49 -20 1 0 52 -62 1 0 53 -24 1 0 56 -21 1 0 44 -42 1 0 58 -45 1 0
EndChar
StartChar: eight
Encoding: 56 56 25
Width: 574
Flags: W
HStem: -14 52<274 304> 656 52<275 304>
VStem: 27 130<153 179> 49 130<495 560> 396 125<540 560> 422 124<155 215>
Fore
403 411 m 1xd8
 500 372 546 309 546 215 c 0
 546 78 437 -14 276 -14 c 0
 124 -14 27 55 27 163 c 0xe4
 27 221 54 267 104 293 c 0
 121 302 134 306 165 316 c 1
 86 358 49 416 49 495 c 0
 49 624 149 708 304 708 c 0
 433 708 521 645 521 553 c 0
 521 507 499 466 460 439 c 0
 446 429 431 422 403 411 c 1xd8
352 436 m 1
 354 438 l 2
 380 461 396 501 396 542 c 0
 396 612 354 656 287 656 c 0
 225 656 179 615 179 560 c 0xd8
 179 516 210 475 255 458 c 0
 274 451 306 442 347 432 c 1
 349 433 349 433 350 435 c 1
 352 436 l 1
219 289 m 1
 172 250 157 220 157 166 c 0
 157 86 206 38 287 38 c 0
 365 38 422 87 422 155 c 0xe4
 422 206 398 233 335 255 c 0
 310 263 261 277 219 289 c 1
EndSplineSet
KernsSLIF: 55 -12 1 0 49 -30 1 0 52 15 1 0
EndChar
StartChar: nine
Encoding: 57 57 26
Width: 574
Flags: W
HStem: -14 52<221 234> 263 75<223 282> 656 52<273 285>
VStem: 25 173<465 491> 45 179<114 133> 365 180<386 482>
Fore
369 329 m 1xf4
 327 282 285 263 223 263 c 0
 109 263 25 350 25 468 c 0xf4
 25 607 130 708 275 708 c 0
 359 708 432 671 483 603 c 0
 525 546 545 477 545 386 c 0
 545 277 519 181 469 107 c 0
 417 28 334 -14 231 -14 c 0
 118 -14 45 36 45 114 c 0
 45 172 85 214 140 214 c 0
 190 214 224 181 224 133 c 0xec
 224 111 222 105 204 76 c 0
 200 70 198 64 198 58 c 0
 198 46 210 38 232 38 c 0
 312 38 356 108 367 251 c 0
 369 275 369 285 369 329 c 1xf4
283 656 m 0
 227 656 198 600 198 491 c 0
 198 441 204 405 215 381 c 0
 227 356 254 338 282 338 c 0
 333 338 365 394 365 482 c 0
 365 528 356 582 343 611 c 0
 331 640 309 656 283 656 c 0
EndSplineSet
KernsSLIF: 55 1 1 0 49 -39 1 0 52 9 1 0
EndChar
StartChar: colon
Encoding: 58 58 27
Width: 278
Flags: W
HStem: -15 187<136 154> 294 187<136 154>
Fore
150 172 m 0
 202 172 244 130 244 79 c 0
 244 27 202 -15 149 -15 c 0
 99 -15 57 28 57 79 c 0
 57 130 99 172 150 172 c 0
150 481 m 0
 202 481 244 439 244 388 c 0
 244 336 202 294 149 294 c 0
 99 294 57 337 57 388 c 0
 57 439 99 481 150 481 c 0
EndSplineSet
EndChar
StartChar: semicolon
Encoding: 59 59 28
Width: 278
Flags: W
HStem: -11 185<129 145> 294 187<131 149>
Fore
75 -185 m 1
 48 -145 l 1
 110 -101 147 -54 147 -16 c 0
 147 -12 146 -10 143 -10 c 2
 139 -10 l 2
 137 -11 135 -11 131 -11 c 0
 83 -11 47 26 47 75 c 0
 47 131 89 174 143 174 c 0
 203 174 244 125 244 53 c 0
 244 -36 186 -118 75 -185 c 1
145 481 m 0
 197 481 239 439 239 388 c 0
 239 336 197 294 144 294 c 0
 94 294 52 337 52 388 c 0
 52 439 94 481 145 481 c 0
EndSplineSet
EndChar
StartChar: less
Encoding: 60 60 29
Width: 606
Flags: W
DStem: 49 207 230 253 558 -25 558 100 558 529 558 404 49 297 230 253
Fore
558 404 m 1
 230 253 l 1
 558 100 l 1
 558 -25 l 1
 49 207 l 1
 49 297 l 1
 558 529 l 1
 558 404 l 1
EndSplineSet
EndChar
StartChar: equal
Encoding: 61 61 30
Width: 606
Flags: W
HStem: 92 115<51 555> 298 115<51 555>
Fore
51 92 m 1
 51 207 l 1
 555 207 l 1
 555 92 l 1
 51 92 l 1
51 298 m 1
 51 413 l 1
 555 413 l 1
 555 298 l 1
 51 298 l 1
EndSplineSet
EndChar
StartChar: greater
Encoding: 62 62 31
Width: 606
Flags: W
DStem: 48 404 48 529 376 253 557 297 376 253 557 207 48 100 48 -25
Fore
48 404 m 1
 48 529 l 1
 557 297 l 1
 557 207 l 1
 48 -25 l 1
 48 100 l 1
 376 253 l 1
 48 404 l 1
EndSplineSet
EndChar
StartChar: question
Encoding: 63 63 32
Width: 500
Flags: W
HStem: -15 188<215.087 231> 488 21G<90.5 143.5> 680 57<206 248>
VStem: 23 181<566 581> 300 176<557 578>
Fore
254 228 m 1
 200 228 l 1
 198 244 197 260 197 270 c 0
 197 315 205 335 260 433 c 0
 285 478 300 529 300 570 c 0
 300 640 266 680 206 680 c 0
 175 680 153 669 153 655 c 0
 153 648 154 647 172 633 c 0
 193 617 204 595 204 568 c 0
 204 521 169 488 118 488 c 0
 63 488 23 527 23 581 c 0
 23 673 116 737 248 737 c 0
 388 737 476 668 476 559 c 0
 476 511 456 465 421 435 c 0
 414 429 405 422 328 363 c 0
 266 315 257 298 254 228 c 1
229 173 m 0
 281 173 323 131 323 79 c 0
 323 27 281 -15 228 -15 c 0
 177 -15 135 28 135 79 c 0
 135 131 177 173 229 173 c 0
EndSplineSet
EndChar
StartChar: at
Encoding: 64 64 33
Width: 747
Flags: W
HStem: -15 61<375 409> 145 52<292 309> 521 52<385 406> 676 61<375 409>
VStem: 24 64<352 386> 160 103<256 294> 403 92<204 231> 658 64<416 434>
Fore
644 190 m 1
 713 190 l 1
 698 153 681 130 649 98 c 0
 573 21 488 -15 387 -15 c 0
 185 -15 24 152 24 362 c 0
 24 570 186 737 389 737 c 0
 574 737 722 599 722 426 c 0
 722 281 606 148 480 148 c 0
 434 148 403 170 403 204 c 0
 403 207 404 213 405 220 c 1
 378 169 342 145 292 145 c 0
 217 145 160 210 160 294 c 0
 160 357 186 431 228 488 c 0
 268 542 326 573 385 573 c 0
 429 573 453 559 478 522 c 1
 490 556 l 1
 594 556 l 1
 502 268 l 1
 498 253 495 240 495 231 c 0
 495 217 503 209 519 209 c 0
 538 209 561 220 583 239 c 0
 632 280 658 343 658 419 c 0
 658 568 545 676 388 676 c 0
 216 676 88 543 88 366 c 0
 88 185 219 46 389 46 c 0
 496 46 587 97 644 190 c 1
406 521 m 0
 375 521 347 497 320 448 c 0
 285 386 263 312 263 256 c 0
 263 218 280 197 309 197 c 0
 341 197 370 226 393 280 c 0
 420 343 453 450 453 476 c 0
 453 500 432 521 406 521 c 0
EndSplineSet
EndChar
StartChar: A
Encoding: 65 65 34
Width: 759
Flags: W
HStem: 0 55<444 469.92> 218 67<229 452> 717 20G<351 427>
DStem: 330 524 427 737 427 285 684 117 351 737 330 524 124 207 229 285
Fore
351 737 m 1
 427 737 l 1
 684 117 l 2
 705 66 721 56 778 54 c 1
 778 0 l 1
 427 0 l 1
 427 54 l 1
 444 55 l 2
 489 55 502 61 502 79 c 0
 502 87 498 102 490 120 c 1
 452 218 l 1
 203 218 l 1
 187 180 l 1
 174 151 171 140 171 123 c 0
 171 77 199 58 271 54 c 1
 271 0 l 1
 -18 0 l 1
 -18 54 l 1
 41 60 78 99 124 207 c 2
 351 737 l 1
330 524 m 1
 229 285 l 1
 427 285 l 1
 330 524 l 1
EndSplineSet
KernsSLIF: 121 -60 0 0 119 -54 0 0 118 -54 0 0 117 -11 0 0 116 -8 0 0 39 -53 0 0 186 -53 0 0 113 3 0 0 46 31 0 0 111 -6 0 0 45 -2 0 0 172 -51 0 0 171 -39 0 0 103 21 0 0 101 -5 0 0 100 -1 0 0 44 35 0 0 332 -6 0 0 99 -3 0 0 98 9 0 0 97 22 0 0 89 -31 0 0 87 -82 0 0 86 -87 0 0 300 -40 0 0 298 -40 0 0 301 -40 0 0 299 -40 0 0 85 -40 0 0 84 -31 0 0 81 -34 0 0 286 -35 0 0 79 -35 0 0 71 -31 0 0 264 -37 0 0 67 -34 0 0
EndChar
StartChar: B
Encoding: 66 66 35
Width: 778
Flags: W
HStem: 0 54<17 422> 343 55<301 372> 668 54<17 66 17 406>
VStem: 121 180<84 343 144 625> 522 181<527 561> 545 191<187 202>
Fore
17 722 m 1xf4
 403 722 l 2
 522 722 569 714 624 682 c 0
 673 655 703 602 703 545 c 0xf8
 703 485 671 437 611 408 c 0
 583 395 555 388 506 380 c 1
 558 373 588 365 622 349 c 0
 696 316 736 259 736 189 c 0
 736 122 694 59 630 30 c 0
 579 8 526 0 422 0 c 2
 17 0 l 1
 17 54 l 1
 32 54 l 2
 84 54 105 58 114 69 c 0
 121 77 121 81 121 144 c 2
 121 578 l 2
 121 642 121 645 114 654 c 0
 105 664 84 668 32 668 c 2
 17 668 l 1
 17 722 l 1xf4
301 398 m 1
 350 398 l 2
 412 398 446 406 473 428 c 0
 505 453 522 492 522 541 c 0
 522 624 475 668 387 668 c 2
 357 668 l 2
 338 668 323 664 313 655 c 0
 303 647 301 639 301 610 c 2
 301 398 l 1
301 343 m 1
 301 118 l 2
 301 85 301 82 304 74 c 0
 310 60 327 54 362 54 c 2
 392 54 l 2
 440 54 473 63 498 84 c 0
 527 108 545 152 545 200 c 0xf4
 545 252 524 296 490 319 c 0
 462 337 433 343 370 343 c 2
 301 343 l 1
EndSplineSet
KernsSLIF: 89 -13 0 0 87 -30 0 0 86 -14 0 0 233 -6 0 0 288 -7 0 0 286 -7 0 0 289 -7 0 0 287 -7 0 0 234 7 0 0 79 -7 0 0 261 1 0 0 262 1 0 0 256 1 0 0 259 1 0 0 257 1 0 0 225 3 0 0 65 1 0 0
EndChar
StartChar: C
Encoding: 67 67 36
Width: 778
Flags: W
HStem: -15 62<406 439> 685 52<406 441>
VStem: 40 199<336 372>
Fore
698 733 m 1
 708 447 l 1
 655 441 l 1
 610 608 537 685 426 685 c 0
 303 685 239 577 239 370 c 0
 239 150 303 47 439 47 c 0
 554 47 634 126 661 265 c 1
 723 250 l 1
 685 71 583 -15 406 -15 c 0
 289 -15 204 19 135 95 c 0
 71 166 40 248 40 352 c 0
 40 576 198 737 418 737 c 0
 489 737 535 724 601 684 c 1
 655 733 l 1
 698 733 l 1
EndSplineSet
KernsSLIF: 286 -10 0 0 287 -10 0 0 79 -10 0 0 75 -7 0 0 72 -9 0 0 262 -27 0 0 256 -27 0 0 257 -27 0 0 225 -26 0 0 65 -27 0 0
EndChar
StartChar: D
Encoding: 68 68 37
Width: 833
Flags: W
HStem: 0 54<19 404> 668 54<19 68 19 404>
VStem: 123 180<95.5441 625> 594 199<335 401>
Fore
123 144 m 2
 123 578 l 2
 123 641 123 645 116 653 c 0
 107 664 86 668 34 668 c 2
 19 668 l 1
 19 722 l 1
 375 722 l 2
 516 722 590 708 650 668 c 0
 744 607 793 503 793 369 c 0
 793 232 744 123 655 61 c 0
 593 18 513 0 387 0 c 2
 19 0 l 1
 19 54 l 1
 34 54 l 2
 86 54 107 58 116 69 c 0
 123 77 123 81 123 144 c 2
363 54 m 2
 384 54 l 2
 451 54 510 79 540 122 c 0
 573 167 594 264 594 371 c 0
 594 571 527 668 388 668 c 2
 363 668 l 2
 315 668 303 656 303 608 c 2
 303 119 l 2
 303 66 314 54 363 54 c 2
EndSplineSet
KernsSLIF: 89 -32 0 0 88 -30 0 0 87 -42 0 0 86 -33 0 0 84 8 0 0 74 7 0 0 261 -32 0 0 262 -32 0 0 258 -32 0 0 256 -32 0 0 259 -32 0 0 257 -32 0 0 65 -32 0 0
EndChar
StartChar: E
Encoding: 69 69 38
Width: 759
Flags: W
HStem: 0 54<16 695> 462 260<16 693> 668 54<16 65 16 433>
VStem: 120 180<111 346 144 609>
Fore
687 722 m 1xd0
 693 462 l 1
 641 462 l 1xd0
 626 514 604 564 583 594 c 0
 549 641 488 668 414 668 c 2
 386 668 l 2
 345 668 321 661 310 646 c 0
 302 634 300 623 300 582 c 2
 300 401 l 1
 317 401 l 2
 395 401 444 451 455 543 c 1
 509 543 l 1
 509 204 l 1
 455 204 l 1
 444 296 395 346 317 346 c 2
 300 346 l 1
 300 124 l 2
 300 91 303 80 316 68 c 0
 328 56 341 54 390 54 c 2
 420 54 l 2
 541 54 612 119 654 269 c 1
 707 269 l 1
 695 0 l 1
 16 0 l 1
 16 54 l 1
 31 54 l 2
 83 54 104 58 113 69 c 0
 120 77 120 81 120 144 c 2
 120 578 l 2
 120 641 120 645 113 653 c 0
 104 664 83 668 31 668 c 2
 16 668 l 1xb0
 16 722 l 1
 687 722 l 1xd0
EndSplineSet
EndChar
StartChar: F
Encoding: 70 70 39
Width: 722
Flags: W
HStem: 0 54<22 422> 462 260<22 690> 668 54<22 71 22 424>
VStem: 126 180<144 346 144 609>
Fore
684 722 m 1xd0
 690 462 l 1
 638 462 l 1xd0
 623 515 601 565 580 594 c 0
 546 641 485 668 411 668 c 2
 392 668 l 2
 351 668 327 661 316 646 c 0
 308 634 306 623 306 582 c 2
 306 401 l 1
 323 401 l 2
 402 401 450 450 461 543 c 1
 515 543 l 1
 515 204 l 1
 461 204 l 1
 450 296 402 346 323 346 c 2
 306 346 l 1
 306 144 l 2
 306 81 306 77 313 69 c 0
 322 58 343 54 396 54 c 2
 422 54 l 1
 422 0 l 1
 22 0 l 1
 22 54 l 1
 37 54 l 2
 89 54 110 58 119 69 c 0
 126 77 126 81 126 144 c 2
 126 578 l 2
 126 641 126 645 119 653 c 0
 110 664 89 668 37 668 c 2
 22 668 l 1xb0
 22 722 l 1
 684 722 l 1xd0
EndSplineSet
KernsSLIF: 117 12 0 0 114 10 0 0 46 -82 0 0 249 -51 0 0 250 -48 0 0 351 -46 0 0 352 -46 0 0 111 -46 0 0 106 11 0 0 105 5 0 0 45 -40 0 0 335 -45 0 0 101 -45 0 0 44 -80 0 0 328 -32 0 0 241 -30 0 0 322 -32 0 0 323 -32 0 0 97 -32 0 0 286 -2 0 0 79 -2 0 0 74 -55 0 0 261 -79 0 0 262 -79 0 0 258 -79 0 0 256 -79 0 0 259 -79 0 0 257 -79 0 0 65 -79 0 0
EndChar
StartChar: G
Encoding: 71 71 40
Width: 833
Flags: W
HStem: -15 52<388 416> 282 54<462 504 462 817> 685 52<417 456>
VStem: 39 200<320 370> 564 164<192 226>
Fore
719 733 m 1
 728 446 l 1
 675 446 l 1
 642 598 555 685 437 685 c 0
 378 685 325 657 296 610 c 0
 259 550 239 462 239 356 c 0
 239 262 253 181 280 123 c 0
 305 69 355 37 416 37 c 0
 505 37 564 98 564 192 c 2
 564 206 l 2
 564 279 560 282 473 282 c 2
 462 282 l 1
 462 336 l 1
 817 336 l 1
 817 282 l 1
 760 281 744 278 735 268 c 0
 728 260 728 255 728 192 c 2
 728 -14 l 1
 675 -14 l 1
 626 84 l 1
 597 54 581 41 556 26 c 0
 510 0 449 -15 388 -15 c 0
 181 -15 39 134 39 350 c 0
 39 460 70 544 138 616 c 0
 212 696 310 737 425 737 c 0
 497 737 546 723 616 683 c 1
 675 733 l 1
 719 733 l 1
EndSplineSet
KernsSLIF: 89 -10 0 0 87 -20 0 0 86 -7 0 0 84 -21 0 0 261 -4 0 0 262 -4 0 0 258 -4 0 0 256 -4 0 0 259 -4 0 0 257 -4 0 0 65 -4 0 0
EndChar
StartChar: H
Encoding: 72 72 41
Width: 870
Flags: W
HStem: 0 54<20 409 461 850> 339 60<304 565> 668 54<20 69 20 409 461 501 461 850>
VStem: 124 180<144 339 144 625> 565 180<144 339 399 625>
Fore
565 339 m 1
 304 339 l 1
 304 144 l 2
 304 80 304 77 311 69 c 0
 320 58 342 54 394 54 c 2
 409 54 l 1
 409 0 l 1
 20 0 l 1
 20 54 l 1
 35 54 l 2
 87 54 108 58 117 69 c 0
 124 77 124 81 124 144 c 2
 124 577 l 2
 124 641 124 645 117 653 c 0
 108 664 87 668 35 668 c 2
 20 668 l 1
 20 722 l 1
 409 722 l 1
 409 668 l 1
 394 668 l 2
 342 668 320 664 311 653 c 0
 304 645 304 641 304 577 c 2
 304 399 l 1
 565 399 l 1
 565 577 l 2
 565 640 565 645 558 653 c 0
 549 664 528 668 476 668 c 2
 461 668 l 1
 461 722 l 1
 850 722 l 1
 850 668 l 1
 835 668 l 2
 783 668 761 664 752 653 c 0
 745 645 745 641 745 577 c 2
 745 144 l 2
 745 80 745 77 752 69 c 0
 761 58 783 54 835 54 c 2
 850 54 l 1
 850 0 l 1
 461 0 l 1
 461 54 l 1
 476 54 l 2
 528 54 549 58 558 69 c 0
 565 77 565 81 565 144 c 2
 565 339 l 1
EndSplineSet
EndChar
StartChar: I
Encoding: 73 73 42
Width: 444
Flags: W
HStem: 0 54<28 417> 668 54<28 77 28 417>
VStem: 132 180<144 625>
Fore
132 144 m 2
 132 578 l 2
 132 641 132 645 125 653 c 0
 116 664 95 668 43 668 c 2
 28 668 l 1
 28 722 l 1
 417 722 l 1
 417 668 l 1
 402 668 l 2
 350 668 328 664 319 653 c 0
 312 645 312 642 312 578 c 2
 312 144 l 2
 312 80 312 77 319 69 c 0
 328 58 350 54 402 54 c 2
 417 54 l 1
 417 0 l 1
 28 0 l 1
 28 54 l 1
 43 54 l 2
 95 54 116 58 125 69 c 0
 132 77 132 81 132 144 c 2
EndSplineSet
EndChar
StartChar: J
Encoding: 74 74 43
Width: 648
Flags: W
HStem: -15 61<202 246> 134 196<126 141> 668 54<250 293 250 639>
VStem: 4 227<182 228> 354 180<243 626>
Fore
534 578 m 2
 534 280 l 2
 534 161 509 96 446 46 c 0
 395 5 328 -15 246 -15 c 0
 96 -15 4 60 4 182 c 0
 4 268 56 330 128 330 c 0
 188 330 231 287 231 228 c 0
 231 174 192 134 139 134 c 0
 131 134 124 135 115 137 c 0
 110 138 106 139 103 139 c 0
 92 139 84 131 84 120 c 0
 84 81 140 46 202 46 c 0
 254 46 302 69 327 105 c 0
 347 135 354 173 354 245 c 2
 354 578 l 2
 354 642 354 645 347 653 c 0
 338 664 317 668 265 668 c 2
 250 668 l 1
 250 722 l 1
 639 722 l 1
 639 668 l 1
 624 668 l 2
 572 668 550 664 541 653 c 0
 534 645 534 642 534 578 c 2
EndSplineSet
KernsSLIF: 262 -44 0 0 256 -44 0 0 225 -43 0 0 65 -44 0 0
EndChar
StartChar: K
Encoding: 75 75 44
Width: 815
Flags: W
HStem: 0 54<15 404 454 818> 668 54<15 64 15 404 454 496>
VStem: 119 180<144 250 144 635>
DStem: 383 338 505 463 523 109 713 131 520 578 588 550 299 344 505 463
Fore
383 338 m 1
 299 250 l 1
 299 144 l 2
 299 81 299 77 306 69 c 0
 315 58 337 54 389 54 c 2
 404 54 l 1
 404 0 l 1
 15 0 l 1
 15 54 l 1
 30 54 l 2
 82 54 103 58 112 69 c 0
 119 77 119 81 119 144 c 2
 119 578 l 2
 119 641 119 645 112 653 c 0
 103 664 82 668 30 668 c 2
 15 668 l 1
 15 722 l 1
 404 722 l 1
 404 668 l 1
 389 668 l 2
 337 668 315 664 306 653 c 0
 299 645 299 641 299 578 c 2
 299 344 l 1
 520 578 l 2
 538 598 553 622 553 633 c 0
 553 656 527 668 478 668 c 2
 454 668 l 1
 454 722 l 1
 791 722 l 1
 791 668 l 1
 725 664 675 635 588 550 c 1
 505 463 l 1
 713 131 l 1
 759 59 763 57 818 54 c 1
 818 0 l 1
 454 0 l 1
 454 54 l 1
 467 54 l 2
 513 54 535 61 535 77 c 0
 535 86 531 95 523 109 c 2
 383 338 l 1
EndSplineSet
KernsSLIF: 121 -84 0 0 362 -23 0 0 117 -23 0 0 351 -20 0 0 352 -20 0 0 111 -20 0 0 45 -25 0 0 101 -18 0 0 328 12 0 0 241 15 0 0 322 12 0 0 97 12 0 0 84 13 0 0 83 12 0 0 286 -45 0 0 287 -45 0 0 234 -31 0 0 79 -45 0 0 71 -44 0 0 67 -45 0 0
EndChar
StartChar: L
Encoding: 76 76 45
Width: 722
Flags: W
HStem: 0 54<19 689> 668 54<19 68 19 414>
VStem: 123 180<111 625>
Fore
648 269 m 1
 701 269 l 1
 689 0 l 1
 19 0 l 1
 19 54 l 1
 34 54 l 2
 86 54 107 58 116 69 c 0
 123 77 123 81 123 145 c 2
 123 578 l 2
 123 641 123 645 116 653 c 0
 107 664 86 668 34 668 c 2
 19 668 l 1
 19 722 l 1
 415 722 l 1
 415 668 l 1
 393 668 l 2
 340 668 319 664 310 653 c 0
 303 645 303 641 303 578 c 2
 303 124 l 2
 303 91 306 80 319 68 c 0
 331 56 344 54 393 54 c 2
 414 54 l 2
 485 54 542 80 583 129 c 0
 610 162 628 200 648 269 c 1
EndSplineSet
KernsSLIF: 121 -34 0 0 362 -4 0 0 117 -4 0 0 39 -21 0 0 186 -22 0 0 45 44 0 0 89 -56 0 0 87 -68 0 0 86 -74 0 0 298 -31 0 0 85 -31 0 0 84 -56 0 0 83 3 0 0 290 5 0 0 288 5 0 0 286 5 0 0 289 5 0 0 287 5 0 0 79 5 0 0 71 5 0 0 264 4 0 0 67 5 0 0 262 32 0 0 256 32 0 0 257 32 0 0 225 37 0 0 65 32 0 0
EndChar
StartChar: M
Encoding: 77 77 46
Width: 981
Flags: W
HStem: 0 54<583 965> 668 54<16 58 639 965>
VStem: 117 67<217 633> 684 180<144 635>
DStem: 184 633 338 722 411 0 493 292 639 722 684 643 493 292 463 0
Fore
338 722 m 1
 493 292 l 1
 639 722 l 1
 965 722 l 1
 965 668 l 1
 954 668 l 2
 901 668 880 664 871 653 c 0
 864 645 864 640 864 578 c 2
 864 144 l 2
 864 82 864 77 871 69 c 0
 880 58 901 54 954 54 c 2
 965 54 l 1
 965 0 l 1
 583 0 l 1
 583 54 l 1
 594 54 l 2
 647 54 668 58 677 69 c 0
 684 77 684 81 684 144 c 2
 684 643 l 1
 463 0 l 1
 411 0 l 1
 184 633 l 1
 184 217 l 2
 184 128 189 103 210 81 c 0
 226 64 254 55 294 54 c 1
 294 0 l 1
 9 0 l 1
 9 54 l 1
 48 55 75 64 91 81 c 0
 112 103 117 129 117 217 c 2
 117 578 l 2
 117 641 117 645 110 653 c 0
 101 664 80 668 27 668 c 2
 16 668 l 1
 16 722 l 1
 338 722 l 1
EndSplineSet
EndChar
StartChar: N
Encoding: 78 78 47
Width: 833
Flags: W
HStem: -7 21G<656 723> 702 20G<18 270 548 833>
VStem: 124 67<217 546> 656 67<270 554>
DStem: 191 546 270 722 656 -7 656 270
Fore
270 722 m 1
 656 270 l 1
 656 505 l 2
 656 593 651 619 630 641 c 0
 614 658 587 667 548 668 c 1
 548 722 l 1
 833 722 l 1
 833 668 l 1
 793 667 765 658 749 641 c 0
 728 619 723 594 723 505 c 2
 723 -7 l 1
 656 -7 l 1
 191 546 l 1
 191 217 l 2
 191 129 196 104 217 82 c 0
 233 65 258 57 301 55 c 1
 301 0 l 1
 16 0 l 1
 16 55 l 1
 59 57 82 65 98 82 c 0
 119 104 124 129 124 217 c 2
 124 611 l 1
 99 647 63 666 18 667 c 1
 18 722 l 1
 270 722 l 1
EndSplineSet
KernsSLIF: 362 -26 0 0 117 -26 0 0 249 -18 0 0 351 -18 0 0 352 -18 0 0 111 -18 0 0 335 -18 0 0 101 -18 0 0 44 2 0 0 328 -19 0 0 241 -15 0 0 322 -19 0 0 323 -19 0 0 97 -19 0 0 286 -15 0 0 287 -15 0 0 79 -15 0 0 71 -13 0 0 264 -15 0 0 67 -14 0 0 262 -7 0 0 256 -7 0 0 257 -7 0 0 225 -1 0 0 65 -7 0 0
EndChar
StartChar: O
Encoding: 79 79 48
Width: 833
Flags: W
HStem: -15 52<406 424> 685 52<406 424>
VStem: 39 200<336 371> 594 200<336 371>
Fore
417 737 m 0
 515 737 593 710 660 652 c 0
 743 581 794 467 794 351 c 0
 794 234 746 132 660 63 c 0
 593 10 514 -15 412 -15 c 0
 195 -15 39 138 39 350 c 0
 39 467 89 580 173 652 c 0
 238 709 320 737 417 737 c 0
418 685 m 0
 359 685 319 663 290 614 c 0
 256 557 239 477 239 369 c 0
 239 264 257 176 290 114 c 0
 318 62 360 37 418 37 c 0
 532 37 594 147 594 350 c 0
 594 458 576 548 543 608 c 0
 514 659 472 685 418 685 c 0
EndSplineSet
KernsSLIF: 89 -33 0 0 88 -32 0 0 87 -45 0 0 86 -35 0 0 84 7 0 0 262 -36 0 0 256 -36 0 0 257 -36 0 0 225 -35 0 0 65 -36 0 0
EndChar
StartChar: P
Encoding: 80 80 49
Width: 759
Flags: W
HStem: 0 54<24 420> 310 55<308 420> 667 55<24 73 24 424>
VStem: 128 180<144 310 144 625> 542 193<511 529>
Fore
308 310 m 1
 308 144 l 2
 308 80 308 77 315 68 c 0
 324 58 345 54 398 54 c 2
 420 54 l 1
 420 0 l 1
 24 0 l 1
 24 54 l 1
 39 54 l 2
 91 54 112 58 121 68 c 0
 128 77 128 80 128 144 c 2
 128 577 l 2
 128 641 128 644 121 653 c 0
 112 663 91 667 39 667 c 2
 24 667 l 1
 24 722 l 1
 421 722 l 2
 521 722 580 712 634 687 c 0
 698 657 735 596 735 521 c 0
 735 381 629 310 420 310 c 2
 308 310 l 1
308 365 m 1
 366 365 l 2
 495 365 542 407 542 522 c 0
 542 622 498 667 403 667 c 2
 363 667 l 2
 318 667 308 656 308 607 c 2
 308 365 l 1
EndSplineSet
KernsSLIF: 46 -92 0 0 249 -37 0 0 250 -34 0 0 351 -32 0 0 352 -32 0 0 111 -32 0 0 45 -35 0 0 335 -32 0 0 101 -32 0 0 44 -90 0 0 328 -22 0 0 241 -20 0 0 322 -22 0 0 323 -22 0 0 97 -22 0 0 74 -50 0 0 262 -81 0 0 256 -81 0 0 257 -81 0 0 225 -69 0 0 65 -81 0 0
EndChar
StartChar: Q
Encoding: 81 81 50
Width: 833
Flags: W
HStem: -188 93<636 705> -38 20G<754 808> -15 52<401 423> 233 57<385 403> 685 52<401 423>
VStem: 38 200<339 389> 590 200<339 389>
Fore
472 -25 m 2
 472 -10 l 1
 448 -14 433 -15 409 -15 c 0
 297 -15 206 25 134 107 c 0
 71 178 38 266 38 363 c 0
 38 575 201 737 416 737 c 0
 624 737 790 571 790 363 c 0
 790 234 726 114 620 44 c 1
 657 -68 674 -95 705 -95 c 0
 736 -95 749 -74 754 -18 c 1
 808 -18 l 1
 808 -26 l 2
 808 -122 738 -188 636 -188 c 0
 532 -188 472 -129 472 -25 c 2
565 175 m 1
 581 217 590 290 590 370 c 0
 590 455 576 533 551 591 c 0
 524 653 477 685 414 685 c 0
 298 685 238 581 238 379 c 0
 238 296 245 232 259 189 c 1
 271 220 279 235 295 250 c 0
 321 275 361 290 403 290 c 0
 454 290 503 268 535 231 c 0
 548 215 554 203 565 175 c 1
474 53 m 1
 476 75 477 90 477 100 c 0
 477 186 445 233 387 233 c 0
 335 233 299 191 299 132 c 0
 299 75 344 37 411 37 c 0
 435 37 448 40 474 53 c 1
EndSplineSet
EndChar
StartChar: R
Encoding: 82 82 51
Width: 815
Flags: W
HStem: 0 55<20 420> 347 55<304 377> 668 54<20 69 20 422>
VStem: 124 180<145 347 145 626> 534 191<528 546> 763 54<143 164>
Fore
304 347 m 1
 304 145 l 2
 304 81 304 78 311 69 c 0
 320 59 342 55 394 55 c 2
 420 55 l 1
 420 0 l 1
 20 0 l 1
 20 55 l 1
 35 55 l 2
 87 55 108 59 117 69 c 0
 124 78 124 81 124 145 c 2
 124 578 l 2
 124 642 124 645 117 654 c 0
 108 664 87 668 35 668 c 2
 20 668 l 1
 20 722 l 1
 447 722 l 2
 539 722 606 710 644 686 c 0
 696 652 725 601 725 541 c 0
 725 476 690 421 629 390 c 0
 604 378 578 371 525 361 c 1
 612 332 650 287 665 197 c 1
 672 159 l 1
 674 145 676 135 676 131 c 0
 681 99 682 92 688 84 c 0
 694 75 706 69 717 69 c 0
 747 69 762 101 763 164 c 1
 817 164 l 1
 817 152 l 2
 817 46 755 -15 647 -15 c 0
 560 -15 504 26 487 104 c 0
 484 120 479 162 473 229 c 0
 469 286 465 298 449 317 c 0
 431 337 403 347 360 347 c 2
 304 347 l 1
304 402 m 1
 359 402 l 2
 492 402 534 434 534 536 c 0
 534 627 492 668 399 668 c 2
 375 668 l 2
 311 668 304 661 304 604 c 2
 304 402 l 1
EndSplineSet
KernsSLIF: 121 -25 0 0 362 -9 0 0 363 -9 0 0 117 -9 0 0 250 13 0 0 351 16 0 0 352 16 0 0 111 16 0 0 45 31 0 0 335 15 0 0 101 15 0 0 328 16 0 0 241 20 0 0 322 16 0 0 323 16 0 0 97 16 0 0 89 -16 0 0 87 -34 0 0 86 -18 0 0 298 -22 0 0 85 -22 0 0 84 -16 0 0 286 -1 0 0 287 -1 0 0 234 14 0 0 79 -1 0 0 264 -3 0 0 67 -1 0 0
EndChar
StartChar: S
Encoding: 83 83 52
Width: 667
Flags: W
HStem: -15 52<369 387> 685 52<290 313>
VStem: 52 115<514 580> 513 120<154 223>
Fore
588 729 m 1
 601 470 l 1
 548 470 l 1
 489 612 406 685 302 685 c 0
 223 685 167 641 167 580 c 0
 167 539 190 510 235 494 c 0
 260 485 260 485 337 470 c 1
 385 459 l 2
 558 421 633 350 633 223 c 0
 633 83 525 -15 369 -15 c 0
 289 -15 225 6 164 52 c 1
 102 -7 l 1
 57 -7 l 1
 51 276 l 1
 102 276 l 1
 157 126 256 37 369 37 c 0
 456 37 513 84 513 154 c 0
 513 189 497 219 469 234 c 0
 445 247 425 252 361 264 c 2
 299 276 l 2
 142 305 52 392 52 514 c 0
 52 647 157 737 311 737 c 0
 381 737 435 721 491 683 c 1
 543 729 l 1
 588 729 l 1
EndSplineSet
KernsSLIF: 116 -5 0 0 89 7 0 0 87 -2 0 0 86 10 0 0 84 -2 0 0
EndChar
StartChar: T
Encoding: 84 84 53
Width: 722
Flags: W
HStem: 0 54<159 563> 451 271<29 68 30 707> 670 52<30 240 30 496>
VStem: 271 180<144 641>
Fore
692 722 m 1xd0
 707 451 l 1
 654 451 l 1xd0
 639 532 623 574 595 611 c 0
 563 652 530 670 487 670 c 0
 457 670 451 663 451 629 c 2
 451 144 l 2
 451 81 451 77 458 69 c 0
 467 58 488 54 541 54 c 2
 563 54 l 1
 563 0 l 1
 159 0 l 1
 159 54 l 1
 181 54 l 2
 234 54 255 58 264 69 c 0
 271 77 271 81 271 144 c 2
 271 629 l 2
 271 663 265 670 235 670 c 0xb0
 189 670 151 647 119 599 c 0
 95 564 81 525 68 451 c 1
 15 451 l 1
 30 722 l 1
 692 722 l 1xd0
EndSplineSet
KernsSLIF: 121 20 0 0 119 18 0 0 118 21 0 0 117 21 0 0 59 -4 0 0 115 -14 0 0 114 18 0 0 46 -64 0 0 249 -43 0 0 111 -37 0 0 106 20 0 0 105 13 0 0 45 -74 0 0 172 -121 0 0 171 -109 0 0 103 -32 0 0 101 -36 0 0 44 -60 0 0 58 -4 0 0 99 -38 0 0 241 -17 0 0 97 -20 0 0 89 31 0 0 87 22 0 0 86 34 0 0 83 4 0 0 290 7 0 0 233 8 0 0 288 7 0 0 286 7 0 0 289 7 0 0 287 7 0 0 234 23 0 0 79 7 0 0 74 -52 0 0 71 8 0 0 67 8 0 0 261 -31 0 0 262 -31 0 0 258 -31 0 0 256 -31 0 0 259 -31 0 0 257 -31 0 0 225 -26 0 0 65 -31 0 0
EndChar
StartChar: U
Encoding: 85 85 54
Width: 833
Flags: W
HStem: -15 75<424 460> 668 54<15 64 15 404>
VStem: 119 180<224 626> 647 67<304 546>
Fore
299 578 m 2
 299 258 l 2
 299 185 310 136 332 109 c 0
 360 77 403 60 460 60 c 0
 543 60 601 92 630 155 c 0
 643 183 647 222 647 304 c 2
 647 505 l 2
 647 594 642 619 621 641 c 0
 605 658 578 667 539 668 c 1
 539 722 l 1
 824 722 l 1
 824 668 l 1
 784 667 756 658 740 641 c 0
 719 619 714 593 714 505 c 2
 714 304 l 2
 714 186 706 141 678 96 c 0
 629 19 552 -15 424 -15 c 0
 283 -15 186 25 145 100 c 0
 126 135 119 177 119 261 c 2
 119 578 l 2
 119 641 119 645 112 653 c 0
 103 664 82 668 30 668 c 2
 15 668 l 1
 15 722 l 1
 404 722 l 1
 404 668 l 1
 389 668 l 2
 337 668 315 664 306 653 c 0
 299 645 299 641 299 578 c 2
EndSplineSet
KernsSLIF: 114 -33 0 0 46 -25 0 0 112 -33 0 0 110 -34 0 0 109 -34 0 0 44 -23 0 0 261 -45 0 0 262 -45 0 0 256 -45 0 0 259 -45 0 0 257 -45 0 0 225 -43 0 0 65 -45 0 0
EndChar
StartChar: V
Encoding: 86 86 55
Width: 759
Flags: W
HStem: -15 21G<323 411> 668 54<-18 7.29966 -18 344 483 509.41>
DStem: 80 599 270 610 323 -15 429 206 571 562 640 541 429 206 411 -15
Fore
429 206 m 1
 571 562 l 2
 577 577 580 589 580 600 c 0
 580 624 567 646 545 657 c 0
 531 665 515 668 483 668 c 1
 483 722 l 1
 778 722 l 1
 778 668 l 1
 717 662 672 621 640 541 c 1
 411 -15 l 1
 323 -15 l 1
 80 599 l 2
 57 657 41 668 -18 668 c 1
 -18 722 l 1
 344 722 l 1
 344 668 l 1
 323 668 l 2
 279 668 261 661 261 643 c 0
 261 637 264 626 270 610 c 2
 429 206 l 1
EndSplineSet
KernsSLIF: 121 -46 0 0 117 -45 0 0 59 -73 0 0 114 -48 0 0 46 -93 0 0 249 -85 0 0 111 -85 0 0 105 -2 0 0 45 -60 0 0 172 -103 0 0 171 -92 0 0 103 -85 0 0 101 -85 0 0 44 -90 0 0 58 -74 0 0 241 -82 0 0 97 -85 0 0 84 34 0 0 83 -1 0 0 290 -34 0 0 233 -39 0 0 288 -34 0 0 286 -34 0 0 289 -34 0 0 287 -34 0 0 79 -34 0 0 71 -35 0 0 67 -34 0 0 261 -101 0 0 262 -101 0 0 258 -101 0 0 256 -101 0 0 259 -101 0 0 257 -101 0 0 225 -41 0 0 65 -101 0 0
EndChar
StartChar: W
Encoding: 87 87 56
Width: 981
Flags: W
HStem: -15 21G<286 361 618 691> 702 20G<6 316 361 657 721 973>
DStem: 82 610 265 609 286 -15 381 251 461 502 493 392 381 251 361 -15 493 392 604 614 618 -15 711 258 798 543 865 534 711 258 691 -15
Fore
711 258 m 1
 798 543 l 2
 809 579 811 590 811 604 c 0
 811 628 798 649 777 659 c 0
 764 665 750 667 721 668 c 1
 721 722 l 1
 973 722 l 1
 973 668 l 1
 913 656 894 633 865 534 c 1
 691 -15 l 1
 618 -15 l 1
 493 392 l 1
 361 -15 l 1
 286 -15 l 1
 82 610 l 2
 66 658 53 668 8 668 c 2
 6 668 l 1
 6 722 l 1
 316 722 l 1
 316 668 l 1
 269 666 257 661 257 643 c 0
 257 636 259 626 265 609 c 1
 381 251 l 1
 461 502 l 1
 425 615 l 1
 410 658 400 666 361 668 c 1
 361 722 l 1
 657 722 l 1
 657 668 l 1
 610 665 598 660 598 641 c 0
 598 635 599 629 604 614 c 1
 711 258 l 1
EndSplineSet
KernsSLIF: 121 -40 0 0 117 -40 0 0 59 -59 0 0 114 -42 0 0 46 -70 0 0 249 -68 0 0 111 -68 0 0 105 -17 0 0 45 -44 0 0 172 -87 0 0 171 -76 0 0 103 -69 0 0 101 -68 0 0 44 -67 0 0 58 -62 0 0 241 -66 0 0 97 -70 0 0 84 21 0 0 83 -19 0 0 290 -48 0 0 233 -46 0 0 288 -48 0 0 286 -48 0 0 289 -48 0 0 287 -48 0 0 79 -48 0 0 71 -46 0 0 67 -47 0 0 261 -85 0 0 262 -85 0 0 258 -85 0 0 256 -85 0 0 259 -85 0 0 257 -85 0 0 225 -55 0 0 65 -85 0 0
EndChar
StartChar: X
Encoding: 88 88 57
Width: 722
Flags: W
HStem: 0 54<375 398.222> 668 54<401 425.104>
DStem: 74 617 288 618 279 325 393 467 279 325 319 268 132 144 231 156 319 268 431 413 428 112 608 155 463 553 577 591 393 467 431 413
Fore
431 413 m 1
 608 155 l 2
 670 65 682 56 735 54 c 1
 735 0 l 1
 375 0 l 1
 375 54 l 1
 425 55 441 61 441 78 c 0
 441 88 436 102 428 112 c 1
 319 268 l 1
 231 156 l 2
 218 140 211 122 211 106 c 0
 211 71 243 56 319 54 c 1
 319 0 l 1
 -12 0 l 1
 -12 54 l 1
 46 56 74 73 132 144 c 2
 279 325 l 1
 74 617 l 2
 46 657 32 665 -12 668 c 1
 -12 722 l 1
 346 722 l 1
 346 668 l 1
 287 666 278 663 278 644 c 0
 278 636 281 628 288 618 c 2
 393 467 l 1
 463 553 l 1
 487 581 497 601 497 617 c 0
 497 650 464 668 401 668 c 1
 401 722 l 1
 709 722 l 1
 709 668 l 1
 657 664 622 644 577 591 c 1
 431 413 l 1
EndSplineSet
KernsSLIF: 121 -80 0 0 117 -14 0 0 111 -9 0 0 45 -26 0 0 101 -8 0 0 97 19 0 0 81 -37 0 0 286 -38 0 0 79 -38 0 0 67 -37 0 0
EndChar
StartChar: Y
Encoding: 89 89 58
Width: 722
Flags: W
HStem: 0 54<159 563> 668 54<-12 12.0553 -12 348 440 469>
VStem: 271 180<144 305>
DStem: 67 632 288 615 271 305 420 396 520 574 601 575 420 396 451 318
Fore
420 396 m 1
 520 574 l 1
 528 590 534 608 534 620 c 0
 534 649 505 668 461 668 c 2
 440 668 l 1
 440 722 l 1
 735 722 l 1
 735 668 l 1
 679 664 639 637 601 575 c 1
 451 318 l 1
 451 144 l 2
 451 81 451 77 458 69 c 0
 467 58 488 54 541 54 c 2
 563 54 l 1
 563 0 l 1
 159 0 l 1
 159 54 l 1
 181 54 l 2
 234 54 255 58 264 69 c 0
 271 77 271 82 271 144 c 2
 271 305 l 1
 67 632 l 1
 48 661 33 668 -12 668 c 1
 -12 722 l 1
 348 722 l 1
 348 668 l 1
 332 668 l 2
 294 668 276 661 276 646 c 0
 276 637 278 631 288 615 c 2
 420 396 l 1
EndSplineSet
KernsSLIF: 118 -62 0 0 117 -59 0 0 59 -65 0 0 46 -65 0 0 112 -62 0 0 249 -85 0 0 111 -85 0 0 105 -4 0 0 45 -73 0 0 172 -116 0 0 171 -104 0 0 103 -68 0 0 101 -85 0 0 44 -61 0 0 58 -71 0 0 241 -65 0 0 97 -68 0 0 84 32 0 0 290 -33 0 0 233 -37 0 0 288 -33 0 0 286 -33 0 0 289 -33 0 0 287 -33 0 0 79 -33 0 0 71 -34 0 0 67 -33 0 0 261 -31 0 0 262 -31 0 0 258 -31 0 0 256 -31 0 0 259 -31 0 0 257 -31 0 0 225 -26 0 0 65 -31 0 0
EndChar
StartChar: Z
Encoding: 90 90 59
Width: 667
Flags: W
HStem: 0 55<233 618> 667 55<61 425>
DStem: 425 667 634 666 24 58 233 55
Fore
634 722 m 1
 634 666 l 1
 233 55 l 1
 322 55 l 2
 393 55 421 59 452 75 c 0
 516 107 563 180 581 276 c 1
 634 276 l 1
 618 0 l 1
 24 0 l 1
 24 58 l 1
 425 667 l 1
 351 667 l 2
 245 667 198 648 154 586 c 0
 132 556 117 524 100 470 c 1
 49 470 l 1
 61 722 l 1
 634 722 l 1
EndSplineSet
KernsSLIF: 121 -38 0 0 118 -33 0 0
EndChar
StartChar: bracketleft
Encoding: 91 91 60
Width: 389
Flags: W
HStem: -108 50<207 339> 672 50<84 339>
VStem: 84 123<-108 672>
Fore
339 722 m 1
 339 672 l 1
 207 672 l 1
 207 -58 l 1
 339 -58 l 1
 339 -108 l 1
 84 -108 l 1
 84 722 l 1
 339 722 l 1
EndSplineSet
EndChar
StartChar: backslash
Encoding: 92 92 61
Width: 606
Flags: W
HStem: 0 21G<481 555> 717 20G<50 124>
DStem: 50 737 124 737 481 0 555 0
Fore
124 737 m 1
 555 0 l 1
 481 0 l 1
 50 737 l 1
 124 737 l 1
EndSplineSet
EndChar
StartChar: bracketright
Encoding: 93 93 62
Width: 389
Flags: W
HStem: -108 50<31 286> 672 50<31 163>
VStem: 163 123<-58 722>
Fore
31 -108 m 1
 31 -58 l 1
 163 -58 l 1
 163 672 l 1
 31 672 l 1
 31 722 l 1
 286 722 l 1
 286 -108 l 1
 31 -108 l 1
EndSplineSet
EndChar
StartChar: asciicircum
Encoding: 94 94 63
Width: 606
Flags: W
HStem: 702 20G<261 346>
DStem: 261 722 304 568 52 318 171 318 304 568 346 722 435 318 554 318
Fore
554 318 m 1
 435 318 l 1
 304 568 l 1
 171 318 l 1
 52 318 l 1
 261 722 l 1
 346 722 l 1
 554 318 l 1
EndSplineSet
EndChar
StartChar: underscore
Encoding: 95 95 64
Width: 500
Flags: W
HStem: -148 90<0 500>
Fore
0 -58 m 1
 500 -58 l 1
 500 -148 l 1
 0 -148 l 1
 0 -58 l 1
EndSplineSet
EndChar
StartChar: quoteleft
Encoding: 96 8216 65
Width: 241
Flags: W
Fore
191 747 m 1
 218 706 l 1
 156 663 119 615 119 577 c 0
 119 573 121 571 123 571 c 0
 124 571 125 571 127 572 c 0
 130 573 132 573 135 573 c 0
 183 573 219 536 219 487 c 0
 219 431 177 388 123 388 c 0
 63 388 22 437 22 509 c 0
 22 598 80 680 191 747 c 1
EndSplineSet
KernsSLIF: 89 33 1 0 87 24 1 0 86 36 1 0 84 36 1 0 262 -63 1 0 256 -63 1 0 257 -63 1 0 225 -47 1 0 65 -63 1 0
EndChar
StartChar: a
Encoding: 97 97 66
Width: 611
Flags: W
HStem: -15 85<487 543> 436 52<259 293>
VStem: 36 167<102 123> 63 163<347 359> 359 157<160 343>
Fore
516 318 m 2xd8
 516 142 l 2
 516 84 521 70 543 70 c 0
 550 70 553 71 562 77 c 0
 570 82 576 84 582 84 c 0
 591 84 597 78 597 68 c 0
 597 25 544 -15 487 -15 c 0
 436 -15 398 11 381 56 c 1
 328 4 276 -15 190 -15 c 0
 93 -15 36 28 36 102 c 0
 36 162 70 202 143 232 c 0
 190 251 225 260 326 282 c 0
 335 283 348 286 359 289 c 1
 359 341 l 2
 359 410 337 436 277 436 c 0
 237 436 203 421 203 404 c 0xe8
 203 399 203 398 212 387 c 0
 221 375 226 361 226 349 c 0
 226 312 190 284 144 284 c 0
 98 284 63 316 63 359 c 0
 63 437 153 488 291 488 c 0
 369 488 432 472 469 442 c 0
 504 414 516 383 516 318 c 2xd8
359 235 m 1
 306 223 l 2
 234 206 203 176 203 123 c 0
 203 80 228 53 267 53 c 0
 323 53 359 102 359 179 c 2
 359 235 l 1
EndSplineSet
KernsSLIF: 121 -32 0 0 119 -32 0 0 118 -29 0 0 39 -3 0 0 106 -28 0 0
EndChar
StartChar: b
Encoding: 98 98 67
Width: 648
Flags: W
HStem: -15 52<335 356> 413 75<345 395>
VStem: 83 156<192 247 206 737> 439 173<224 258>
Fore
240 737 m 1
 240 413 l 1
 281 465 328 488 395 488 c 0
 522 488 612 387 612 245 c 0
 612 91 508 -15 356 -15 c 0
 281 -15 230 9 183 66 c 1
 118 -14 l 1
 69 -14 l 1
 79 41 83 109 83 206 c 2
 83 578 l 2
 83 667 80 671 19 671 c 2
 0 671 l 1
 0 722 l 1
 240 737 l 1
345 413 m 0
 275 413 239 345 239 212 c 0
 239 99 274 37 340 37 c 0
 405 37 439 104 439 233 c 0
 439 353 408 413 345 413 c 0
EndSplineSet
KernsSLIF: 121 -22 0 0 119 -20 0 0 118 -17 0 0
EndChar
StartChar: c
Encoding: 99 99 68
Width: 556
Flags: W
HStem: -15 68<300 332> 436 52<315 336>
VStem: 31 173<224 249> 344 172<338 354>
Fore
475 177 m 1
 527 160 l 1
 512 113 496 83 467 53 c 0
 423 5 374 -15 300 -15 c 0
 139 -15 31 83 31 229 c 0
 31 380 151 488 317 488 c 0
 438 488 516 434 516 352 c 0
 516 301 481 267 426 267 c 0
 378 267 344 297 344 340 c 0
 344 359 348 368 365 389 c 0
 374 400 376 405 376 408 c 0
 376 424 352 436 323 436 c 0
 248 436 204 366 204 247 c 0
 204 123 251 53 332 53 c 0
 373 53 413 72 437 104 c 0
 452 124 461 140 475 177 c 1
EndSplineSet
KernsSLIF: 107 -13 0 0 104 -15 0 0
EndChar
StartChar: d
Encoding: 100 100 69
Width: 667
Flags: W
HStem: -15 68<256 309> 420 68<265 311>
VStem: 37 173<208 242> 413 155<208 737>
Fore
568 737 m 1
 568 122 l 2
 568 92 571 80 580 72 c 0
 588 65 591 65 627 65 c 2
 654 65 l 1
 654 11 l 1
 420 0 l 1
 420 72 l 1
 379 12 328 -15 256 -15 c 0
 126 -15 37 84 37 229 c 0
 37 375 137 488 265 488 c 0
 328 488 373 467 411 421 c 1
 411 578 l 2
 411 667 408 671 347 671 c 2
 315 671 l 1
 315 722 l 1
 568 737 l 1
311 420 m 0
 247 420 210 350 210 231 c 0
 210 117 246 53 309 53 c 0
 371 53 413 128 413 237 c 0
 413 348 373 420 311 420 c 0
EndSplineSet
EndChar
StartChar: e
Encoding: 101 101 70
Width: 574
Flags: W
HStem: -15 68<302 341> 228 55<206 540> 436 52<299 306>
VStem: 32 173<224 232> 383 157<244 315>
Fore
540 228 m 1
 205 228 l 1
 206 171 213 140 230 113 c 0
 255 75 295 53 341 53 c 0
 406 53 451 86 491 164 c 1
 540 144 l 1
 496 37 419 -15 302 -15 c 0
 226 -15 159 7 113 46 c 0
 63 89 32 161 32 232 c 0
 32 298 59 364 104 411 c 0
 154 462 221 488 301 488 c 0
 447 488 540 393 540 244 c 2
 540 228 l 1
206 283 m 1
 356 283 l 2
 376 283 383 291 383 315 c 0
 383 394 355 436 304 436 c 0
 244 436 206 378 206 283 c 1
EndSplineSet
KernsSLIF: 121 -20 0 0 120 -16 0 0 119 -19 0 0 118 -15 0 0 116 -15 0 0 39 15 0 0
EndChar
StartChar: f
Encoding: 102 102 71
Width: 389
Flags: W
HStem: 0 50<21 351> 413 60<14 101 258 383> 681 52<317 325>
VStem: 101 157<80.3646 413 473 530> 309 155<610 624>
Fore
383 473 m 1
 383 413 l 1
 258 413 l 1
 258 144 l 1
 258 97 l 2
 258 57 269 50 333 50 c 2
 351 50 l 1
 351 0 l 1
 21 0 l 1
 21 50 l 1
 25 50 l 2
 90 50 101 57 101 97 c 2
 101 144 l 1
 101 413 l 1
 14 413 l 1
 14 473 l 1
 101 473 l 1
 101 486 l 2
 101 634 188 733 319 733 c 0
 402 733 464 686 464 624 c 0
 464 577 430 542 384 542 c 0
 342 542 309 572 309 611 c 0
 309 630 319 652 334 664 c 0
 338 668 339 670 339 673 c 0
 339 677 332 681 323 681 c 0
 303 681 280 664 270 641 c 0
 260 619 258 597 258 530 c 2
 258 473 l 1
 383 473 l 1
EndSplineSet
KernsSLIF: 116 16 0 0 39 61 0 0 249 -20 0 0 250 -16 0 0 351 4 0 0 352 -15 0 0 111 -15 0 0 108 55 0 0 106 20 0 0 105 21 0 0 102 21 0 0 335 -15 0 0 101 -15 0 0 328 -5 0 0 241 -3 0 0 322 12 0 0 323 -5 0 0 97 -5 0 0
EndChar
StartChar: g
Encoding: 103 103 72
Width: 611
Flags: W
HStem: -202 52<253 303> -43 140<237 367> 159 48<274 294> 409 129<549 563> 436 52<279 303>
VStem: 30 130<-104 -92> 51 162<309 328> 363 162<309 328>
Fore
263 97 m 2xf3
 332 97 l 2
 404 97 448 93 481 82 c 0
 531 67 564 20 564 -36 c 0
 564 -143 460 -202 274 -202 c 0
 111 -202 30 -170 30 -104 c 0xf5
 30 -57 69 -25 136 -15 c 1
 78 1 45 34 45 78 c 0
 45 130 83 162 161 176 c 1
 89 201 51 250 51 317 c 0
 51 416 150 488 287 488 c 0xeb
 338 488 383 478 421 459 c 1
 465 514 504 538 549 538 c 0
 593 538 623 512 623 473 c 0
 623 437 596 409 561 409 c 0
 534 409 507 431 507 454 c 2
 507 458 l 2
 507 462 505 463 502 463 c 0
 490 463 478 453 465 435 c 1
 509 399 525 369 525 322 c 0
 525 261 491 210 433 183 c 0
 395 165 358 159 292 159 c 2
 274 159 l 2
 216 159 198 151 198 126 c 0
 198 102 210 97 263 97 c 2xf3
290 436 m 0xeb
 239 436 213 399 213 326 c 0
 213 294 218 265 229 243 c 0
 240 218 259 207 289 207 c 0
 336 207 363 249 363 320 c 0
 363 396 338 436 290 436 c 0xeb
328 -43 m 2
 197 -43 l 1
 172 -54 160 -70 160 -92 c 0xe5
 160 -129 204 -150 281 -150 c 0
 384 -150 434 -130 434 -89 c 0
 434 -76 428 -62 419 -56 c 0
 402 -45 390 -43 328 -43 c 2
EndSplineSet
KernsSLIF: 114 28 0 0 351 -20 0 0 352 -20 0 0 108 -4 0 0 335 -18 0 0 101 -18 0 0 328 -6 0 0 241 -4 0 0 322 -6 0 0 97 -6 0 0
EndChar
StartChar: h
Encoding: 104 104 73
Width: 685
Flags: W
HStem: 0 51<19 324 361 390.398 639 666> 395 93<359 426>
VStem: 99 157<80.4319 273 144 737> 430 157<80.9697 313>
Fore
256 737 m 1
 256 396 l 1
 298 460 350 488 426 488 c 0
 478 488 522 471 549 440 c 0
 576 411 587 373 587 311 c 2
 587 144 l 1
 587 98 l 2
 587 57 598 51 662 51 c 2
 666 51 l 1
 666 0 l 1
 361 0 l 1
 361 51 l 1
 420 51 430 58 430 97 c 2
 430 144 l 1
 430 297 l 2
 430 361 405 395 359 395 c 0
 322 395 287 372 271 336 c 0
 260 312 256 286 256 241 c 2
 256 144 l 1
 256 98 l 2
 256 57 266 51 324 51 c 1
 324 0 l 1
 19 0 l 1
 19 51 l 1
 23 51 l 2
 88 51 99 57 99 97 c 2
 99 144 l 1
 99 574 l 1
 98 669 97 671 35 671 c 2
 16 671 l 1
 16 722 l 1
 256 737 l 1
EndSplineSet
KernsSLIF: 121 -36 0 0 39 -6 0 0
EndChar
StartChar: i
Encoding: 105 105 74
Width: 370
Flags: W
HStem: 0 51<28 341> 560 177<171 189>
VStem: 106 157<81.2754 369>
Fore
263 473 m 1
 263 144 l 1
 263 97 l 2
 263 58 274 51 335 51 c 2
 341 51 l 1
 341 0 l 1
 28 0 l 1
 28 51 l 1
 32 51 l 2
 95 51 106 58 106 98 c 2
 106 144 l 1
 106 321 l 2
 106 410 103 415 42 415 c 2
 28 415 l 1
 28 466 l 1
 263 473 l 1
182 737 m 0
 230 737 270 697 270 649 c 0
 270 599 230 560 180 560 c 0
 133 560 93 601 93 649 c 0
 93 697 133 737 182 737 c 0
EndSplineSet
KernsSLIF: 106 -29 0 0 84 -25 0 0
EndChar
StartChar: j
Encoding: 106 106 75
Width: 352
Flags: W
HStem: -202 47<58 64> 560 177<173 191>
VStem: 111 157<-56 359>
Fore
184 737 m 0
 232 737 272 697 272 649 c 0
 272 599 232 560 182 560 c 0
 135 560 95 601 95 649 c 0
 95 697 135 737 184 737 c 0
268 473 m 1
 268 109 l 2
 268 5 259 -51 233 -101 c 0
 202 -163 133 -202 58 -202 c 0
 -24 -202 -82 -160 -82 -102 c 0
 -82 -59 -49 -27 -4 -27 c 0
 34 -27 61 -55 61 -94 c 0
 61 -116 53 -130 32 -144 c 1
 38 -152 45 -155 58 -155 c 0
 94 -155 111 -124 111 -56 c 2
 111 329 l 2
 111 409 106 415 47 415 c 2
 15 415 l 1
 15 466 l 1
 268 473 l 1
EndSplineSet
EndChar
StartChar: k
Encoding: 107 107 76
Width: 667
Flags: W
HStem: 0 51<15 320 354 660> 422 51<329 356 329 623>
VStem: 95 157<80.6717 172 144 737>
Fore
252 737 m 1
 252 246 l 1
 376 354 l 2
 394 370 401 382 401 394 c 0
 401 412 379 422 341 422 c 2
 329 422 l 1
 329 473 l 1
 623 473 l 1
 623 422 l 1
 600 422 l 2
 562 422 533 410 492 375 c 2
 415 311 l 1
 572 115 l 1
 616 58 625 51 660 51 c 1
 660 0 l 1
 354 0 l 1
 354 51 l 1
 364 51 l 2
 390 51 403 58 403 71 c 0
 403 80 398 92 390 102 c 2
 298 213 l 1
 252 172 l 1
 252 144 l 1
 252 98 l 2
 252 58 262 51 320 51 c 1
 320 0 l 1
 15 0 l 1
 15 51 l 1
 19 51 l 2
 84 51 95 57 95 97 c 2
 95 144 l 1
 95 578 l 2
 95 667 92 671 31 671 c 2
 12 671 l 1
 12 722 l 1
 252 737 l 1
EndSplineSet
KernsSLIF: 362 3 0 0 117 3 0 0 115 7 0 0 46 7 0 0 351 -29 0 0 352 -29 0 0 111 -29 0 0 45 -46 0 0 103 3 0 0 335 -27 0 0 101 -27 0 0 44 11 0 0 328 3 0 0 241 7 0 0 322 3 0 0 323 3 0 0 97 3 0 0
EndChar
StartChar: l
Encoding: 108 108 77
Width: 352
Flags: W
HStem: 0 51<19 331>
VStem: 99 157<80.4319 625>
Fore
256 737 m 5
 256 97 l 6
 256 72 259 64 271 58 c 4
 278 54 305 51 324 51 c 6
 331 51 l 5
 331 0 l 5
 19 0 l 5
 19 51 l 5
 23 51 l 6
 88 51 99 57 99 97 c 6
 99 578 l 6
 99 667 96 671 35 671 c 2
 16 671 l 1
 16 722 l 1
 256 737 l 5
EndSplineSet
KernsSLIF: 121 -23 0 0 118 -22 0 0
EndChar
StartChar: m
Encoding: 109 109 78
Width: 963
Flags: W
HStem: 0 51<20 315 346 367.218 618 618 648 669.676 915 942> 395 93<651 706>
VStem: 100 157<80.9697 289> 403 157<79 289> 706 157<80.7526 323>
CounterMasks: 1 00
Fore
248 473 m 1
 248 394 l 1
 288 457 341 488 408 488 c 0
 475 488 528 454 549 398 c 1
 596 462 642 488 706 488 c 0
 795 488 863 425 863 343 c 2
 863 144 l 1
 863 97 l 2
 863 58 874 51 938 51 c 2
 942 51 l 1
 942 0 l 1
 648 0 l 1
 648 51 l 1
 699 52 706 58 706 97 c 2
 706 144 l 1
 706 306 l 2
 706 368 689 395 651 395 c 0
 595 395 560 349 560 278 c 2
 560 144 l 1
 560 97 l 2
 560 58 567 52 618 51 c 1
 618 0 l 1
 346 0 l 1
 346 51 l 1
 396 52 403 58 403 98 c 2
 403 144 l 1
 403 302 l 2
 403 368 387 395 348 395 c 0
 293 395 257 349 257 278 c 2
 257 144 l 1
 257 97 l 2
 257 58 264 52 315 51 c 1
 315 0 l 1
 20 0 l 1
 20 51 l 1
 25 51 l 2
 89 51 100 57 100 98 c 2
 100 144 l 1
 100 321 l 2
 100 410 97 415 36 415 c 2
 20 415 l 1
 20 466 l 1
 248 473 l 1
EndSplineSet
KernsSLIF: 121 -37 0 0 119 -36 0 0 118 -33 0 0 112 -27 0 0
EndChar
StartChar: n
Encoding: 110 110 79
Width: 685
Flags: W
HStem: 0 51<20 325 363 392.398 643 668> 395 93<359 427>
VStem: 99 157<80.9697 273> 432 157<80.9697 318>
Fore
249 473 m 1
 249 385 l 1
 298 459 348 488 427 488 c 0
 479 488 524 471 551 440 c 0
 578 411 589 373 589 311 c 2
 589 144 l 1
 589 98 l 2
 589 57 600 51 664 51 c 2
 668 51 l 1
 668 0 l 1
 363 0 l 1
 363 51 l 1
 422 51 432 58 432 97 c 2
 432 144 l 1
 432 297 l 2
 432 361 406 395 359 395 c 0
 323 395 288 372 272 336 c 0
 260 312 256 286 256 241 c 2
 256 144 l 1
 256 97 l 2
 256 58 266 51 325 51 c 1
 325 0 l 1
 20 0 l 1
 20 51 l 1
 24 51 l 2
 88 51 99 57 99 98 c 2
 99 144 l 1
 99 318 l 2
 99 411 96 415 35 415 c 2
 20 415 l 1
 20 466 l 1
 249 473 l 1
EndSplineSet
KernsSLIF: 121 -35 0 0 119 -35 0 0 118 -31 0 0 39 -5 0 0 112 -25 0 0 84 -41 0 0
EndChar
StartChar: o
Encoding: 111 111 80
Width: 611
Flags: W
HStem: -15 52<291.247 311> 436 52<302 310>
VStem: 31 173<236 258> 406 173<224 242>
Fore
308 488 m 0
 460 488 579 376 579 234 c 0
 579 91 462 -15 304 -15 c 0
 146 -15 31 91 31 236 c 0
 31 380 149 488 308 488 c 0
306 436 m 0
 239 436 204 368 204 236 c 0
 204 104 238 37 305 37 c 0
 369 37 406 108 406 235 c 0
 406 287 398 344 386 377 c 0
 373 412 341 436 306 436 c 0
EndSplineSet
KernsSLIF: 121 -29 0 0 120 -25 0 0 119 -28 0 0 118 -24 0 0 116 -17 0 0 39 8 0 0 84 -38 0 0
EndChar
StartChar: p
Encoding: 112 112 81
Width: 667
Flags: W
HStem: -202 50<18 341> -15 68<358 396> 413 75<366 410>
VStem: 97 156<229 318> 459 173<227 263>
Fore
254 473 m 1
 254 409 l 1
 299 466 342 488 410 488 c 0
 538 488 632 387 632 249 c 0
 632 99 530 -15 396 -15 c 0
 339 -15 294 6 254 50 c 1
 254 -58 l 1
 254 -105 l 2
 254 -145 265 -152 330 -152 c 2
 341 -152 l 1
 341 -202 l 1
 18 -202 l 1
 18 -152 l 1
 22 -152 l 2
 86 -152 97 -145 97 -105 c 2
 97 -58 l 1
 97 318 l 1
 96 413 95 415 33 415 c 2
 18 415 l 1
 18 466 l 1
 254 473 l 1
366 413 m 0
 293 413 253 347 253 229 c 0
 253 116 291 53 358 53 c 0
 421 53 459 120 459 232 c 0
 459 350 426 413 366 413 c 0
EndSplineSet
KernsSLIF: 121 -26 0 0 116 -15 0 0
EndChar
StartChar: q
Encoding: 113 113 82
Width: 648
Flags: W
HStem: -202 50<317 640> -15 68<250 304> 436 52<289 310>
VStem: 34 173<213 255> 404 157<-121.635 58>
Fore
527 487 m 1
 576 487 l 1
 566 408 561 333 561 272 c 2
 561 -58 l 1
 561 -105 l 2
 561 -145 572 -152 636 -152 c 2
 640 -152 l 1
 640 -202 l 1
 317 -202 l 1
 317 -152 l 1
 328 -152 l 2
 393 -152 404 -145 404 -105 c 2
 404 -58 l 1
 404 58 l 1
 361 8 313 -15 250 -15 c 0
 192 -15 130 12 95 53 c 1
 58 94 34 166 34 232 c 0
 34 379 143 488 289 488 c 0
 365 488 418 463 463 407 c 1
 527 487 l 1
308 436 m 0
 242 436 207 368 207 236 c 0
 207 116 240 53 304 53 c 0
 368 53 407 129 407 253 c 0
 407 306 402 342 390 372 c 0
 374 411 342 436 308 436 c 0
EndSplineSet
KernsSLIF: 117 -11 0 0 99 -13 0 0
EndChar
StartChar: r
Encoding: 114 114 83
Width: 519
Flags: W
HStem: 0 51<18 352> 301 187<407 431>
VStem: 97 144<318 473> 97 158<80.9697 193> 356 161<373 389>
Fore
241 473 m 1xe8
 241 352 l 1xe8
 277 444 330 488 407 488 c 0
 471 488 517 445 517 387 c 0
 517 338 480 301 431 301 c 0
 388 301 356 332 356 375 c 0
 356 393 360 404 373 422 c 1
 339 412 318 394 297 357 c 0
 272 313 255 234 255 164 c 2
 255 144 l 1
 255 98 l 2
 255 57 266 51 330 51 c 2
 352 51 l 1
 352 0 l 1
 18 0 l 1
 18 51 l 1
 22 51 l 2
 86 51 97 57 97 98 c 2
 97 144 l 1xd8
 97 318 l 2
 97 411 94 415 33 415 c 2
 18 415 l 1
 18 466 l 1
 241 473 l 1xe8
EndSplineSet
KernsSLIF: 122 2 0 0 121 21 0 0 120 23 0 0 119 20 0 0 118 23 0 0 117 21 0 0 116 18 0 0 59 8 0 0 115 7 0 0 114 20 0 0 39 45 0 0 113 -2 0 0 46 -72 0 0 112 20 0 0 249 -1 0 0 353 1 0 0 351 1 0 0 354 1 0 0 352 1 0 0 111 1 0 0 110 19 0 0 109 19 0 0 108 -19 0 0 107 -17 0 0 106 21 0 0 105 15 0 0 45 5 0 0 104 -19 0 0 103 1 0 0 102 23 0 0 100 -1 0 0 44 -68 0 0 58 5 0 0 332 1 0 0 328 -1 0 0 324 -1 0 0 241 2 0 0 322 -1 0 0 325 -1 0 0 323 -1 0 0 97 -1 0 0
EndChar
StartChar: s
Encoding: 115 115 84
Width: 500
Flags: W
HStem: -15 52<265 283> 436 52<229 247>
VStem: 42 110<326 378> 351 115<96 155>
Fore
439 478 m 1
 443 320 l 1
 396 320 l 1
 347 402 300 436 236 436 c 0
 187 436 152 412 152 378 c 0
 152 352 165 342 214 329 c 2
 304 307 l 2
 376 289 397 280 423 257 c 0
 451 232 466 197 466 155 c 0
 466 55 383 -15 265 -15 c 0
 213 -15 161 -2 124 20 c 1
 85 2 l 1
 43 2 l 1
 38 175 l 1
 83 175 l 1
 131 80 188 37 265 37 c 0
 318 37 351 60 351 96 c 0
 351 126 331 143 281 154 c 2
 208 170 l 2
 143 184 114 198 84 227 c 0
 57 253 42 288 42 326 c 0
 42 420 123 488 235 488 c 0
 283 488 321 478 359 456 c 1
 396 478 l 1
 439 478 l 1
EndSplineSet
KernsSLIF: 116 -9 0 0 39 20 0 0
EndChar
StartChar: t
Encoding: 116 116 85
Width: 426
Flags: W
HStem: -15 85<236 288> 413 60<251 381>
VStem: 94 157<128 413> 351 54<156 186>
Fore
381 473 m 1
 381 413 l 1
 251 413 l 1
 251 156 l 2
 251 88 259 70 288 70 c 0
 329 70 352 112 351 186 c 1
 404 186 l 1
 405 176 405 168 405 163 c 0
 405 120 390 72 365 40 c 0
 338 4 293 -15 236 -15 c 0
 179 -15 136 5 115 40 c 0
 98 68 94 92 94 174 c 2
 94 413 l 1
 23 413 l 1
 23 465 l 1
 118 476 172 543 188 671 c 1
 251 671 l 1
 251 473 l 1
 381 473 l 1
EndSplineSet
KernsSLIF: 59 -3 0 0 39 1 0 0 351 3 0 0 352 3 0 0 111 3 0 0 104 -7 0 0 335 3 0 0 101 3 0 0 58 -6 0 0 328 1 0 0 241 4 0 0 322 1 0 0 323 1 0 0 97 1 0 0 83 8 0 0
EndChar
StartChar: u
Encoding: 117 117 86
Width: 685
Flags: W
HStem: -15 93<257 321>
VStem: 93 157<160 354> 427 157<208 473>
Fore
584 473 m 1
 584 131 l 1
 584 108 l 2
 584 72 592 65 639 65 c 2
 667 65 l 1
 667 11 l 1
 434 0 l 1
 434 82 l 1
 376 11 328 -15 257 -15 c 0
 189 -15 136 16 109 71 c 0
 95 99 93 117 93 191 c 2
 93 318 l 1
 92 413 91 415 29 415 c 2
 13 415 l 1
 13 466 l 1
 250 473 l 1
 250 185 l 2
 250 109 271 78 321 78 c 0
 359 78 394 101 410 135 c 0
 423 160 427 188 427 238 c 2
 427 318 l 2
 427 411 424 415 363 415 c 2
 347 415 l 1
 347 466 l 1
 584 473 l 1
EndSplineSet
KernsSLIF: 39 1 0 0
EndChar
StartChar: v
Encoding: 118 118 87
Width: 611
Flags: W
HStem: -14 21G<264 349> 423 50<12 294 371 396.387 371 598>
DStem: 80 370 250 374 264 -14 357 140
Fore
357 140 m 1
 430 324 l 2
 445 361 448 370 448 384 c 0
 448 412 426 423 371 423 c 1
 371 473 l 1
 598 473 l 1
 598 423 l 1
 594 423 l 2
 554 423 532 402 503 335 c 1
 349 -14 l 1
 264 -14 l 1
 80 370 l 2
 59 414 49 421 12 423 c 1
 12 473 l 1
 294 473 l 1
 294 423 l 1
 256 423 242 417 242 400 c 0
 242 394 245 384 250 374 c 2
 357 140 l 1
EndSplineSet
KernsSLIF: 115 -6 0 0 46 -61 0 0 249 -28 0 0 353 -23 0 0 351 -23 0 0 352 -23 0 0 111 -23 0 0 108 -24 0 0 45 -26 0 0 103 -18 0 0 336 -22 0 0 337 -22 0 0 335 -22 0 0 101 -22 0 0 44 -59 0 0 99 -24 0 0 327 -11 0 0 328 -11 0 0 324 -11 0 0 241 -9 0 0 322 -11 0 0 325 -11 0 0 323 -11 0 0 97 -11 0 0
EndChar
StartChar: w
Encoding: 119 119 88
Width: 889
Flags: W
HStem: -14 21G<253 329 550 625> 422 51<326 345.48 326 605 650 659>
DStem: 90 366 253 375 253 -14 340 154 412 324 443 249 340 154 329 -14 443 249 550 377 550 -14 642 154
Fore
642 154 m 1
 712 324 l 2
 722 348 726 364 726 376 c 0
 726 404 699 422 657 422 c 2
 650 422 l 1
 650 473 l 1
 876 473 l 1
 876 422 l 1
 831 419 811 401 782 337 c 2
 625 -14 l 1
 550 -14 l 1
 443 249 l 1
 329 -14 l 1
 253 -14 l 1
 90 366 l 2
 72 408 58 420 19 422 c 1
 19 473 l 1
 295 473 l 1
 295 422 l 1
 255 421 246 417 246 398 c 0
 246 393 246 393 253 375 c 2
 340 154 l 1
 412 324 l 1
 387 384 l 2
 374 415 363 422 326 422 c 1
 326 473 l 1
 605 473 l 1
 605 422 l 1
 598 422 l 2
 560 422 544 415 544 399 c 0
 544 394 546 386 550 377 c 2
 642 154 l 1
EndSplineSet
KernsSLIF: 115 -6 0 0 46 -62 0 0 249 -28 0 0 353 -23 0 0 351 -23 0 0 352 -23 0 0 111 -23 0 0 108 -24 0 0 45 -26 0 0 103 -18 0 0 336 -22 0 0 337 -22 0 0 335 -22 0 0 101 -22 0 0 44 -60 0 0 99 -24 0 0 327 -11 0 0 328 -11 0 0 324 -11 0 0 241 -9 0 0 322 -11 0 0 325 -11 0 0 323 -11 0 0 97 -11 0 0
EndChar
StartChar: x
Encoding: 120 120 89
Width: 611
Flags: W
HStem: 0 51<220 247 284 598> 422 51<13 309 342 372 342 588>
DStem: 223 212 261 167 102 97 201 108 384 365 474 370 333 316 370 272
Fore
370 272 m 1
 508 108 l 2
 550 59 561 52 598 51 c 1
 598 0 l 1
 284 0 l 1
 284 51 l 1
 291 51 l 2
 318 51 331 58 331 74 c 0
 331 81 328 87 320 96 c 2
 261 167 l 1
 201 108 l 2
 192 99 187 89 187 79 c 0
 187 62 205 51 234 51 c 2
 247 51 l 1
 247 0 l 1
 13 0 l 1
 13 51 l 1
 43 52 66 64 102 97 c 2
 223 212 l 1
 80 383 l 2
 54 414 43 420 13 422 c 1
 13 473 l 1
 309 473 l 1
 309 422 l 1
 298 422 l 2
 277 422 265 416 265 406 c 0
 265 400 268 394 276 385 c 2
 333 316 l 1
 384 365 l 2
 399 379 405 389 405 399 c 0
 405 413 390 422 365 422 c 2
 342 422 l 1
 342 473 l 1
 588 473 l 1
 588 422 l 1
 545 422 515 408 474 370 c 2
 370 272 l 1
EndSplineSet
KernsSLIF: 113 -20 0 0 111 -28 0 0 335 -27 0 0 101 -27 0 0 99 -29 0 0
EndChar
StartChar: y
Encoding: 121 121 90
Width: 611
Flags: W
HStem: -206 179<97 134> 422 51<14 298 373 395>
VStem: 10 153<-132 -114>
DStem: 75 382 253 374 280 -16 359 158 442 341 507 340 359 158 332 -37
Fore
359 158 m 1
 442 341 l 2
 447 353 451 371 451 382 c 0
 451 408 427 422 384 422 c 2
 373 422 l 1
 373 473 l 1
 598 473 l 1
 598 422 l 1
 557 420 536 401 507 340 c 1
 332 -37 l 1
 278 -155 218 -206 134 -206 c 0
 59 -206 10 -169 10 -114 c 0
 10 -65 48 -27 97 -27 c 0
 141 -27 172 -55 172 -95 c 0
 172 -109 170 -119 164 -129 c 0
 163 -130 163 -131 163 -132 c 0
 163 -135 167 -138 172 -138 c 0
 200 -138 231 -110 257 -59 c 1
 280 -16 l 1
 75 382 l 1
 59 415 51 421 14 422 c 1
 14 473 l 1
 298 473 l 1
 298 422 l 1
 280 422 l 2
 256 422 245 415 245 401 c 0
 245 394 248 384 253 374 c 2
 359 158 l 1
EndSplineSet
KernsSLIF: 59 -1 0 0 115 -9 0 0 46 -64 0 0 249 -33 0 0 353 -28 0 0 351 -28 0 0 352 -28 0 0 111 -28 0 0 108 -24 0 0 45 -28 0 0 103 -23 0 0 336 -27 0 0 337 -27 0 0 335 -27 0 0 101 -27 0 0 44 -63 0 0 58 -2 0 0 99 -29 0 0 327 -14 0 0 328 -14 0 0 324 -14 0 0 241 -12 0 0 322 -14 0 0 325 -14 0 0 323 -14 0 0 97 -14 0 0
EndChar
StartChar: z
Encoding: 122 122 91
Width: 537
Flags: W
HStem: 0 50<225 485> 423 50<63 307>
DStem: 307 423 495 425 35 44 225 50
Fore
495 473 m 1
 495 425 l 1
 225 50 l 1
 287 50 l 2
 355 50 371 56 397 88 c 0
 419 115 432 142 446 190 c 1
 495 190 l 1
 485 0 l 1
 35 0 l 1
 35 44 l 1
 307 423 l 1
 256 423 l 2
 186 423 168 418 146 395 c 0
 131 379 121 355 102 293 c 1
 51 293 l 1
 63 473 l 1
 495 473 l 1
EndSplineSet
EndChar
StartChar: braceleft
Encoding: 123 123 92
Width: 389
Flags: W
HStem: 702 20G<291 343>
VStem: 160 123<19 197 419 597>
Fore
84 285 m 1
 84 329 l 1
 126 339 141 349 152 375 c 0
 159 392 160 402 160 462 c 2
 160 572 l 2
 160 638 170 674 196 695 c 0
 214 711 254 722 291 722 c 2
 343 722 l 1
 343 676 l 1
 298 672 283 653 283 606 c 2
 283 550 l 1
 283 432 l 2
 283 355 260 327 181 307 c 1
 260 287 283 259 283 182 c 2
 283 64 l 2
 283 -22 283 -22 292 -37 c 0
 302 -53 315 -59 343 -62 c 1
 343 -108 l 1
 291 -108 l 2
 254 -108 214 -97 196 -81 c 0
 170 -60 160 -24 160 42 c 2
 160 152 l 2
 160 218 159 228 148 247 c 0
 136 267 122 275 84 285 c 1
EndSplineSet
EndChar
StartChar: bar
Encoding: 124 124 93
Width: 606
Flags: W
HStem: 0 21G<243 362> 702 20G<243 362>
VStem: 243 119<0 722>
Fore
362 722 m 1
 362 0 l 1
 243 0 l 1
 243 722 l 1
 362 722 l 1
EndSplineSet
EndChar
StartChar: braceright
Encoding: 125 125 94
Width: 389
Flags: W
HStem: 702 20G<31 85>
VStem: 93 123<19 197 419 597>
Fore
290 329 m 1
 290 285 l 1
 249 275 234 265 224 239 c 0
 217 221 216 212 216 152 c 2
 216 42 l 2
 216 -24 206 -60 180 -81 c 0
 162 -97 122 -108 85 -108 c 2
 31 -108 l 1
 31 -62 l 1
 60 -59 73 -53 83 -37 c 0
 93 -22 93 -22 93 64 c 2
 93 182 l 2
 93 259 116 287 195 307 c 1
 116 327 93 355 93 432 c 2
 93 550 l 1
 93 606 l 2
 93 653 77 672 31 676 c 1
 31 722 l 1
 85 722 l 2
 122 722 162 711 180 695 c 0
 206 674 216 638 216 572 c 2
 216 462 l 2
 216 397 217 386 228 367 c 0
 239 347 253 338 290 329 c 1
EndSplineSet
EndChar
StartChar: asciitilde
Encoding: 126 126 95
Width: 606
Flags: W
Fore
135 169 m 1
 51 222 l 1
 91 297 140 335 195 335 c 0
 218 335 240 329 285 312 c 2
 338 293 l 2
 381 276 389 274 404 274 c 0
 427 274 443 286 471 326 c 1
 555 273 l 1
 514 198 466 160 411 160 c 0
 388 160 366 165 321 183 c 1
 268 202 l 2
 225 219 217 221 202 221 c 0
 179 221 163 209 135 169 c 1
EndSplineSet
EndChar
StartChar: exclamdown
Encoding: 161 161 96
Width: 296
Flags: W
HStem: 361 188<144 150>
Fore
120 306 m 1
 174 306 l 1
 180 159 186 120 226 -14 c 0
 235 -45 240 -77 240 -103 c 0
 240 -166 205 -203 146 -203 c 0
 88 -203 53 -166 53 -103 c 0
 53 -64 55 -55 87 55 c 0
 106 119 117 198 120 306 c 1
148 549 m 0
 199 549 241 506 241 455 c 0
 241 403 199 361 147 361 c 0
 95 361 53 403 53 455 c 0
 53 507 95 549 148 549 c 0
EndSplineSet
EndChar
StartChar: cent
Encoding: 162 162 97
Width: 574
Flags: W
HStem: -14 68<295 339> 436 52<318 341>
VStem: 36 173<227 246> 384 139<353 410>
DStem: 165 16 213 -3 98 -107 156 -107 361 375 372 291 229 133 259 83 466 567 522 567 415 474 460 454
Fore
522 567 m 1
 460 454 l 1
 502 428 523 395 523 353 c 0
 523 302 486 265 436 265 c 0
 410 265 388 274 372 291 c 1
 259 83 l 1
 278 64 305 54 339 54 c 0
 407 54 458 96 482 174 c 1
 534 158 l 1
 493 39 419 -14 295 -14 c 0
 264 -14 238 -11 213 -3 c 1
 156 -107 l 1
 98 -107 l 1
 165 16 l 1
 82 62 36 138 36 229 c 0
 36 377 157 488 320 488 c 0
 353 488 386 483 415 474 c 1
 466 567 l 1
 522 567 l 1
229 133 m 1
 361 375 l 2
 365 382 368 385 377 395 c 0
 381 399 384 405 384 410 c 0
 384 424 360 436 331 436 c 0
 256 436 209 361 209 241 c 0
 209 203 215 170 229 133 c 1
EndSplineSet
EndChar
StartChar: sterling
Encoding: 163 163 98
Width: 574
Flags: W
HStem: -14 52<110 126> -14 133<367 394> 122 52<110 128> 318 60<34 158 304 459> 656 52<343 369>
VStem: 19 50<75 83> 112 153<500 566> 197 120<184 273> 369 174<526 548>
Fore
459 378 m 1xbe80
 459 318 l 1
 313 318 l 1
 316 295 317 284 317 273 c 0
 317 230 306 191 280 139 c 1
 319 125 354 119 392 119 c 0
 455 119 490 143 510 200 c 1
 561 186 l 1
 537 57 474 -14 384 -14 c 0x7d80
 331 -14 283 6 231 50 c 1
 200 5 165 -14 117 -14 c 0
 59 -14 19 23 19 77 c 0
 19 132 65 174 126 174 c 0
 148 174 166 171 196 161 c 1
 197 171 197 179 197 184 c 0xbd80
 197 220 179 283 158 318 c 1
 34 318 l 1
 34 378 l 1
 136 378 l 1
 118 431 112 462 112 500 c 0
 112 620 211 708 345 708 c 0
 460 708 543 641 543 548 c 0
 543 491 503 449 448 449 c 0
 403 449 369 482 369 526 c 0
 369 554 381 573 409 588 c 0
 429 599 433 603 433 612 c 0
 433 636 398 656 357 656 c 0
 303 656 265 619 265 566 c 0
 265 528 277 472 304 378 c 1
 459 378 l 1xbe80
182 92 m 1
 156 115 140 122 116 122 c 0
 88 122 69 104 69 79 c 0
 69 55 88 38 113 38 c 0xbc80
 146 38 166 54 182 92 c 1
EndSplineSet
EndChar
StartChar: fraction
Encoding: 164 8260 99
Width: 167
Flags: W
HStem: 0 21G<-166 -87> 685 20G<254 333>
DStem: 254 705 333 705 -166 0 -87 0
Fore
254 705 m 1
 333 705 l 1
 -87 0 l 1
 -166 0 l 1
 254 705 l 1
EndSplineSet
EndChar
StartChar: yen
Encoding: 165 165 100
Width: 574
Flags: W
HStem: 0 54<119 454> 173 60<85 196 376 486> 299 60<85 196 393 486> 668 54<3 19.1552 3 273 365 395>
VStem: 196 180<79.9378 173 233 299>
DStem: 57 632 252 615 173 359 345 396 417 574 480 575 345 396 393 359
Fore
393 359 m 1
 486 359 l 1
 486 299 l 1
 376 299 l 1
 376 233 l 1
 486 233 l 1
 486 173 l 1
 376 173 l 1
 376 144 l 2
 376 80 376 77 381 69 c 0
 387 58 402 54 439 54 c 2
 454 54 l 1
 454 0 l 1
 119 0 l 1
 119 54 l 1
 134 54 l 2
 170 54 185 58 191 69 c 0
 196 77 196 83 196 144 c 2
 196 173 l 1
 85 173 l 1
 85 233 l 1
 196 233 l 1
 196 299 l 1
 85 299 l 1
 85 359 l 1
 173 359 l 1
 57 632 l 1
 44 661 33 668 3 668 c 1
 3 722 l 1
 273 722 l 1
 273 668 l 1
 267 668 l 2
 251 668 241 660 241 649 c 0
 241 642 242 640 252 615 c 1
 345 396 l 1
 417 574 l 1
 423 587 427 608 427 621 c 0
 427 649 410 668 385 668 c 2
 365 668 l 1
 365 722 l 1
 571 722 l 1
 571 668 l 1
 533 664 506 637 480 575 c 1
 393 359 l 1
EndSplineSet
EndChar
StartChar: florin
Encoding: 166 402 101
Width: 574
Flags: W
HStem: -195 42<126 146> 397 60<98 222 362 498> 584 162<433 480> 704 42<415 433>
VStem: 14 131<-105 -92> 417 132<643 657>
DStem: 222 397 358 397 199 22 347 216
Fore
362 457 m 1xdc
 498 457 l 1
 498 397 l 1
 358 397 l 1
 347 216 l 1
 344 171 333 82 324 31 c 0
 299 -116 230 -195 126 -195 c 0
 60 -195 14 -158 14 -105 c 0
 14 -62 43 -32 83 -32 c 0
 120 -32 145 -56 145 -92 c 0
 145 -104 142 -114 136 -127 c 0
 129 -140 129 -141 129 -144 c 0
 129 -149 135 -153 142 -153 c 0
 157 -153 174 -139 181 -122 c 0
 190 -100 194 -68 199 22 c 1
 222 397 l 1
 98 397 l 1
 98 457 l 1
 228 457 l 1
 236 546 246 586 271 637 c 0
 307 708 363 746 433 746 c 0
 503 746 549 710 549 657 c 0
 549 614 521 584 480 584 c 0xec
 444 584 417 609 417 644 c 0
 417 658 423 677 432 691 c 0
 433 694 434 696 434 698 c 0
 434 701 429 704 423 704 c 0
 401 704 385 686 376 651 c 0
 370 627 370 627 362 457 c 1xdc
EndSplineSet
EndChar
StartChar: section
Encoding: 167 167 102
Width: 500
Flags: W
HStem: -87 32<231 253> 187 38<307 333> 705 32<240 257>
VStem: 63 75<335 372> 99 116<13 26> 106 75<593 645> 273 113<625 636> 318 80<7 52> 363 75<278 313>
Fore
333 187 m 2xe480
 327 187 l 1
 381 138 398 106 398 52 c 0
 398 -32 336 -87 241 -87 c 0
 160 -87 99 -44 99 13 c 0
 99 51 125 79 161 79 c 0
 191 79 215 56 215 26 c 0xe9
 215 13 211 4 199 -7 c 0
 189 -17 186 -22 186 -27 c 0
 186 -43 209 -55 238 -55 c 0
 285 -55 318 -30 318 7 c 0
 318 27 311 43 291 63 c 0
 285 69 285 69 237 110 c 2
 124 208 l 2
 84 242 63 287 63 335 c 0xf1
 63 407 109 459 177 464 c 1
 120 516 106 541 106 593 c 0
 106 680 165 737 255 737 c 0
 334 737 386 696 386 634 c 0
 386 601 362 577 329 577 c 0
 297 577 273 599 273 627 c 0xe6
 273 642 278 653 292 668 c 0
 297 674 299 677 299 681 c 0
 299 694 278 705 253 705 c 0
 214 705 181 678 181 645 c 0
 181 621 198 596 237 565 c 2
 343 478 l 2
 369 457 396 427 414 397 c 0
 431 370 438 345 438 313 c 0
 438 243 391 187 333 187 c 2xe480
320 344 m 2
 269 388 l 2
 237 416 218 425 195 425 c 0
 163 425 138 402 138 372 c 0
 138 349 147 334 179 306 c 2
 233 258 l 2
 258 237 284 225 307 225 c 0
 338 225 363 249 363 278 c 0xf080
 363 298 351 317 320 344 c 2
EndSplineSet
EndChar
StartChar: currency
Encoding: 168 164 103
Width: 574
Flags: W
HStem: 102 121<272 289> 478 121<287 289>
VStem: 38 120<336 353> 415 120<336 353>
Fore
154 140 m 1
 111 98 l 1
 34 175 l 1
 76 218 l 1
 51 258 38 304 38 350 c 0
 38 397 52 447 76 483 c 1
 33 526 l 1
 111 604 l 1
 154 561 l 1
 193 586 239 599 287 599 c 0
 335 599 373 588 419 561 c 1
 462 604 l 1
 540 526 l 1
 497 484 l 1
 522 443 535 398 535 350 c 0
 535 302 524 263 497 218 c 1
 540 175 l 1
 462 97 l 1
 419 140 l 1
 375 114 334 102 287 102 c 0
 240 102 197 114 154 140 c 1
287 478 m 0
 216 478 158 421 158 351 c 0
 158 281 216 223 285 223 c 0
 358 223 415 279 415 351 c 0
 415 421 357 478 287 478 c 0
EndSplineSet
EndChar
StartChar: quotesingle
Encoding: 169 39 104
Width: 241
Flags: W
HStem: 717 20G<100.5 139.5>
Fore
143 416 m 1
 97 416 l 1
 55 635 l 1
 53 647 52 657 52 668 c 0
 52 707 81 737 120 737 c 0
 159 737 188 707 188 667 c 0
 188 658 187 647 185 635 c 1
 143 416 l 1
EndSplineSet
EndChar
StartChar: quotedblleft
Encoding: 170 8220 105
Width: 481
Flags: W
Fore
429 747 m 1
 456 706 l 1
 394 663 357 615 357 577 c 0
 357 573 359 571 361 571 c 0
 362 571 363 571 365 572 c 0
 368 573 370 573 373 573 c 0
 421 573 457 536 457 487 c 0
 457 431 415 388 361 388 c 0
 301 388 260 437 260 509 c 0
 260 598 318 680 429 747 c 1
191 747 m 1
 218 706 l 1
 156 663 119 615 119 577 c 0
 119 573 121 571 123 571 c 0
 124 571 125 571 127 572 c 0
 130 573 132 573 135 573 c 0
 183 573 219 536 219 487 c 0
 219 431 177 388 123 388 c 0
 63 388 22 437 22 509 c 0
 22 598 80 680 191 747 c 1
EndSplineSet
KernsSLIF: 89 32 1 0 87 23 1 0 86 35 1 0 84 35 1 0 262 -64 1 0 256 -64 1 0 257 -64 1 0 225 -48 1 0 65 -64 1 0
EndChar
StartChar: guillemotleft
Encoding: 171 171 106
Width: 500
Flags: W
Fore
49 252 m 1
 49 266 l 1
 202 399 l 1
 216 414 224 419 231 419 c 0
 236 419 243 412 243 407 c 0
 243 401 235 385 224 366 c 2
 160 259 l 1
 224 152 l 2
 236 132 243 118 243 112 c 0
 243 107 236 100 230 100 c 0
 224 100 216 106 202 120 c 1
 49 252 l 1
248 252 m 1
 248 266 l 1
 401 399 l 1
 415 414 423 419 430 419 c 0
 435 419 442 412 442 407 c 0
 442 401 434 385 423 366 c 2
 359 259 l 1
 423 152 l 2
 435 132 442 118 442 112 c 0
 442 107 435 100 429 100 c 0
 423 100 415 106 401 120 c 1
 248 252 l 1
EndSplineSet
EndChar
StartChar: guilsinglleft
Encoding: 172 8249 107
Width: 333
Flags: W
Fore
72 252 m 1
 72 266 l 1
 225 399 l 1
 239 414 247 419 254 419 c 0
 259 419 266 412 266 407 c 0
 266 401 258 385 247 366 c 2
 183 259 l 1
 247 152 l 2
 259 132 266 118 266 112 c 0
 266 107 259 100 253 100 c 0
 247 100 239 106 225 120 c 1
 72 252 l 1
EndSplineSet
EndChar
StartChar: guilsinglright
Encoding: 173 8250 108
Width: 333
Flags: W
Fore
269 266 m 1
 269 252 l 1
 115 120 l 1
 100 105 93 100 86 100 c 0
 81 100 74 107 74 112 c 0
 74 118 81 133 93 152 c 2
 157 259 l 1
 93 366 l 2
 81 385 74 401 74 407 c 0
 74 412 81 419 87 419 c 0
 93 419 101 413 115 399 c 1
 269 266 l 1
EndSplineSet
KernsSLIF: 89 -110 1 0 87 -80 1 0 86 -89 1 0 84 -117 1 0 262 -52 1 0 256 -52 1 0 257 -52 1 0 225 -41 1 0 65 -52 1 0
EndChar
StartChar: fi
Encoding: 174 64257 109
Width: 685
Flags: W
HStem: 0 51<21 327 360 667> 413 60<15 98 255 400> 686 47<372 400>
VStem: 98 157<81.232 413 473 513> 414 166<615 629> 435 157<82.4045 353>
Fore
255 413 m 1xf4
 255 145 l 2
 255 79 255 79 259 70 c 0
 264 57 274 53 299 52 c 0
 303 52 314 52 327 51 c 1
 327 0 l 1
 21 0 l 1
 21 51 l 1
 25 51 l 2
 87 51 98 58 98 98 c 2
 98 145 l 1
 98 413 l 1
 15 413 l 1
 15 473 l 1
 98 473 l 1
 98 486 l 2
 98 568 118 622 166 664 c 0
 218 711 290 733 389 733 c 0
 513 733 580 696 580 627 c 0
 580 578 545 545 494 545 c 0
 447 545 414 574 414 617 c 0xf8
 414 629 416 639 422 651 c 0
 426 659 427 662 427 666 c 0
 427 679 414 686 390 686 c 0
 349 686 310 670 289 645 c 0
 265 616 255 578 255 509 c 2
 255 473 l 1
 429 473 l 2
 472 473 509 475 592 480 c 1
 592 145 l 1
 592 99 l 2
 592 59 604 51 661 51 c 2
 667 51 l 1
 667 0 l 1
 360 0 l 1
 360 51 l 1
 364 51 l 2
 424 51 435 59 435 98 c 2
 435 145 l 1
 435 319 l 2
 435 407 431 413 373 413 c 2
 255 413 l 1xf4
EndSplineSet
Ligature: 0 0 'liga' f i
EndChar
StartChar: fl
Encoding: 175 64258 110
Width: 685
Flags: W
HStem: 0 51<21 327 360 666> 413 60<15 98 255 435> 686 47<364 396>
VStem: 98 157<81.232 413 473 513> 435 157<82.4045 413 473 737>
Fore
435 413 m 1
 255 413 l 1
 255 145 l 2
 255 79 255 79 259 70 c 0
 264 57 274 53 299 52 c 0
 303 52 314 52 327 51 c 1
 327 0 l 1
 21 0 l 1
 21 51 l 1
 25 51 l 2
 87 51 98 58 98 98 c 2
 98 145 l 1
 98 413 l 1
 15 413 l 1
 15 473 l 1
 98 473 l 1
 98 486 l 2
 98 568 119 622 166 664 c 0
 213 706 293 733 371 733 c 0
 407 733 454 727 488 717 c 1
 592 737 l 1
 592 145 l 1
 592 99 l 2
 592 59 604 51 661 51 c 2
 666 51 l 1
 666 0 l 1
 360 0 l 1
 360 51 l 1
 364 51 l 2
 424 51 435 59 435 98 c 2
 435 145 l 1
 435 413 l 1
435 473 m 1
 435 563 l 1
 411 570 394 592 394 618 c 0
 394 630 400 647 408 658 c 0
 414 666 415 668 415 671 c 0
 416 681 403 686 380 686 c 0
 345 686 309 670 289 645 c 0
 264 616 255 577 255 509 c 2
 255 473 l 1
 435 473 l 1
EndSplineSet
Ligature: 0 0 'liga' f l
EndChar
StartChar: endash
Encoding: 177 8211 111
Width: 500
Flags: W
HStem: 191 105<0 500>
Fore
0 296 m 1
 500 296 l 1
 500 191 l 1
 0 191 l 1
 0 296 l 1
EndSplineSet
EndChar
StartChar: dagger
Encoding: 178 8224 112
Width: 500
Flags: W
HStem: 449 116<91 109> 717 20G<228.5 267.5>
VStem: 230 35<-87 -40.3908>
Fore
265 -87 m 1
 230 -87 l 1
 225 164 218 214 166 318 c 1
 206 360 229 419 234 489 c 1
 202 488 188 484 156 468 c 0
 128 453 114 449 97 449 c 0
 65 449 44 470 44 505 c 0
 44 541 65 565 98 565 c 0
 115 565 129 560 156 544 c 0
 188 524 201 520 234 519 c 1
 231 565 224 586 188 646 c 1
 184 655 181 666 181 679 c 0
 181 713 209 737 248 737 c 0
 287 737 314 713 314 679 c 0
 314 659 314 659 287 611 c 0
 271 583 262 548 261 519 c 1
 294 520 307 524 339 544 c 0
 366 560 379 565 396 565 c 0
 430 565 451 541 451 503 c 0
 451 466 430 442 396 442 c 0
 379 442 366 447 339 463 c 0
 307 483 294 488 261 489 c 1
 266 419 289 360 329 318 c 1
 277 213 270 167 265 -87 c 1
EndSplineSet
EndChar
StartChar: daggerdbl
Encoding: 179 8225 113
Width: 500
Flags: W
HStem: 85 123<101 112 403 405> 442 123<101 112 403 405> 717 20G<233.5 272.5>
VStem: 186 133<-29 -22 666.161 682>
Fore
239 489 m 1
 207 489 190 483 159 463 c 0
 132 447 119 442 101 442 c 0
 68 442 47 466 47 503 c 0
 47 541 68 565 101 565 c 0
 119 565 132 560 159 544 c 0
 191 524 206 520 239 519 c 1
 236 565 229 586 193 646 c 1
 189 655 186 666 186 679 c 0
 186 713 214 737 253 737 c 0
 292 737 319 713 319 679 c 0
 319 659 319 659 292 611 c 0
 276 583 267 548 266 519 c 1
 299 520 314 524 346 544 c 0
 373 560 386 565 403 565 c 0
 437 565 458 541 458 503 c 0
 458 466 437 442 403 442 c 0
 386 442 373 447 346 463 c 0
 314 483 299 488 266 489 c 1
 269 425 293 368 334 325 c 1
 293 282 269 225 266 161 c 1
 299 162 314 167 346 187 c 0
 372 203 386 208 403 208 c 0
 437 208 458 184 458 147 c 0
 458 109 437 85 403 85 c 0
 386 85 373 90 346 106 c 0
 314 126 299 130 266 131 c 1
 269 85 276 64 312 4 c 1
 316 -5 319 -16 319 -29 c 0
 319 -63 291 -87 253 -87 c 0
 214 -87 186 -63 186 -29 c 0
 186 -9 186 -9 213 39 c 0
 229 67 238 102 239 131 c 1
 206 130 191 126 159 106 c 0
 132 90 119 85 101 85 c 0
 68 85 47 109 47 147 c 0
 47 184 68 208 101 208 c 0
 119 208 132 203 159 187 c 0
 190 167 207 161 239 161 c 1
 236 225 212 282 171 325 c 1
 212 368 236 425 239 489 c 1
EndSplineSet
EndChar
StartChar: periodcentered
Encoding: 180 183 114
Width: 278
Flags: W
Fore
140 348 m 0
 192 348 234 306 234 254 c 0
 234 202 192 160 139 160 c 0
 88 160 46 203 46 254 c 0
 46 306 88 348 140 348 c 0
EndSplineSet
EndChar
StartChar: paragraph
Encoding: 182 182 115
Width: 747
Flags: W
HStem: -144 54<155 713> 667 55<268 476 268 713>
VStem: 254 152<-64.9473 324> 476 152<-89 625>
Fore
254 -3 m 2
 254 325 l 1
 246 324 245 324 245 324 c 2
 120 324 35 403 35 521 c 0
 35 596 67 659 121 691 c 0
 160 714 199 722 268 722 c 2
 713 722 l 1
 713 667 l 1
 693 667 l 2
 673 667 647 663 640 658 c 0
 631 652 628 643 628 620 c 2
 628 581 l 1
 628 -3 l 2
 628 -68 628 -68 635 -76 c 0
 641 -83 668 -90 693 -90 c 2
 713 -90 l 1
 713 -144 l 1
 155 -144 l 1
 155 -90 l 1
 179 -90 l 2
 214 -90 240 -85 248 -76 c 0
 254 -68 254 -68 254 -3 c 2
476 667 m 1
 406 667 l 1
 406 -89 l 1
 476 -89 l 1
 476 667 l 1
EndSplineSet
EndChar
StartChar: bullet
Encoding: 183 8226 116
Width: 606
Flags: W
Fore
303 524 m 0
 398 524 475 447 475 352 c 0
 475 256 398 180 301 180 c 0
 209 180 131 259 131 352 c 0
 131 447 208 524 303 524 c 0
EndSplineSet
EndChar
StartChar: quotesinglbase
Encoding: 184 8218 117
Width: 241
Flags: W
HStem: -30 20G<114 118>
Fore
50 -186 m 1
 23 -145 l 1
 85 -102 122 -54 122 -16 c 0
 122 -12 121 -10 118 -10 c 2
 114 -10 l 2
 112 -11 110 -11 106 -11 c 0
 58 -11 22 26 22 75 c 0
 22 130 64 173 118 173 c 0
 178 173 219 124 219 52 c 0
 219 -37 161 -119 50 -186 c 1
EndSplineSet
EndChar
StartChar: quotedblbase
Encoding: 185 8222 118
Width: 481
Flags: W
HStem: -30 20G<115 119 353 357>
Fore
51 -186 m 1
 24 -145 l 1
 86 -102 123 -54 123 -16 c 0
 123 -12 122 -10 119 -10 c 2
 115 -10 l 2
 113 -11 111 -11 107 -11 c 0
 59 -11 23 26 23 75 c 0
 23 130 65 173 119 173 c 0
 179 173 220 124 220 52 c 0
 220 -37 162 -119 51 -186 c 1
289 -186 m 1
 262 -145 l 1
 324 -102 361 -54 361 -16 c 0
 361 -12 360 -10 357 -10 c 2
 353 -10 l 2
 351 -11 349 -11 345 -11 c 0
 297 -11 261 26 261 75 c 0
 261 130 303 173 357 173 c 0
 417 173 458 124 458 52 c 0
 458 -37 400 -119 289 -186 c 1
EndSplineSet
KernsSLIF: 89 -52 1 0 87 -57 1 0 86 -71 1 0 84 -52 1 0 225 52 1 0 65 44 1 0
EndChar
StartChar: quotedblright
Encoding: 186 8221 119
Width: 481
Flags: W
HStem: 717 20G<92 149 330 387>
Fore
51 379 m 1
 24 420 l 1
 86 462 123 511 123 548 c 0
 123 552 121 554 119 554 c 0
 118 554 117 554 115 553 c 0
 112 552 110 552 107 552 c 0
 59 552 23 589 23 638 c 0
 23 694 65 737 119 737 c 0
 179 737 220 688 220 617 c 0
 220 528 162 446 51 379 c 1
289 379 m 1
 262 420 l 1
 324 462 361 511 361 548 c 0
 361 552 359 554 357 554 c 0
 356 554 355 554 353 553 c 0
 350 552 348 552 345 552 c 0
 297 552 261 589 261 638 c 0
 261 694 303 737 357 737 c 0
 417 737 458 688 458 617 c 0
 458 528 400 446 289 379 c 1
EndSplineSet
KernsSLIF: 89 31 1 0 87 20 1 0 86 33 1 0 84 30 1 0 262 -67 1 0 256 -67 1 0 257 -67 1 0 225 -52 1 0 65 -67 1 0
EndChar
StartChar: guillemotright
Encoding: 187 187 120
Width: 500
Flags: W
Fore
251 266 m 1
 251 252 l 1
 97 120 l 1
 82 105 75 100 68 100 c 0
 63 100 56 107 56 112 c 0
 56 118 63 133 75 152 c 2
 139 259 l 1
 75 366 l 2
 63 385 56 401 56 407 c 0
 56 412 63 419 69 419 c 0
 75 419 83 413 97 399 c 1
 251 266 l 1
451 266 m 1
 451 252 l 1
 297 120 l 1
 282 105 275 100 268 100 c 0
 263 100 256 107 256 112 c 0
 256 118 263 133 275 152 c 2
 339 259 l 1
 275 366 l 2
 263 385 256 401 256 407 c 0
 256 412 263 419 269 419 c 0
 275 419 283 413 297 399 c 1
 451 266 l 1
EndSplineSet
KernsSLIF: 89 -102 1 0 87 -72 1 0 86 -81 1 0 84 -109 1 0 262 -45 1 0 256 -45 1 0 257 -45 1 0 225 -34 1 0 65 -45 1 0
EndChar
StartChar: ellipsis
Encoding: 188 8230 121
Width: 1000
Flags: W
HStem: -15 21G<140.5 192.5 473.5 525.5 806.5 858.5>
VStem: 73 188<65.4528 82> 406 188<65.4528 82> 739 188<65.4528 82>
CounterMasks: 1 00
Fore
167 173 m 0
 219 173 261 131 261 79 c 0
 261 27 219 -15 166 -15 c 0
 115 -15 73 28 73 79 c 0
 73 131 115 173 167 173 c 0
500 173 m 0
 552 173 594 131 594 79 c 0
 594 27 552 -15 499 -15 c 0
 448 -15 406 28 406 79 c 0
 406 131 448 173 500 173 c 0
833 173 m 0
 885 173 927 131 927 79 c 0
 927 27 885 -15 832 -15 c 0
 781 -15 739 28 739 79 c 0
 739 131 781 173 833 173 c 0
EndSplineSet
Ligature: 0 1 'liga' period period period
EndChar
StartChar: perthousand
Encoding: 189 8240 122
Width: 1000
Flags: W
HStem: -1 47<443 464 792 813> 307 47<536 557 885 906> 319 47<132 150> 575 42<359 393> 681 20G<524 564>
VStem: 8 97<413 440> 293 37<552 579> 322 97<91 116> 605 40<231 256> 671 97<92 115> 954 40<231 256>
DStem: 449 591 564 701 111 0 162 0
Fore
564 701 m 1xbee0
 162 0 l 1
 111 0 l 1
 449 591 l 1
 419 579 400 575 373 575 c 0
 357 575 345 576 329 580 c 1
 330 568 330 560 330 554 c 0
 330 439 229 319 132 319 c 0
 63 319 8 373 8 440 c 0
 8 554 121 678 225 678 c 0
 260 678 292 662 309 634 c 1
 331 621 346 617 374 617 c 0
 435 617 473 639 524 701 c 1
 564 701 l 1xbee0
235 630 m 1
 211 623 194 608 173 576 c 0
 129 505 105 448 105 413 c 0
 105 384 122 366 150 366 c 0
 217 366 293 470 293 562 c 0
 293 575 292 583 288 596 c 1
 261 607 249 614 235 630 c 1
536 354 m 0xdde0
 599 354 645 307 645 241 c 0
 645 181 618 113 574 63 c 0
 537 21 491 -1 443 -1 c 0
 374 -1 322 49 322 116 c 0
 322 188 370 275 435 321 c 0
 466 343 499 354 536 354 c 0xdde0
557 307 m 0
 529 307 507 287 475 233 c 0
 439 170 419 120 419 91 c 0
 419 65 438 46 464 46 c 0
 530 46 605 150 605 243 c 0
 605 279 584 307 557 307 c 0
885 354 m 0
 948 354 994 307 994 241 c 0
 994 181 967 115 922 63 c 0
 886 22 840 -1 792 -1 c 0
 723 -1 671 49 671 115 c 0
 671 188 719 275 784 321 c 0
 815 343 848 354 885 354 c 0
906 307 m 0
 878 307 855 286 824 233 c 0
 788 171 768 120 768 92 c 0
 768 65 787 46 813 46 c 0
 879 46 954 150 954 243 c 0
 954 279 933 307 906 307 c 0
EndSplineSet
EndChar
StartChar: questiondown
Encoding: 191 191 123
Width: 500
Flags: W
HStem: -203 57<251 293> 361 188<262 280>
VStem: 23 176<-44 -23> 295 181<-49 -33>
Fore
245 306 m 1
 299 306 l 1
 301 290 302 274 302 264 c 0
 302 219 294 199 239 101 c 0
 214 56 199 5 199 -36 c 0
 199 -106 233 -146 293 -146 c 0
 324 -146 346 -135 346 -121 c 0
 346 -114 345 -113 327 -99 c 0
 306 -83 295 -61 295 -35 c 0
 295 13 331 46 382 46 c 0
 436 46 476 7 476 -47 c 0
 476 -139 383 -203 251 -203 c 0
 111 -203 23 -134 23 -25 c 0
 23 23 43 69 78 99 c 0
 85 105 94 112 171 171 c 0
 233 219 242 236 245 306 c 1
271 549 m 0
 322 549 364 506 364 455 c 0
 364 403 322 361 270 361 c 0
 218 361 176 403 176 455 c 0
 176 507 218 549 271 549 c 0
EndSplineSet
EndChar
StartChar: grave
Encoding: 193 96 124
Width: 333
Flags: W
HStem: 714 20G<43 67.5>
Fore
249 545 m 1
 185 545 l 1
 38 632 l 2
 14 646 2 664 2 684 c 0
 2 712 27 734 59 734 c 0
 76 734 92 728 107 716 c 0
 113 712 113 712 136 683 c 2
 249 545 l 1
EndSplineSet
EndChar
StartChar: acute
Encoding: 194 180 125
Width: 333
Flags: W
HStem: 714 20G<259 290>
Fore
84 545 m 1
 197 683 l 2
 232 726 244 734 274 734 c 0
 306 734 331 712 331 684 c 0
 331 663 319 646 295 632 c 2
 148 545 l 1
 84 545 l 1
EndSplineSet
Ligature: 0 1 'liga' space acutecomb
EndChar
StartChar: circumflex
Encoding: 195 710 126
Width: 333
Flags: W
HStem: 702 20G<113 222>
Fore
-8 544 m 1
 113 722 l 1
 222 722 l 1
 343 544 l 1
 276 544 l 1
 168 637 l 1
 59 544 l 1
 -8 544 l 1
EndSplineSet
EndChar
StartChar: tilde
Encoding: 196 732 127
Width: 333
Flags: W
HStem: 681 20G<309 358>
Fore
309 701 m 1
 358 701 l 1
 354 667 345 643 324 616 c 0
 297 580 271 566 232 566 c 0
 199 566 184 571 131 599 c 0
 108 612 84 620 71 620 c 0
 52 620 36 602 27 570 c 1
 -23 570 l 1
 -11 649 39 705 96 705 c 0
 123 705 140 700 192 675 c 0
 226 659 248 651 263 651 c 0
 284 651 295 663 309 701 c 1
EndSplineSet
Ligature: 0 1 'liga' space tildecomb
EndChar
StartChar: macron
Encoding: 197 175 128
Width: 333
Flags: W
HStem: 583 80<-5 339>
Fore
-5 663 m 5
 339 663 l 5
 339 583 l 5
 -5 583 l 5
 -5 663 l 5
EndSplineSet
LCarets: 0 65535 '    ' 1 0 
Ligature: 0 1 'liga' space uni0304
EndChar
StartChar: breve
Encoding: 198 728 129
Width: 333
Flags: W
HStem: 692 20G<9 62 271 324>
Fore
9 712 m 1
 62 712 l 1
 69 657 103 630 167 630 c 0
 230 630 264 657 271 712 c 1
 324 712 l 1
 324 607 266 545 166 545 c 0
 66 545 9 606 9 712 c 1
EndSplineSet
Ligature: 0 1 'liga' space uni0306
EndChar
StartChar: dotaccent
Encoding: 199 729 130
Width: 333
Flags: W
HStem: 673 20G<147.5 186>
Fore
167 693 m 0
 205 693 237 661 237 623 c 0
 237 583 205 552 166 552 c 0
 128 552 96 584 96 623 c 0
 96 661 128 693 167 693 c 0
EndSplineSet
Ligature: 0 1 'liga' space uni0307
EndChar
StartChar: dieresis
Encoding: 200 168 131
Width: 333
Flags: W
HStem: 673 20G<40.5 79 255.5 294>
VStem: -11 141<623 633> 204 141<623 633>
Fore
60 693 m 0
 98 693 130 661 130 623 c 0
 130 583 98 552 59 552 c 0
 21 552 -11 584 -11 623 c 0
 -11 661 21 693 60 693 c 0
275 693 m 0
 313 693 345 661 345 623 c 0
 345 583 313 552 274 552 c 0
 236 552 204 584 204 623 c 0
 204 661 236 693 275 693 c 0
EndSplineSet
Ligature: 0 1 'liga' space uni0308
EndChar
StartChar: ring
Encoding: 202 730 132
Width: 333
Flags: W
HStem: 545 52<163 172> 708 52<167 172>
VStem: 59 55<641.721 658> 219 55<653 658>
Fore
167 760 m 0
 226 760 274 712 274 653 c 0
 274 593 226 545 165 545 c 0
 108 545 59 594 59 653 c 0
 59 711 108 760 167 760 c 0
167 708 m 0
 138 708 114 683 114 652 c 0
 114 623 138 597 166 597 c 0
 195 597 219 622 219 653 c 0
 219 683 195 708 167 708 c 0
EndSplineSet
Ligature: 0 1 'liga' space uni030A
EndChar
StartChar: cedilla
Encoding: 203 184 133
Width: 333
Flags: W
HStem: -222 47<96 112> -20 20G<111 156>
DStem: 111 0 156 0 64 -98 127 -61
Fore
111 0 m 1
 156 0 l 1
 127 -61 l 1
 148 -57 157 -56 168 -56 c 0
 215 -56 251 -88 251 -132 c 0
 251 -185 194 -222 112 -222 c 0
 77 -222 48 -216 17 -203 c 1
 35 -158 l 1
 63 -171 79 -175 98 -175 c 0
 128 -175 147 -160 147 -136 c 0
 147 -115 131 -102 106 -102 c 0
 98 -102 92 -103 83 -108 c 1
 64 -98 l 1
 111 0 l 1
EndSplineSet
Ligature: 0 1 'liga' space uni0327
EndChar
StartChar: hungarumlaut
Encoding: 205 733 134
Width: 333
Flags: W
HStem: 713 20G<137.5 160 306.5 329>
Fore
93 545 m 1
 68 560 l 1
 87 657 l 2
 93 688 97 698 104 710 c 0
 113 724 129 733 146 733 c 0
 174 733 196 711 196 684 c 0
 196 664 187 644 170 626 c 2
 93 545 l 1
262 545 m 1
 237 560 l 1
 256 657 l 2
 262 688 266 698 273 710 c 0
 282 724 298 733 315 733 c 0
 343 733 365 711 365 684 c 0
 365 664 356 644 339 626 c 2
 262 545 l 1
EndSplineSet
Ligature: 0 1 'liga' space uni030B
EndChar
StartChar: ogonek
Encoding: 206 731 135
Width: 333
Flags: W
HStem: -20 20G<111 178>
Fore
111 0 m 1
 178 0 l 1
 154 -25 148 -37 148 -59 c 0
 148 -82 159 -95 178 -95 c 0
 195 -95 209 -89 227 -73 c 1
 246 -105 l 1
 220 -148 185 -170 144 -170 c 0
 98 -170 68 -138 68 -89 c 0
 68 -53 80 -29 111 0 c 1
EndSplineSet
Ligature: 0 1 'liga' space uni0328
EndChar
StartChar: caron
Encoding: 207 711 136
Width: 333
Flags: W
HStem: 702 20G<-8 59 276 343>
Fore
343 722 m 1
 222 544 l 1
 113 544 l 1
 -8 722 l 1
 59 722 l 1
 167 629 l 1
 276 722 l 1
 343 722 l 1
EndSplineSet
EndChar
StartChar: emdash
Encoding: 208 8212 137
Width: 1000
Flags: W
HStem: 191 105<0 1000>
Fore
0 296 m 1
 1000 296 l 1
 1000 191 l 1
 0 191 l 1
 0 296 l 1
EndSplineSet
EndChar
StartChar: uniFFFD
Encoding: 209 65533 138
Width: 333
Flags: W
HStem: -20 20G<136 203>
Fore
203 0 m 1
 136 0 l 1
 160 -25 166 -37 166 -59 c 0
 166 -82 155 -95 136 -95 c 0
 119 -95 105 -89 87 -73 c 1
 68 -105 l 1
 94 -148 129 -170 170 -170 c 0
 216 -170 246 -138 246 -89 c 0
 246 -53 234 -29 203 0 c 1
EndSplineSet
EndChar
StartChar: AE
Encoding: 225 198 138
Width: 981
Flags: W
HStem: 0 54<194 223 313 952> 264 55<227 415> 462 260<180 952> 668 54<180 212 180 409 180 691>
VStem: 415 180<111 264 319 347 319 616>
DStem: 270 554 387 645 73 163 227 319 270 554 200 264 73 163 151 167
Fore
946 722 m 1xe8
 952 462 l 1
 900 462 l 1xe8
 885 515 864 564 842 594 c 0
 810 638 748 668 687 668 c 2
 666 668 l 2
 638 668 615 660 605 646 c 0
 597 634 595 623 595 582 c 2
 595 401 l 1
 605 401 l 2
 684 401 732 451 743 543 c 1
 797 543 l 1
 797 204 l 1
 743 204 l 1
 732 297 684 347 605 347 c 2
 595 347 l 1
 595 124 l 2
 595 67 609 54 671 54 c 2
 688 54 l 2
 751 54 803 79 845 129 c 0
 873 163 891 201 910 269 c 1
 963 269 l 1
 952 0 l 1
 313 0 l 1
 313 54 l 1
 324 54 l 2
 377 54 399 58 408 69 c 0
 415 77 415 80 415 144 c 2
 415 264 l 1
 200 264 l 1
 151 167 l 2
 137 140 129 113 129 98 c 0
 129 71 158 54 205 54 c 2
 223 54 l 1
 223 0 l 1
 -29 0 l 1
 -29 54 l 1
 12 62 34 86 73 163 c 2
 270 554 l 1
 282 579 288 598 288 614 c 0
 288 649 257 668 200 668 c 2
 180 668 l 1xd8
 180 722 l 1
 946 722 l 1xe8
415 319 m 1
 415 647 l 2
 415 663 413 668 405 668 c 0xd8
 399 668 397 666 387 645 c 2
 227 319 l 1
 415 319 l 1
EndSplineSet
EndChar
StartChar: ordfeminine
Encoding: 227 170 139
Width: 367
Flags: W
HStem: 293 60<9 335> 435 52<294 331> 705 32<144 168>
VStem: 1 110<505 518> 18 106<649 661> 210 103<534.901 584 616 655>
Fore
313 635 m 2xec
 313 529 l 2
 313 495 316 487 331 487 c 0
 336 487 337 487 343 490 c 0
 348 493 353 494 356 494 c 0
 361 494 365 490 365 485 c 0
 365 459 331 435 294 435 c 0
 263 435 237 450 225 475 c 1
 187 447 150 435 101 435 c 0
 38 435 1 461 1 505 c 0xf4
 1 540 23 565 70 584 c 0
 101 596 110 599 189 613 c 0
 192 613 199 615 210 617 c 1
 210 648 l 2
 210 689 196 705 158 705 c 0
 132 705 110 696 110 686 c 0
 110 683 110 682 115 676 c 0
 121 669 124 660 124 653 c 0
 124 631 100 614 71 614 c 0
 41 614 18 633 18 659 c 0
 18 706 77 737 166 737 c 0
 216 737 258 727 282 710 c 0
 305 693 313 674 313 635 c 2xec
210 585 m 1
 176 578 l 2
 131 568 111 549 111 518 c 0
 111 492 127 476 152 476 c 0
 187 476 210 505 210 551 c 2
 210 585 l 1
9 293 m 1
 9 353 l 1
 335 353 l 1
 335 293 l 1
 9 293 l 1
EndSplineSet
EndChar
StartChar: Lslash
Encoding: 232 321 140
Width: 722
Flags: W
HStem: 0 54<19 689> 668 54<19 68 19 414>
VStem: 123 180<111 249 318 345 319 625>
DStem: 477 534 477 464 303 415 303 345
Fore
123 249 m 1
 19 178 l 1
 19 249 l 1
 123 319 l 1
 123 578 l 2
 123 641 123 645 116 653 c 0
 107 664 86 668 34 668 c 2
 19 668 l 1
 19 722 l 1
 415 722 l 1
 415 668 l 1
 393 668 l 2
 340 668 319 664 310 653 c 0
 303 645 303 641 303 578 c 2
 303 415 l 1
 477 534 l 1
 477 464 l 1
 303 345 l 1
 303 124 l 2
 303 91 306 80 319 68 c 0
 331 56 344 54 393 54 c 2
 414 54 l 2
 485 54 542 80 583 129 c 0
 609 162 627 200 648 269 c 1
 701 269 l 1
 689 0 l 1
 19 0 l 1
 19 54 l 1
 34 54 l 2
 86 54 107 58 116 69 c 0
 123 77 123 81 123 145 c 2
 123 249 l 1
EndSplineSet
EndChar
StartChar: Oslash
Encoding: 233 216 141
Width: 833
Flags: W
HStem: -15 52<406 424> 686 52<406 423>
VStem: 39 200<343 376> 593 200<343 377>
DStem: 170 71 213 39 91 -40 156 -40 549 599 573 541 258 193 279 132 666 762 731 762 613 688 656 657
Fore
613 688 m 1
 666 762 l 1
 731 762 l 1
 656 657 l 1
 741 587 793 476 793 365 c 0
 793 266 749 160 679 90 c 0
 610 20 521 -15 413 -15 c 0
 336 -15 272 2 213 39 c 1
 156 -40 l 1
 91 -40 l 1
 170 71 l 1
 85 146 39 249 39 363 c 0
 39 577 204 738 421 738 c 0
 493 738 556 721 613 688 c 1
258 193 m 1
 549 599 l 1
 518 660 478 686 417 686 c 0
 300 686 239 578 239 372 c 0
 239 302 245 245 258 193 c 1
573 541 m 1
 279 132 l 1
 308 66 351 37 420 37 c 0
 480 37 528 66 550 116 c 0
 577 177 593 272 593 373 c 0
 593 436 586 495 573 541 c 1
EndSplineSet
KernsSLIF: 65 -37 0 0
EndChar
StartChar: OE
Encoding: 234 338 142
Width: 1000
Flags: W
HStem: 0 54<356 374 692 976> 462 260<363 975> 668 54<341.862 374 363 726>
VStem: 5 200<335 385> 460 180<159 346 191 582>
Fore
970 722 m 1xd8
 975 462 l 1
 923 462 l 1xd8
 909 515 887 565 866 594 c 0
 833 639 773 668 714 668 c 2
 708 668 l 2xb8
 681 668 660 660 650 645 c 0
 642 634 640 623 640 582 c 2
 640 401 l 1
 643 401 l 2
 722 401 771 451 782 543 c 1
 836 543 l 1
 836 204 l 1
 782 204 l 1
 771 296 722 346 643 346 c 2
 640 346 l 1
 640 125 l 2
 640 68 655 54 712 54 c 2
 719 54 l 2
 774 54 830 82 869 129 c 0
 898 164 916 202 934 269 c 1
 987 269 l 1
 976 0 l 1
 366 0 l 2
 256 0 169 34 105 101 c 0
 42 168 5 264 5 358 c 0
 5 452 43 550 105 617 c 0
 171 687 257 722 363 722 c 2
 970 722 l 1xd8
460 191 m 2
 460 544 l 2
 460 630 430 668 361 668 c 0xb8
 253 668 205 577 205 369 c 0
 205 266 213 198 232 148 c 0
 253 91 305 54 364 54 c 0
 396 54 425 67 439 87 c 0
 454 109 460 138 460 191 c 2
EndSplineSet
EndChar
StartChar: ordmasculine
Encoding: 235 186 143
Width: 367
Flags: W
HStem: 293 60<16 342> 435 32<166.576 183> 705 32<176 183>
VStem: 1 110<580 598> 247 110<567.139 598>
Fore
181 737 m 0
 279 737 357 669 357 584 c 0
 357 499 281 435 179 435 c 0
 76 435 1 498 1 585 c 0
 1 672 78 737 181 737 c 0
180 705 m 0
 135 705 111 664 111 586 c 0
 111 508 134 467 178 467 c 0
 222 467 247 509 247 584 c 0
 247 664 224 705 180 705 c 0
16 293 m 1
 16 353 l 1
 342 353 l 1
 342 293 l 1
 16 293 l 1
EndSplineSet
EndChar
StartChar: ae
Encoding: 241 230 144
Width: 870
Flags: W
HStem: -15 68<602 637> 228 55<502 836> 436 52<259 286 588 608>
VStem: 29 167<103 123> 57 163<347 359> 353 149<283 306> 680 157<242 315>
Fore
787 164 m 1xee
 836 144 l 1
 793 38 715 -15 602 -15 c 0
 518 -15 449 17 401 76 c 1
 342 14 273 -15 185 -15 c 0
 86 -15 29 28 29 103 c 0xf6
 29 161 62 201 137 234 c 0
 185 255 199 259 320 283 c 0
 326 284 337 286 353 290 c 1
 353 342 l 2
 353 410 331 436 271 436 c 0
 231 436 197 421 197 404 c 0
 197 399 198 398 206 387 c 0
 215 376 220 362 220 349 c 0
 220 313 184 285 138 285 c 0
 92 285 57 317 57 359 c 0
 57 436 148 488 281 488 c 0
 351 488 411 470 450 437 c 1
 494 470 549 488 606 488 c 0
 744 488 837 390 837 242 c 0
 837 241 837 234 836 228 c 1
 501 228 l 1
 503 170 509 140 527 113 c 0
 551 75 591 53 637 53 c 0
 703 53 748 87 787 164 c 1xee
353 236 m 1
 300 223 l 2
 227 206 196 176 196 123 c 0
 196 80 221 53 261 53 c 0
 317 53 353 102 353 179 c 2
 353 236 l 1
502 283 m 1
 652 283 l 2
 673 283 680 291 680 315 c 0
 680 393 652 436 601 436 c 0
 540 436 503 377 502 283 c 1
EndSplineSet
KernsSLIF: 121 -20 0 0 119 -18 0 0 118 -15 0 0
EndChar
StartChar: dotlessi
Encoding: 245 305 145
Width: 370
Flags: W
HStem: 0 51<28 341>
VStem: 106 157<81.2754 369>
Fore
263 473 m 1
 263 144 l 1
 263 97 l 2
 263 58 274 51 335 51 c 2
 341 51 l 1
 341 0 l 1
 28 0 l 1
 28 51 l 1
 32 51 l 2
 95 51 106 58 106 98 c 2
 106 144 l 1
 106 321 l 2
 106 410 103 415 42 415 c 2
 28 415 l 1
 28 466 l 1
 263 473 l 1
EndSplineSet
EndChar
StartChar: lslash
Encoding: 248 322 146
Width: 352
Flags: W
HStem: 0 51<19 331>
VStem: 99 157<80.4319 291 360 374 361 737>
Fore
256 445 m 1
 329 498 l 1
 329 428 l 1
 256 374 l 1
 256 144 l 1
 256 97 l 2
 256 72 259 64 271 58 c 0
 278 54 305 51 324 51 c 2
 331 51 l 1
 331 0 l 1
 19 0 l 1
 19 51 l 1
 23 51 l 2
 88 51 99 57 99 97 c 2
 99 144 l 1
 99 291 l 1
 26 235 l 1
 26 305 l 1
 99 361 l 1
 99 578 l 2
 99 667 96 671 35 671 c 2
 16 671 l 1
 16 722 l 1
 256 737 l 1
 256 445 l 1
EndSplineSet
EndChar
StartChar: oslash
Encoding: 249 248 147
Width: 611
Flags: W
HStem: -15 52<300 307> 436 52<300 307>
VStem: 31 173<213 247> 406 173<213 247>
DStem: 152 24 198 3 86 -90 144 -90 372 403 396 343 214 130 238 71 465 563 523 563 411 469 456 447
Fore
411 469 m 1
 465 563 l 1
 523 563 l 1
 456 447 l 1
 538 394 579 323 579 234 c 0
 579 91 462 -15 305 -15 c 0
 266 -15 232 -9 198 3 c 1
 144 -90 l 1
 86 -90 l 1
 152 24 l 1
 77 66 31 147 31 236 c 0
 31 378 150 488 302 488 c 0
 339 488 376 482 411 469 c 1
214 130 m 1
 372 403 l 1
 354 425 332 436 305 436 c 0
 239 436 204 366 204 235 c 0
 204 195 207 161 214 130 c 1
396 343 m 1
 238 71 l 1
 256 48 277 37 304 37 c 0
 369 37 406 108 406 235 c 0
 406 270 402 316 396 343 c 1
EndSplineSet
EndChar
StartChar: oe
Encoding: 250 339 148
Width: 907
Flags: W
HStem: -15 52<301 308> 228 55<551 872> 436 52<290 308 637 646>
VStem: 35 173<224 258> 395 156<236 283> 715 157<243 316>
Fore
823 164 m 1
 872 144 l 1
 829 40 750 -15 643 -15 c 0
 578 -15 515 6 468 44 c 1
 417 4 363 -15 301 -15 c 0
 150 -15 35 94 35 237 c 0
 35 309 61 368 115 416 c 0
 166 462 233 488 301 488 c 0
 363 488 411 470 471 425 c 1
 525 470 574 488 639 488 c 0
 779 488 872 390 872 243 c 2
 872 228 l 1
 550 228 l 1
 552 171 558 140 576 113 c 0
 599 77 640 53 681 53 c 0
 738 53 785 90 823 164 c 1
303 436 m 0
 241 436 208 367 208 236 c 0
 208 106 240 37 301 37 c 0
 330 37 355 55 371 87 c 0
 385 115 395 178 395 236 c 0
 395 284 387 345 376 377 c 0
 365 411 334 436 303 436 c 0
551 283 m 1
 688 283 l 2
 709 283 715 291 715 316 c 0
 715 393 689 436 642 436 c 0
 610 436 579 411 564 375 c 0
 555 353 551 327 551 283 c 1
EndSplineSet
EndChar
StartChar: germandbls
Encoding: 251 223 149
Width: 611
Flags: W
HStem: -15 52<352 367> 0 51<6 242> 686 51<313 327>
VStem: 85 157<80.9988 530> 391 146<558 578> 414 161<192 226>
Fore
85 144 m 1x78
 85 497 l 2
 85 665 153 737 313 737 c 0
 382 737 436 724 474 698 c 0
 513 671 537 623 537 574 c 0x78
 537 501 493 446 415 422 c 1
 515 399 575 321 575 215 c 0
 575 83 486 -15 367 -15 c 0xb4
 339 -15 321 -11 293 0 c 1x74
 293 63 l 1
 313 46 335 37 354 37 c 0
 372 37 387 50 396 72 c 0
 406 96 414 163 414 218 c 0xb4
 414 286 403 348 386 371 c 0
 379 382 357 392 342 392 c 2
 316 391 l 1
 295 395 290 399 290 413 c 0
 290 422 294 429 301 435 c 0
 304 437 310 440 311 440 c 2
 338 437 l 1
 360 441 363 442 370 451 c 0
 383 469 391 507 391 560 c 0
 391 647 367 686 313 686 c 0
 258 686 242 653 242 541 c 2
 242 0 l 1
 6 0 l 1
 6 51 l 1
 10 51 l 2
 74 51 85 57 85 98 c 2
 85 144 l 1x78
EndSplineSet
EndChar
StartChar: Adieresis
Encoding: 256 196 150
Width: 759
Flags: W
HStem: 0 55<444 469.92> 218 67<229 452> 717 20G<351 427> 797 141<269 287 488 504>
VStem: 209 141<868 870> 424 141<868 870>
DStem: 330 524 427 737 427 285 684 117 351 737 330 524 124 207 229 285
Fore
351 737 m 1
 427 737 l 1
 684 117 l 2
 705 66 721 56 778 54 c 1
 778 0 l 1
 427 0 l 1
 427 54 l 1
 444 55 l 2
 489 55 502 61 502 79 c 0
 502 87 498 102 490 120 c 1
 452 218 l 1
 203 218 l 1
 187 180 l 1
 174 151 171 140 171 123 c 0
 171 77 199 58 271 54 c 1
 271 0 l 1
 -18 0 l 1
 -18 54 l 1
 41 60 78 99 124 207 c 2
 351 737 l 1
330 524 m 1
 229 285 l 1
 427 285 l 1
 330 524 l 1
280 938 m 0
 318 938 350 906 350 868 c 0
 350 828 318 797 279 797 c 0
 241 797 209 829 209 868 c 0
 209 906 241 938 280 938 c 0
495 938 m 0
 533 938 565 906 565 868 c 0
 565 828 533 797 494 797 c 0
 456 797 424 829 424 868 c 0
 424 906 456 938 495 938 c 0
EndSplineSet
KernsSLIF: 121 -60 0 0 119 -54 0 0 118 -54 0 0 117 -11 0 0 116 -8 0 0 39 -53 0 0 186 -53 0 0 113 3 0 0 46 31 0 0 111 -6 0 0 45 -2 0 0 172 -51 0 0 171 -39 0 0 103 21 0 0 100 -1 0 0 44 35 0 0 99 -3 0 0 98 9 0 0 97 22 0 0 89 -31 0 0 87 -82 0 0 86 -87 0 0 85 -40 0 0 84 -31 0 0 81 -34 0 0 79 -35 0 0 71 -31 0 0 67 -34 0 0
Ligature: 0 0 'liga' A uni0308
EndChar
StartChar: Aacute
Encoding: 257 193 151
Width: 759
Flags: W
HStem: 0 55<444 469.92> 218 67<229 452> 717 20G<351 427>
DStem: 330 524 427 737 427 285 684 117 351 737 330 524 124 207 229 285
Fore
351 737 m 1
 427 737 l 1
 684 117 l 2
 705 66 721 56 778 54 c 1
 778 0 l 1
 427 0 l 1
 427 54 l 1
 444 55 l 2
 489 55 502 61 502 79 c 0
 502 87 498 102 490 120 c 1
 452 218 l 1
 203 218 l 1
 187 180 l 1
 174 151 171 140 171 123 c 0
 171 77 199 58 271 54 c 1
 271 0 l 1
 -18 0 l 1
 -18 54 l 1
 41 60 78 99 124 207 c 2
 351 737 l 1
330 524 m 1
 229 285 l 1
 427 285 l 1
 330 524 l 1
324 790 m 1
 437 928 l 2
 472 971 484 979 514 979 c 0
 546 979 571 957 571 929 c 0
 571 908 559 891 535 877 c 2
 388 790 l 1
 324 790 l 1
EndSplineSet
KernsSLIF: 121 -60 0 0 119 -54 0 0 118 -54 0 0 117 -11 0 0 116 -8 0 0 39 -53 0 0 113 3 0 0 46 31 0 0 111 -6 0 0 45 -2 0 0 172 -51 0 0 171 -39 0 0 103 21 0 0 101 -5 0 0 100 -1 0 0 44 35 0 0 99 -3 0 0 98 9 0 0 97 22 0 0 89 -31 0 0 87 -82 0 0 86 -87 0 0 85 -40 0 0 84 -31 0 0 81 -34 0 0 79 -35 0 0 71 -31 0 0 67 -34 0 0
Ligature: 0 0 'liga' A acutecomb
EndChar
StartChar: Agrave
Encoding: 258 192 152
Width: 759
Flags: W
HStem: 0 55<444 469.92> 218 67<229 452> 717 20G<351 427>
DStem: 330 524 427 737 427 285 684 117 351 737 330 524 124 207 229 285
Fore
351 737 m 1
 427 737 l 1
 684 117 l 2
 705 66 721 56 778 54 c 1
 778 0 l 1
 427 0 l 1
 427 54 l 1
 444 55 l 2
 489 55 502 61 502 79 c 0
 502 87 498 102 490 120 c 1
 452 218 l 1
 203 218 l 1
 187 180 l 1
 174 151 171 140 171 123 c 0
 171 77 199 58 271 54 c 1
 271 0 l 1
 -18 0 l 1
 -18 54 l 1
 41 60 78 99 124 207 c 2
 351 737 l 1
330 524 m 1
 229 285 l 1
 427 285 l 1
 330 524 l 1
456 790 m 1
 392 790 l 1
 245 877 l 2
 221 891 209 909 209 929 c 0
 209 957 234 979 266 979 c 0
 283 979 299 973 314 961 c 0
 320 957 320 957 343 928 c 2
 456 790 l 1
EndSplineSet
KernsSLIF: 46 31 0 0 44 35 0 0 89 -31 0 0 87 -82 0 0 86 -87 0 0 85 -40 0 0 84 -31 0 0 81 -34 0 0 79 -35 0 0 71 -31 0 0 67 -34 0 0
Ligature: 0 0 'liga' A gravecomb
EndChar
StartChar: Acircumflex
Encoding: 259 194 153
Width: 759
Flags: W
HStem: 0 55<444 469.92> 218 67<229 452> 717 20G<351 427>
DStem: 330 524 427 737 427 285 684 117 351 737 330 524 124 207 229 285
Fore
351 737 m 1
 427 737 l 1
 684 117 l 2
 705 66 721 56 778 54 c 1
 778 0 l 1
 427 0 l 1
 427 54 l 1
 444 55 l 2
 489 55 502 61 502 79 c 0
 502 87 498 102 490 120 c 1
 452 218 l 1
 203 218 l 1
 187 180 l 1
 174 151 171 140 171 123 c 0
 171 77 199 58 271 54 c 1
 271 0 l 1
 -18 0 l 1
 -18 54 l 1
 41 60 78 99 124 207 c 2
 351 737 l 1
330 524 m 1
 229 285 l 1
 427 285 l 1
 330 524 l 1
216 790 m 1
 337 968 l 1
 446 968 l 1
 567 790 l 1
 500 790 l 1
 392 883 l 1
 283 790 l 1
 216 790 l 1
EndSplineSet
KernsSLIF: 46 31 0 0 44 35 0 0 89 -31 0 0 87 -82 0 0 86 -87 0 0 85 -40 0 0 84 -31 0 0 81 -34 0 0 79 -35 0 0 71 -31 0 0 67 -34 0 0
Ligature: 0 0 'liga' A uni0302
EndChar
StartChar: Abreve
Encoding: 260 258 154
Width: 759
Flags: W
HStem: 0 55<444 469.92> 218 67<229 452> 717 20G<351 427> 790 85<381 399>
DStem: 330 524 427 737 427 285 684 117 351 737 330 524 124 207 229 285
Fore
351 737 m 1
 427 737 l 1
 684 117 l 2
 705 66 721 56 778 54 c 1
 778 0 l 1
 427 0 l 1
 427 54 l 1
 444 55 l 2
 489 55 502 61 502 79 c 0
 502 87 498 102 490 120 c 1
 452 218 l 1
 203 218 l 1
 187 180 l 1
 174 151 171 140 171 123 c 0
 171 77 199 58 271 54 c 1
 271 0 l 1
 -18 0 l 1
 -18 54 l 1
 41 60 78 99 124 207 c 2
 351 737 l 1
330 524 m 1
 229 285 l 1
 427 285 l 1
 330 524 l 1
232 957 m 1
 285 957 l 1
 292 902 326 875 390 875 c 0
 453 875 487 902 494 957 c 1
 547 957 l 1
 547 852 489 790 389 790 c 0
 289 790 232 851 232 957 c 1
EndSplineSet
Ligature: 0 0 'liga' A uni0306
EndChar
StartChar: Atilde
Encoding: 261 195 155
Width: 759
Flags: W
HStem: 0 55<444 469.92> 218 67<229 452> 717 20G<351 427> 797 85<458 489> 851 85<297 322>
DStem: 330 524 427 737 427 285 684 117 351 737 330 524 124 207 229 285
Fore
351 737 m 1xe0
 427 737 l 1
 684 117 l 2
 705 66 721 56 778 54 c 1
 778 0 l 1
 427 0 l 1
 427 54 l 1
 444 55 l 2
 489 55 502 61 502 79 c 0
 502 87 498 102 490 120 c 1
 452 218 l 1
 203 218 l 1
 187 180 l 1
 174 151 171 140 171 123 c 0
 171 77 199 58 271 54 c 1
 271 0 l 1
 -18 0 l 1
 -18 54 l 1
 41 60 78 99 124 207 c 2
 351 737 l 1xe0
330 524 m 1
 229 285 l 1
 427 285 l 1
 330 524 l 1
535 932 m 1
 584 932 l 1
 580 898 571 874 550 847 c 0
 523 811 497 797 458 797 c 0xf0
 425 797 410 802 357 830 c 0
 334 843 310 851 297 851 c 0
 278 851 262 833 253 801 c 1
 203 801 l 1
 215 880 265 936 322 936 c 0xe8
 349 936 366 931 418 906 c 0
 452 890 474 882 489 882 c 0xf0
 510 882 521 894 535 932 c 1
EndSplineSet
KernsSLIF: 46 31 0 0 44 35 0 0 89 -31 0 0 87 -82 0 0 86 -87 0 0 85 -40 0 0 84 -31 0 0 81 -34 0 0 79 -35 0 0 71 -31 0 0 67 -34 0 0
Ligature: 0 0 'liga' A tildecomb
EndChar
StartChar: Aring
Encoding: 262 197 156
Width: 759
Flags: W
HStem: 0 55<444 469.92> 218 67<229 452> 717 20G<351 427> 775 52<381 390> 938 52<387 389>
VStem: 279 55<879 885> 439 55<883 885>
DStem: 330 524 427 737 427 285 684 117 351 737 330 524 124 207 229 285
Fore
351 737 m 1
 427 737 l 1
 684 117 l 2
 705 66 721 56 778 54 c 1
 778 0 l 1
 427 0 l 1
 427 54 l 1
 444 55 l 2
 489 55 502 61 502 79 c 0
 502 87 498 102 490 120 c 1
 452 218 l 1
 203 218 l 1
 187 180 l 1
 174 151 171 140 171 123 c 0
 171 77 199 58 271 54 c 1
 271 0 l 1
 -18 0 l 1
 -18 54 l 1
 41 60 78 99 124 207 c 2
 351 737 l 1
330 524 m 1
 229 285 l 1
 427 285 l 1
 330 524 l 1
387 990 m 0
 446 990 494 942 494 883 c 0
 494 823 446 775 385 775 c 0
 328 775 279 824 279 883 c 0
 279 941 328 990 387 990 c 0
387 938 m 0
 358 938 334 913 334 882 c 0
 334 853 358 827 386 827 c 0
 415 827 439 852 439 883 c 0
 439 913 415 938 387 938 c 0
EndSplineSet
KernsSLIF: 121 -60 0 0 119 -54 0 0 118 -54 0 0 117 -11 0 0 116 -8 0 0 39 -53 0 0 186 -53 0 0 113 3 0 0 46 31 0 0 111 -6 0 0 45 -2 0 0 172 -51 0 0 171 -39 0 0 103 21 0 0 101 -5 0 0 100 -1 0 0 44 35 0 0 99 -3 0 0 98 9 0 0 97 22 0 0 89 -31 0 0 87 -82 0 0 86 -87 0 0 85 -40 0 0 84 -31 0 0 81 -34 0 0 79 -35 0 0 71 -31 0 0 67 -34 0 0
Ligature: 0 0 'liga' A uni030A
EndChar
StartChar: Aogonek
Encoding: 263 260 157
Width: 759
Flags: W
HStem: -170 75<744 778> 0 55<444 469.92> 218 67<229 452> 717 20G<351 427>
VStem: 668 80<-89 -59>
DStem: 330 524 427 737 427 285 684 117 351 737 330 524 124 207 229 285
Fore
351 737 m 1
 427 737 l 1
 684 117 l 2
 705 66 721 56 778 54 c 1
 778 0 l 1
 755 -24 748 -37 748 -59 c 0
 748 -82 759 -95 778 -95 c 0
 795 -95 809 -89 827 -73 c 1
 846 -105 l 1
 820 -148 785 -170 744 -170 c 0
 698 -170 668 -138 668 -89 c 0
 668 -53 679 -29 710 0 c 1
 427 0 l 1
 427 54 l 1
 444 55 l 2
 489 55 502 61 502 79 c 0
 502 87 498 102 490 120 c 1
 452 218 l 1
 203 218 l 1
 187 180 l 1
 174 151 171 140 171 123 c 0
 171 77 199 58 271 54 c 1
 271 0 l 1
 -18 0 l 1
 -18 54 l 1
 41 60 78 99 124 207 c 2
 351 737 l 1
330 524 m 1
 229 285 l 1
 427 285 l 1
 330 524 l 1
EndSplineSet
Ligature: 0 0 'liga' A uni0328
EndChar
StartChar: Ccedilla
Encoding: 264 199 158
Width: 778
Flags: W
HStem: -224 47<369 385> -104 152<379 439> 685 52<407 443>
VStem: 40 199<335 385> 420 104<-145 -132>
DStem: 378 -14 422 -15 337 -100 400 -63
Fore
422 -15 m 1
 400 -63 l 1
 421 -59 430 -58 441 -58 c 0
 488 -58 524 -90 524 -134 c 0
 524 -187 467 -224 385 -224 c 0
 350 -224 321 -218 290 -205 c 1
 307 -160 l 1
 336 -173 351 -177 371 -177 c 0
 401 -177 420 -162 420 -138 c 0
 420 -117 404 -104 379 -104 c 0
 370 -104 365 -105 355 -110 c 1
 337 -100 l 1
 378 -14 l 1
 286 -8 227 14 172 60 c 0
 84 133 40 231 40 352 c 0
 40 461 73 550 141 622 c 0
 213 699 306 737 418 737 c 0
 489 737 535 724 601 684 c 1
 655 733 l 1
 698 733 l 1
 708 447 l 1
 655 441 l 1
 610 608 537 685 426 685 c 0
 303 685 239 577 239 371 c 0
 239 151 303 48 439 48 c 0
 554 48 635 127 661 265 c 1
 723 250 l 1
 689 79 590 -9 422 -15 c 1
EndSplineSet
KernsSLIF: 65 -28 0 0
Ligature: 0 0 'liga' C uni0327
EndChar
StartChar: Cacute
Encoding: 265 262 159
Width: 778
Flags: W
HStem: -15 62<406 439> 685 52<406 443>
VStem: 40 199<336 372>
Fore
698 733 m 1
 708 447 l 1
 655 441 l 1
 610 608 537 685 426 685 c 0
 303 685 239 577 239 370 c 0
 239 150 303 47 439 47 c 0
 554 47 634 126 661 265 c 1
 723 250 l 1
 685 71 583 -15 406 -15 c 0
 289 -15 204 19 135 95 c 0
 71 166 40 248 40 352 c 0
 40 576 198 737 418 737 c 0
 489 737 535 724 601 684 c 1
 655 733 l 1
 698 733 l 1
327 790 m 1
 440 928 l 2
 475 971 487 979 517 979 c 0
 549 979 574 957 574 929 c 0
 574 908 562 891 538 877 c 2
 391 790 l 1
 327 790 l 1
EndSplineSet
Ligature: 0 0 'liga' C acutecomb
EndChar
StartChar: Ccaron
Encoding: 266 268 160
Width: 778
Flags: W
HStem: -15 62<406 439> 685 52<406 441>
VStem: 40 199<336 372>
Fore
698 733 m 1
 708 447 l 1
 655 441 l 1
 610 608 537 685 426 685 c 0
 303 685 239 577 239 370 c 0
 239 150 303 47 439 47 c 0
 554 47 634 126 661 265 c 1
 723 250 l 1
 685 71 583 -15 406 -15 c 0
 289 -15 204 19 135 95 c 0
 71 166 40 248 40 352 c 0
 40 576 198 737 418 737 c 0
 489 737 535 724 601 684 c 1
 655 733 l 1
 698 733 l 1
586 967 m 1
 465 789 l 1
 356 789 l 1
 235 967 l 1
 302 967 l 1
 410 874 l 1
 519 967 l 1
 586 967 l 1
EndSplineSet
Ligature: 0 0 'liga' C uni030C
EndChar
StartChar: Dcaron
Encoding: 267 270 161
Width: 833
Flags: W
HStem: 0 54<19 404> 668 54<19 68 19 404>
VStem: 123 180<95.5441 625> 594 199<335 401>
Fore
123 144 m 2
 123 578 l 2
 123 641 123 645 116 653 c 0
 107 664 86 668 34 668 c 2
 19 668 l 1
 19 722 l 1
 375 722 l 2
 516 722 590 708 650 668 c 0
 744 607 793 503 793 369 c 0
 793 232 744 123 655 61 c 0
 593 18 513 0 387 0 c 2
 19 0 l 1
 19 54 l 1
 34 54 l 2
 86 54 107 58 116 69 c 0
 123 77 123 81 123 144 c 2
363 54 m 2
 384 54 l 2
 451 54 510 79 540 122 c 0
 573 167 594 264 594 371 c 0
 594 571 527 668 388 668 c 2
 363 668 l 2
 315 668 303 656 303 608 c 2
 303 119 l 2
 303 66 314 54 363 54 c 2
593 967 m 1
 472 789 l 1
 363 789 l 1
 242 967 l 1
 309 967 l 1
 417 874 l 1
 526 967 l 1
 593 967 l 1
EndSplineSet
Ligature: 0 0 'liga' D uni030C
EndChar
StartChar: Edieresis
Encoding: 268 203 162
Width: 759
Flags: W
HStem: 0 54<16 695> 462 260<16 693> 668 54<16 65 16 433> 797 141<271 289 492 497>
VStem: 120 180<111 346 144 609> 209 141<868 870> 424 141<868 870>
Fore
687 722 m 1xda
 693 462 l 1
 641 462 l 1xda
 626 514 604 564 583 594 c 0
 549 641 488 668 414 668 c 2
 386 668 l 2
 345 668 321 661 310 646 c 0
 302 634 300 623 300 582 c 2
 300 401 l 1
 317 401 l 2
 395 401 444 451 455 543 c 1
 509 543 l 1
 509 204 l 1
 455 204 l 1
 444 296 395 346 317 346 c 2
 300 346 l 1
 300 124 l 2
 300 91 303 80 316 68 c 0
 328 56 341 54 390 54 c 2
 420 54 l 2
 541 54 612 119 654 269 c 1
 707 269 l 1
 695 0 l 1
 16 0 l 1
 16 54 l 1
 31 54 l 2
 83 54 104 58 113 69 c 0
 120 77 120 81 120 144 c 2
 120 578 l 2
 120 641 120 645 113 653 c 0
 104 664 83 668 31 668 c 2
 16 668 l 1xba
 16 722 l 1
 687 722 l 1xda
280 938 m 0
 318 938 350 906 350 868 c 0
 350 828 318 797 279 797 c 0
 241 797 209 829 209 868 c 0x96
 209 906 241 938 280 938 c 0
495 938 m 0
 533 938 565 906 565 868 c 0
 565 828 533 797 494 797 c 0
 456 797 424 829 424 868 c 0
 424 906 456 938 495 938 c 0
EndSplineSet
Ligature: 0 0 'liga' E uni0308
EndChar
StartChar: Eacute
Encoding: 269 201 163
Width: 759
Flags: W
HStem: 0 54<16 695> 462 260<16 693> 668 54<16 65 16 432>
VStem: 120 180<111 346 144 609>
Fore
687 722 m 1xd0
 693 462 l 1
 641 462 l 1xd0
 626 514 604 564 583 594 c 0
 549 641 488 668 414 668 c 2
 386 668 l 2
 345 668 321 661 310 646 c 0
 302 634 300 623 300 582 c 2
 300 401 l 1
 317 401 l 2
 395 401 444 451 455 543 c 1
 509 543 l 1
 509 204 l 1
 455 204 l 1
 444 296 395 346 317 346 c 2
 300 346 l 1
 300 124 l 2
 300 91 303 80 316 68 c 0
 328 56 341 54 390 54 c 2
 420 54 l 2
 541 54 612 119 654 269 c 1
 707 269 l 1
 695 0 l 1
 16 0 l 1
 16 54 l 1
 31 54 l 2
 83 54 104 58 113 69 c 0
 120 77 120 81 120 144 c 2
 120 578 l 2
 120 641 120 645 113 653 c 0
 104 664 83 668 31 668 c 2
 16 668 l 1xb0
 16 722 l 1
 687 722 l 1xd0
317 790 m 1
 430 928 l 2
 465 971 477 979 507 979 c 0
 539 979 564 957 564 929 c 0
 564 908 552 891 528 877 c 2
 381 790 l 1
 317 790 l 1
EndSplineSet
Ligature: 0 0 'liga' E acutecomb
EndChar
StartChar: Egrave
Encoding: 270 200 164
Width: 759
Flags: W
HStem: 0 54<16 695> 462 260<16 693> 668 54<16 65 16 433>
VStem: 120 180<111 346 144 609>
Fore
687 722 m 1xd0
 693 462 l 1
 641 462 l 1xd0
 626 514 604 564 583 594 c 0
 549 641 488 668 414 668 c 2
 386 668 l 2
 345 668 321 661 310 646 c 0
 302 634 300 623 300 582 c 2
 300 401 l 1
 317 401 l 2
 395 401 444 451 455 543 c 1
 509 543 l 1
 509 204 l 1
 455 204 l 1
 444 296 395 346 317 346 c 2
 300 346 l 1
 300 124 l 2
 300 91 303 80 316 68 c 0
 328 56 341 54 390 54 c 2
 420 54 l 2
 541 54 612 119 654 269 c 1
 707 269 l 1
 695 0 l 1
 16 0 l 1
 16 54 l 1
 31 54 l 2
 83 54 104 58 113 69 c 0
 120 77 120 81 120 144 c 2
 120 578 l 2
 120 641 120 645 113 653 c 0
 104 664 83 668 31 668 c 2
 16 668 l 1xb0
 16 722 l 1
 687 722 l 1xd0
470 790 m 1
 406 790 l 1
 259 877 l 2
 235 891 223 909 223 929 c 0
 223 957 248 979 280 979 c 0
 297 979 313 973 328 961 c 0
 334 957 334 957 357 928 c 2
 470 790 l 1
EndSplineSet
Ligature: 0 0 'liga' E gravecomb
EndChar
StartChar: Ecircumflex
Encoding: 271 202 165
Width: 759
Flags: W
HStem: 0 54<16 695> 462 260<16 693> 668 54<16 65 16 433>
VStem: 120 180<111 346 144 609>
Fore
687 722 m 1xd0
 693 462 l 1
 641 462 l 1xd0
 626 514 604 564 583 594 c 0
 549 641 488 668 414 668 c 2
 386 668 l 2
 345 668 321 661 310 646 c 0
 302 634 300 623 300 582 c 2
 300 401 l 1
 317 401 l 2
 395 401 444 451 455 543 c 1
 509 543 l 1
 509 204 l 1
 455 204 l 1
 444 296 395 346 317 346 c 2
 300 346 l 1
 300 124 l 2
 300 91 303 80 316 68 c 0
 328 56 341 54 390 54 c 2
 420 54 l 2
 541 54 612 119 654 269 c 1
 707 269 l 1
 695 0 l 1
 16 0 l 1
 16 54 l 1
 31 54 l 2
 83 54 104 58 113 69 c 0
 120 77 120 81 120 144 c 2
 120 578 l 2
 120 641 120 645 113 653 c 0
 104 664 83 668 31 668 c 2
 16 668 l 1xb0
 16 722 l 1
 687 722 l 1xd0
212 790 m 1
 333 968 l 1
 442 968 l 1
 563 790 l 1
 496 790 l 1
 388 883 l 1
 279 790 l 1
 212 790 l 1
EndSplineSet
Ligature: 0 0 'liga' E uni0302
EndChar
StartChar: Ecaron
Encoding: 272 282 166
Width: 759
Flags: W
HStem: 0 54<16 695> 462 260<16 693> 668 54<16 65 16 437>
VStem: 120 180<111 346 144 609>
Fore
687 722 m 1xd0
 693 462 l 1
 641 462 l 1xd0
 626 514 604 564 583 594 c 0
 549 641 488 668 414 668 c 2
 386 668 l 2
 345 668 321 661 310 646 c 0
 302 634 300 623 300 582 c 2
 300 401 l 1
 317 401 l 2
 395 401 444 451 455 543 c 1
 509 543 l 1
 509 204 l 1
 455 204 l 1
 444 296 395 346 317 346 c 2
 300 346 l 1
 300 124 l 2
 300 91 303 80 316 68 c 0
 328 56 341 54 390 54 c 2
 420 54 l 2
 541 54 612 119 654 269 c 1
 707 269 l 1
 695 0 l 1
 16 0 l 1
 16 54 l 1
 31 54 l 2
 83 54 104 58 113 69 c 0
 120 77 120 81 120 144 c 2
 120 578 l 2
 120 641 120 645 113 653 c 0
 104 664 83 668 31 668 c 2
 16 668 l 1xb0
 16 722 l 1
 687 722 l 1xd0
556 967 m 1
 435 789 l 1
 326 789 l 1
 205 967 l 1
 272 967 l 1
 380 874 l 1
 489 967 l 1
 556 967 l 1
EndSplineSet
Ligature: 0 0 'liga' E uni030C
EndChar
StartChar: Edotaccent
Encoding: 273 278 167
Width: 759
Flags: W
HStem: 0 54<16 695> 462 260<16 693> 668 54<16 65 16 433> 797 141<377 391>
VStem: 120 180<111 346 144 609> 309 141<868 870>
Fore
687 722 m 1xdc
 693 462 l 1
 641 462 l 1xdc
 626 514 604 564 583 594 c 0
 549 641 488 668 414 668 c 2
 386 668 l 2
 345 668 321 661 310 646 c 0
 302 634 300 623 300 582 c 2
 300 401 l 1
 317 401 l 2
 395 401 444 451 455 543 c 1
 509 543 l 1
 509 204 l 1
 455 204 l 1
 444 296 395 346 317 346 c 2
 300 346 l 1
 300 124 l 2
 300 91 303 80 316 68 c 0
 328 56 341 54 390 54 c 2
 420 54 l 2
 541 54 612 119 654 269 c 1
 707 269 l 1
 695 0 l 1
 16 0 l 1
 16 54 l 1
 31 54 l 2
 83 54 104 58 113 69 c 0
 120 77 120 81 120 144 c 2
 120 578 l 2
 120 641 120 645 113 653 c 0
 104 664 83 668 31 668 c 2
 16 668 l 1xbc
 16 722 l 1
 687 722 l 1xdc
380 938 m 0
 418 938 450 906 450 868 c 0
 450 828 418 797 379 797 c 0
 341 797 309 829 309 868 c 0
 309 906 341 938 380 938 c 0
EndSplineSet
Ligature: 0 0 'liga' E uni0307
EndChar
StartChar: Eogonek
Encoding: 274 280 168
Width: 759
Flags: W
HStem: -170 75<661 695> 0 54<16 628> 462 260<16 693> 668 54<16 65 16 433>
VStem: 120 180<101 346 144 615> 585 80<-89 -59>
Fore
707 269 m 1xdc
 695 0 l 1
 671 -25 665 -37 665 -59 c 0
 665 -82 676 -95 695 -95 c 0
 712 -95 726 -89 744 -73 c 1
 763 -105 l 1
 737 -148 702 -170 661 -170 c 0
 615 -170 585 -138 585 -89 c 0
 585 -53 597 -29 628 0 c 1
 16 0 l 1
 16 54 l 1
 31 54 l 2
 83 54 104 58 113 68 c 0
 120 77 120 80 120 144 c 2
 120 578 l 2
 120 641 120 645 113 653 c 0
 104 664 83 668 31 668 c 2
 16 668 l 1xdc
 16 722 l 1
 687 722 l 1
 693 462 l 1
 641 462 l 1xec
 626 514 604 564 583 594 c 0
 549 641 488 668 414 668 c 2
 386 668 l 2
 345 668 321 661 310 646 c 0
 302 634 300 623 300 582 c 2
 300 401 l 1
 317 401 l 2
 395 401 444 451 455 543 c 1
 509 543 l 1
 509 204 l 1
 455 204 l 1
 444 296 395 346 317 346 c 2
 300 346 l 1
 300 124 l 2
 300 91 303 80 316 68 c 0
 328 56 341 54 390 54 c 2
 420 54 l 2
 541 54 612 119 654 269 c 1
 707 269 l 1xdc
EndSplineSet
Ligature: 0 0 'liga' E uni0328
EndChar
StartChar: Gbreve
Encoding: 275 286 169
Width: 833
Flags: W
HStem: -15 52<388 416> 282 54<462 504 462 817> 685 52<417 456> 790 85<406 437>
VStem: 39 200<320 370> 564 164<192 226>
Fore
719 733 m 1
 728 446 l 1
 675 446 l 1
 642 598 555 685 437 685 c 0
 378 685 325 657 296 610 c 0
 259 550 239 462 239 356 c 0
 239 262 253 181 280 123 c 0
 305 69 355 37 416 37 c 0
 505 37 564 98 564 192 c 2
 564 206 l 2
 564 279 560 282 473 282 c 2
 462 282 l 1
 462 336 l 1
 817 336 l 1
 817 282 l 1
 760 281 744 278 735 268 c 0
 728 260 728 255 728 192 c 2
 728 -14 l 1
 675 -14 l 1
 626 84 l 1
 597 54 581 41 556 26 c 0
 510 0 449 -15 388 -15 c 0
 181 -15 39 134 39 350 c 0
 39 460 70 544 138 616 c 0
 212 696 310 737 425 737 c 0
 497 737 546 723 616 683 c 1
 675 733 l 1
 719 733 l 1
259 957 m 1
 312 957 l 1
 319 902 353 875 417 875 c 0
 480 875 514 902 521 957 c 1
 574 957 l 1
 574 852 516 790 416 790 c 0
 316 790 259 851 259 957 c 1
EndSplineSet
Ligature: 0 0 'liga' G uni0306
EndChar
StartChar: Idieresis
Encoding: 276 207 170
Width: 444
Flags: W
HStem: 0 54<28 417> 668 54<28 77 28 417> 797 141<107 127 319 333>
VStem: 45 141<868 870> 132 180<144 625> 260 141<868 870>
Fore
132 144 m 2xe8
 132 578 l 2
 132 641 132 645 125 653 c 0
 116 664 95 668 43 668 c 2
 28 668 l 1
 28 722 l 1
 417 722 l 1
 417 668 l 1
 402 668 l 2
 350 668 328 664 319 653 c 0
 312 645 312 642 312 578 c 2
 312 144 l 2
 312 80 312 77 319 69 c 0
 328 58 350 54 402 54 c 2
 417 54 l 1
 417 0 l 1
 28 0 l 1
 28 54 l 1
 43 54 l 2
 95 54 116 58 125 69 c 0
 132 77 132 81 132 144 c 2xe8
116 938 m 0
 154 938 186 906 186 868 c 0
 186 828 154 797 115 797 c 0
 77 797 45 829 45 868 c 0xf0
 45 906 77 938 116 938 c 0
331 938 m 0
 369 938 401 906 401 868 c 0
 401 828 369 797 330 797 c 0
 292 797 260 829 260 868 c 0xe4
 260 906 292 938 331 938 c 0
EndSplineSet
Ligature: 0 0 'liga' I uni0308
EndChar
StartChar: Iacute
Encoding: 277 205 171
Width: 444
Flags: W
HStem: 0 54<28 417> 668 54<28 77 28 417>
VStem: 132 180<144 625>
Fore
132 144 m 2
 132 578 l 2
 132 641 132 645 125 653 c 0
 116 664 95 668 43 668 c 2
 28 668 l 1
 28 722 l 1
 417 722 l 1
 417 668 l 1
 402 668 l 2
 350 668 328 664 319 653 c 0
 312 645 312 642 312 578 c 2
 312 144 l 2
 312 80 312 77 319 69 c 0
 328 58 350 54 402 54 c 2
 417 54 l 1
 417 0 l 1
 28 0 l 1
 28 54 l 1
 43 54 l 2
 95 54 116 58 125 69 c 0
 132 77 132 81 132 144 c 2
140 790 m 1
 253 928 l 2
 288 971 300 979 330 979 c 0
 362 979 387 957 387 929 c 0
 387 908 375 891 351 877 c 2
 204 790 l 1
 140 790 l 1
EndSplineSet
Ligature: 0 0 'liga' I acutecomb
EndChar
StartChar: Igrave
Encoding: 278 204 172
Width: 444
Flags: W
HStem: 0 54<28 417> 668 54<28 77 28 417>
VStem: 132 180<144 625>
Fore
132 144 m 2
 132 578 l 2
 132 641 132 645 125 653 c 0
 116 664 95 668 43 668 c 2
 28 668 l 1
 28 722 l 1
 417 722 l 1
 417 668 l 1
 402 668 l 2
 350 668 328 664 319 653 c 0
 312 645 312 642 312 578 c 2
 312 144 l 2
 312 80 312 77 319 69 c 0
 328 58 350 54 402 54 c 2
 417 54 l 1
 417 0 l 1
 28 0 l 1
 28 54 l 1
 43 54 l 2
 95 54 116 58 125 69 c 0
 132 77 132 81 132 144 c 2
298 790 m 1
 234 790 l 1
 87 877 l 2
 63 891 51 909 51 929 c 0
 51 957 76 979 108 979 c 0
 125 979 141 973 156 961 c 0
 162 957 162 957 185 928 c 2
 298 790 l 1
EndSplineSet
Ligature: 0 0 'liga' I gravecomb
EndChar
StartChar: Icircumflex
Encoding: 279 206 173
Width: 444
Flags: W
HStem: 0 54<28 417> 668 54<28 77 28 417>
VStem: 132 180<144 625>
Fore
132 144 m 2
 132 578 l 2
 132 641 132 645 125 653 c 0
 116 664 95 668 43 668 c 2
 28 668 l 1
 28 722 l 1
 417 722 l 1
 417 668 l 1
 402 668 l 2
 350 668 328 664 319 653 c 0
 312 645 312 642 312 578 c 2
 312 144 l 2
 312 80 312 77 319 69 c 0
 328 58 350 54 402 54 c 2
 417 54 l 1
 417 0 l 1
 28 0 l 1
 28 54 l 1
 43 54 l 2
 95 54 116 58 125 69 c 0
 132 77 132 81 132 144 c 2
48 790 m 1
 169 968 l 1
 278 968 l 1
 399 790 l 1
 332 790 l 1
 224 883 l 1
 115 790 l 1
 48 790 l 1
EndSplineSet
Ligature: 0 0 'liga' I uni0302
EndChar
StartChar: Idotaccent
Encoding: 280 304 174
Width: 444
Flags: W
HStem: 0 54<28 417> 668 54<28 77 28 417> 797 141<219 224>
VStem: 132 180<144 625> 151 141<868 870>
Fore
132 144 m 2xf0
 132 578 l 2
 132 641 132 645 125 653 c 0
 116 664 95 668 43 668 c 2
 28 668 l 1
 28 722 l 1
 417 722 l 1
 417 668 l 1
 402 668 l 2
 350 668 328 664 319 653 c 0
 312 645 312 642 312 578 c 2
 312 144 l 2
 312 80 312 77 319 69 c 0
 328 58 350 54 402 54 c 2
 417 54 l 1
 417 0 l 1
 28 0 l 1
 28 54 l 1
 43 54 l 2
 95 54 116 58 125 69 c 0
 132 77 132 81 132 144 c 2xf0
222 938 m 0
 260 938 292 906 292 868 c 0
 292 828 260 797 221 797 c 0
 183 797 151 829 151 868 c 0xe8
 151 906 183 938 222 938 c 0
EndSplineSet
Ligature: 0 0 'liga' I uni0307
EndChar
StartChar: Lacute
Encoding: 281 313 175
Width: 722
Flags: W
HStem: 0 54<19 689> 668 54<19 68 19 414>
VStem: 123 180<111 625>
Fore
648 269 m 1
 701 269 l 1
 689 0 l 1
 19 0 l 1
 19 54 l 1
 34 54 l 2
 86 54 107 58 116 69 c 0
 123 77 123 81 123 145 c 2
 123 578 l 2
 123 641 123 645 116 653 c 0
 107 664 86 668 34 668 c 2
 19 668 l 1
 19 722 l 1
 415 722 l 1
 415 668 l 1
 393 668 l 2
 340 668 319 664 310 653 c 0
 303 645 303 641 303 578 c 2
 303 124 l 2
 303 91 306 80 319 68 c 0
 331 56 344 54 393 54 c 2
 414 54 l 2
 485 54 542 80 583 129 c 0
 610 162 628 200 648 269 c 1
279 790 m 1
 392 928 l 2
 427 971 439 979 469 979 c 0
 501 979 526 957 526 929 c 0
 526 908 514 891 490 877 c 2
 343 790 l 1
 279 790 l 1
EndSplineSet
Ligature: 0 0 'liga' L acutecomb
EndChar
StartChar: Lcaron
Encoding: 282 317 176
Width: 722
Flags: W
HStem: 0 54<19 689> 571 166<586 601> 668 54<19 68 19 414>
VStem: 123 180<111 631> 513 177<629 648>
Fore
648 269 m 1xb8
 701 269 l 1
 689 0 l 1
 19 0 l 1
 19 54 l 1
 34 54 l 2
 86 54 107 58 116 69 c 0
 123 77 123 81 123 145 c 2
 123 578 l 2
 123 641 123 645 116 653 c 0
 107 664 86 668 34 668 c 2
 19 668 l 1
 19 722 l 1
 415 722 l 1
 415 668 l 1
 393 668 l 2
 340 668 319 664 310 653 c 0
 303 645 303 641 303 578 c 2
 303 124 l 2
 303 91 306 80 319 68 c 0
 331 56 344 54 393 54 c 2
 414 54 l 2
 485 54 542 80 583 129 c 0
 610 162 628 200 648 269 c 1xb8
538 415 m 1
 514 451 l 1
 569 489 603 533 603 567 c 0
 603 570 602 572 599 572 c 2
 596 572 l 2
 593 571 591 571 588 571 c 0
 546 571 513 605 513 648 c 0
 513 698 551 737 599 737 c 0xd8
 653 737 690 693 690 629 c 0
 690 549 639 477 538 415 c 1
EndSplineSet
Ligature: 0 0 'liga' L uni030C
EndChar
StartChar: Nacute
Encoding: 283 323 177
Width: 833
Flags: W
HStem: -7 21G<656 723> 702 20G<18 270 548 833>
VStem: 124 67<217 546> 656 67<270 554>
DStem: 191 546 270 722 656 -7 656 270
Fore
270 722 m 1
 656 270 l 1
 656 505 l 2
 656 593 651 619 630 641 c 0
 614 658 587 667 548 668 c 1
 548 722 l 1
 833 722 l 1
 833 668 l 1
 793 667 765 658 749 641 c 0
 728 619 723 594 723 505 c 2
 723 -7 l 1
 656 -7 l 1
 191 546 l 1
 191 217 l 2
 191 129 196 104 217 82 c 0
 233 65 258 57 301 55 c 1
 301 0 l 1
 16 0 l 1
 16 55 l 1
 59 57 82 65 98 82 c 0
 119 104 124 129 124 217 c 2
 124 611 l 1
 99 647 63 666 18 667 c 1
 18 722 l 1
 270 722 l 1
334 790 m 1
 447 928 l 2
 482 971 494 979 524 979 c 0
 556 979 581 957 581 929 c 0
 581 908 569 891 545 877 c 2
 398 790 l 1
 334 790 l 1
EndSplineSet
LCarets: 0 65535 '    ' 1 0 
Ligature: 0 0 'liga' N acutecomb
EndChar
StartChar: Ncaron
Encoding: 284 327 178
Width: 833
Flags: W
HStem: -7 21G<656 723> 702 20G<18 270 548 833>
VStem: 124 67<217 546> 656 67<270 554>
DStem: 191 546 270 722 656 -7 656 270
Fore
270 722 m 1
 656 270 l 1
 656 505 l 2
 656 593 651 619 630 641 c 0
 614 658 587 667 548 668 c 1
 548 722 l 1
 833 722 l 1
 833 668 l 1
 793 667 765 658 749 641 c 0
 728 619 723 594 723 505 c 2
 723 -7 l 1
 656 -7 l 1
 191 546 l 1
 191 217 l 2
 191 129 196 104 217 82 c 0
 233 65 258 57 301 55 c 1
 301 0 l 1
 16 0 l 1
 16 55 l 1
 59 57 82 65 98 82 c 0
 119 104 124 129 124 217 c 2
 124 611 l 1
 99 647 63 666 18 667 c 1
 18 722 l 1
 270 722 l 1
593 967 m 1
 472 789 l 1
 363 789 l 1
 242 967 l 1
 309 967 l 1
 417 874 l 1
 526 967 l 1
 593 967 l 1
EndSplineSet
LCarets: 0 65535 '    ' 1 0 
Ligature: 0 0 'liga' N uni030C
EndChar
StartChar: Ntilde
Encoding: 285 209 179
Width: 833
Flags: W
HStem: -7 21G<656 723> 702 20G<18 270 548 833> 797 85<495 526> 851 85<334 359>
VStem: 124 67<217 546> 656 67<270 554>
DStem: 191 546 270 722 656 -7 656 270
Fore
270 722 m 1xcc
 656 270 l 1
 656 505 l 2
 656 593 651 619 630 641 c 0
 614 658 587 667 548 668 c 1
 548 722 l 1
 833 722 l 1
 833 668 l 1
 793 667 765 658 749 641 c 0
 728 619 723 594 723 505 c 2
 723 -7 l 1
 656 -7 l 1
 191 546 l 1
 191 217 l 2
 191 129 196 104 217 82 c 0
 233 65 258 57 301 55 c 1
 301 0 l 1
 16 0 l 1
 16 55 l 1
 59 57 82 65 98 82 c 0
 119 104 124 129 124 217 c 2
 124 611 l 1
 99 647 63 666 18 667 c 1
 18 722 l 1
 270 722 l 1xcc
572 932 m 1
 621 932 l 1
 617 898 608 874 587 847 c 0
 560 811 534 797 495 797 c 0xec
 462 797 447 802 394 830 c 0
 371 843 347 851 334 851 c 0
 315 851 299 833 290 801 c 1
 240 801 l 1
 252 880 302 936 359 936 c 0xdc
 386 936 403 931 455 906 c 0
 489 890 511 882 526 882 c 0xec
 547 882 558 894 572 932 c 1
EndSplineSet
LCarets: 0 65535 '    ' 1 0 
Ligature: 0 0 'liga' N tildecomb
EndChar
StartChar: Odieresis
Encoding: 286 214 180
Width: 833
Flags: W
HStem: -15 52<406 424> 685 52<406 424> 797 141<307 312 518 536>
VStem: 39 200<336 371> 239 141<868 870> 454 141<868 870> 594 200<336 371>
Fore
417 737 m 0xfa
 515 737 593 710 660 652 c 0
 743 581 794 467 794 351 c 0
 794 234 746 132 660 63 c 0
 593 10 514 -15 412 -15 c 0
 195 -15 39 138 39 350 c 0
 39 467 89 580 173 652 c 0
 238 709 320 737 417 737 c 0xfa
418 685 m 0
 359 685 319 663 290 614 c 0
 256 557 239 477 239 369 c 0
 239 264 257 176 290 114 c 0
 318 62 360 37 418 37 c 0
 532 37 594 147 594 350 c 0
 594 458 576 548 543 608 c 0
 514 659 472 685 418 685 c 0
310 938 m 0
 348 938 380 906 380 868 c 0
 380 828 348 797 309 797 c 0
 271 797 239 829 239 868 c 0
 239 906 271 938 310 938 c 0
525 938 m 0
 563 938 595 906 595 868 c 0
 595 828 563 797 524 797 c 0
 486 797 454 829 454 868 c 0xfc
 454 906 486 938 525 938 c 0
EndSplineSet
KernsSLIF: 89 -33 0 0 88 -32 0 0 87 -45 0 0 86 -35 0 0 84 7 0 0 65 -36 0 0
Ligature: 0 0 'liga' O uni0308
EndChar
StartChar: Oacute
Encoding: 287 211 181
Width: 833
Flags: W
HStem: -15 52<403 424> 685 52<403 424>
VStem: 39 200<336 371> 594 200<336 371>
Fore
417 737 m 0
 515 737 593 710 660 652 c 0
 743 581 794 467 794 351 c 0
 794 234 746 132 660 63 c 0
 593 10 514 -15 412 -15 c 0
 195 -15 39 138 39 350 c 0
 39 467 89 580 173 652 c 0
 238 709 320 737 417 737 c 0
418 685 m 0
 359 685 319 663 290 614 c 0
 256 557 239 477 239 369 c 0
 239 264 257 176 290 114 c 0
 318 62 360 37 418 37 c 0
 532 37 594 147 594 350 c 0
 594 458 576 548 543 608 c 0
 514 659 472 685 418 685 c 0
341 790 m 1
 454 928 l 2
 489 971 501 979 531 979 c 0
 563 979 588 957 588 929 c 0
 588 908 576 891 552 877 c 2
 405 790 l 1
 341 790 l 1
EndSplineSet
KernsSLIF: 89 -33 0 0 87 -45 0 0 86 -35 0 0 84 7 0 0 65 -36 0 0
Ligature: 0 0 'liga' O acutecomb
EndChar
StartChar: Ograve
Encoding: 288 210 182
Width: 833
Flags: W
HStem: -15 52<406 437> 685 52<406 435>
VStem: 39 200<336 371> 594 200<336 371>
Fore
417 737 m 0
 515 737 593 710 660 652 c 0
 743 581 794 467 794 351 c 0
 794 234 746 132 660 63 c 0
 593 10 514 -15 412 -15 c 0
 195 -15 39 138 39 350 c 0
 39 467 89 580 173 652 c 0
 238 709 320 737 417 737 c 0
418 685 m 0
 359 685 319 663 290 614 c 0
 256 557 239 477 239 369 c 0
 239 264 257 176 290 114 c 0
 318 62 360 37 418 37 c 0
 532 37 594 147 594 350 c 0
 594 458 576 548 543 608 c 0
 514 659 472 685 418 685 c 0
499 790 m 1
 435 790 l 1
 288 877 l 2
 264 891 252 909 252 929 c 0
 252 957 277 979 309 979 c 0
 326 979 342 973 357 961 c 0
 363 957 363 957 386 928 c 2
 499 790 l 1
EndSplineSet
KernsSLIF: 89 -33 0 0 86 -35 0 0 84 7 0 0
Ligature: 0 0 'liga' O gravecomb
EndChar
StartChar: Ocircumflex
Encoding: 289 212 183
Width: 833
Flags: W
HStem: -15 52<406 424> 685 52<406 424>
VStem: 39 200<336 371> 594 200<336 371>
Fore
417 737 m 0
 515 737 593 710 660 652 c 0
 743 581 794 467 794 351 c 0
 794 234 746 132 660 63 c 0
 593 10 514 -15 412 -15 c 0
 195 -15 39 138 39 350 c 0
 39 467 89 580 173 652 c 0
 238 709 320 737 417 737 c 0
418 685 m 0
 359 685 319 663 290 614 c 0
 256 557 239 477 239 369 c 0
 239 264 257 176 290 114 c 0
 318 62 360 37 418 37 c 0
 532 37 594 147 594 350 c 0
 594 458 576 548 543 608 c 0
 514 659 472 685 418 685 c 0
242 790 m 1
 363 968 l 1
 472 968 l 1
 593 790 l 1
 526 790 l 1
 418 883 l 1
 309 790 l 1
 242 790 l 1
EndSplineSet
KernsSLIF: 89 -33 0 0 86 -35 0 0 84 7 0 0
Ligature: 0 0 'liga' O uni0302
EndChar
StartChar: Otilde
Encoding: 290 213 184
Width: 833
Flags: W
HStem: -15 52<406 424> 685 52<406 424> 797 85<489 520> 851 85<328 353>
VStem: 39 200<336 371> 594 200<336 371>
Fore
417 737 m 0xcc
 515 737 593 710 660 652 c 0
 743 581 794 467 794 351 c 0
 794 234 746 132 660 63 c 0
 593 10 514 -15 412 -15 c 0
 195 -15 39 138 39 350 c 0
 39 467 89 580 173 652 c 0
 238 709 320 737 417 737 c 0xcc
418 685 m 0
 359 685 319 663 290 614 c 0
 256 557 239 477 239 369 c 0
 239 264 257 176 290 114 c 0
 318 62 360 37 418 37 c 0
 532 37 594 147 594 350 c 0
 594 458 576 548 543 608 c 0
 514 659 472 685 418 685 c 0
566 932 m 1
 615 932 l 1
 611 898 602 874 581 847 c 0
 554 811 528 797 489 797 c 0xec
 456 797 441 802 388 830 c 0
 365 843 341 851 328 851 c 0
 309 851 293 833 284 801 c 1
 234 801 l 1
 246 880 296 936 353 936 c 0xdc
 380 936 397 931 449 906 c 0
 483 890 505 882 520 882 c 0xec
 541 882 552 894 566 932 c 1
EndSplineSet
KernsSLIF: 89 -33 0 0 86 -35 0 0 84 7 0 0
Ligature: 0 0 'liga' O tildecomb
EndChar
StartChar: Ohungarumlaut
Encoding: 291 336 185
Width: 833
Flags: W
HStem: -15 52<406 424> 685 52<397 424>
VStem: 39 200<336 371> 594 200<336 371>
Fore
417 737 m 0
 515 737 593 710 660 652 c 0
 743 581 794 467 794 351 c 0
 794 234 746 132 660 63 c 0
 593 10 514 -15 412 -15 c 0
 195 -15 39 138 39 350 c 0
 39 467 89 580 173 652 c 0
 238 709 320 737 417 737 c 0
418 685 m 0
 359 685 319 663 290 614 c 0
 256 557 239 477 239 369 c 0
 239 264 257 176 290 114 c 0
 318 62 360 37 418 37 c 0
 532 37 594 147 594 350 c 0
 594 458 576 548 543 608 c 0
 514 659 472 685 418 685 c 0
343 790 m 1
 318 805 l 1
 337 902 l 2
 343 933 347 943 354 955 c 0
 363 969 379 978 396 978 c 0
 424 978 446 956 446 929 c 0
 446 909 437 889 420 871 c 2
 343 790 l 1
512 790 m 1
 487 805 l 1
 506 902 l 2
 512 933 516 943 523 955 c 0
 532 969 548 978 565 978 c 0
 593 978 615 956 615 929 c 0
 615 909 606 889 589 871 c 2
 512 790 l 1
EndSplineSet
Ligature: 0 0 'liga' O uni030B
EndChar
StartChar: Racute
Encoding: 292 340 186
Width: 815
Flags: W
HStem: 0 55<20 420> 347 55<304 377> 668 54<20 69 20 422>
VStem: 124 180<145 347 145 626> 534 191<528 546> 763 54<143 164>
Fore
304 347 m 1
 304 145 l 2
 304 81 304 78 311 69 c 0
 320 59 342 55 394 55 c 2
 420 55 l 1
 420 0 l 1
 20 0 l 1
 20 55 l 1
 35 55 l 2
 87 55 108 59 117 69 c 0
 124 78 124 81 124 145 c 2
 124 578 l 2
 124 642 124 645 117 654 c 0
 108 664 87 668 35 668 c 2
 20 668 l 1
 20 722 l 1
 447 722 l 2
 539 722 606 710 644 686 c 0
 696 652 725 601 725 541 c 0
 725 476 690 421 629 390 c 0
 604 378 578 371 525 361 c 1
 612 332 650 287 665 197 c 1
 672 159 l 1
 674 145 676 135 676 131 c 0
 681 99 682 92 688 84 c 0
 694 75 706 69 717 69 c 0
 747 69 762 101 763 164 c 1
 817 164 l 1
 817 152 l 2
 817 46 755 -15 647 -15 c 0
 560 -15 504 26 487 104 c 0
 484 120 479 162 473 229 c 0
 469 286 465 298 449 317 c 0
 431 337 403 347 360 347 c 2
 304 347 l 1
304 402 m 1
 359 402 l 2
 492 402 534 434 534 536 c 0
 534 627 492 668 399 668 c 2
 375 668 l 2
 311 668 304 661 304 604 c 2
 304 402 l 1
325 790 m 1
 438 928 l 2
 473 971 485 979 515 979 c 0
 547 979 572 957 572 929 c 0
 572 908 560 891 536 877 c 2
 389 790 l 1
 325 790 l 1
EndSplineSet
LCarets: 0 65535 '    ' 1 0 
Ligature: 0 0 'liga' R acutecomb
EndChar
StartChar: Rcaron
Encoding: 293 344 187
Width: 815
Flags: W
HStem: 0 55<20 420> 347 55<304 377> 668 54<20 69 20 422>
VStem: 124 180<145 347 145 626> 534 191<528 546> 763 54<143 164>
Fore
304 347 m 1
 304 145 l 2
 304 81 304 78 311 69 c 0
 320 59 342 55 394 55 c 2
 420 55 l 1
 420 0 l 1
 20 0 l 1
 20 55 l 1
 35 55 l 2
 87 55 108 59 117 69 c 0
 124 78 124 81 124 145 c 2
 124 578 l 2
 124 642 124 645 117 654 c 0
 108 664 87 668 35 668 c 2
 20 668 l 1
 20 722 l 1
 447 722 l 2
 539 722 606 710 644 686 c 0
 696 652 725 601 725 541 c 0
 725 476 690 421 629 390 c 0
 604 378 578 371 525 361 c 1
 612 332 650 287 665 197 c 1
 672 159 l 1
 674 145 676 135 676 131 c 0
 681 99 682 92 688 84 c 0
 694 75 706 69 717 69 c 0
 747 69 762 101 763 164 c 1
 817 164 l 1
 817 152 l 2
 817 46 755 -15 647 -15 c 0
 560 -15 504 26 487 104 c 0
 484 120 479 162 473 229 c 0
 469 286 465 298 449 317 c 0
 431 337 403 347 360 347 c 2
 304 347 l 1
304 402 m 1
 359 402 l 2
 492 402 534 434 534 536 c 0
 534 627 492 668 399 668 c 2
 375 668 l 2
 311 668 304 661 304 604 c 2
 304 402 l 1
584 967 m 1
 463 789 l 1
 354 789 l 1
 233 967 l 1
 300 967 l 1
 408 874 l 1
 517 967 l 1
 584 967 l 1
EndSplineSet
LCarets: 0 65535 '    ' 1 0 
Ligature: 0 0 'liga' R uni030C
EndChar
StartChar: Sacute
Encoding: 294 346 188
Width: 667
Flags: W
HStem: -15 52<369 387> 685 52<290 317>
VStem: 52 115<514 580> 513 120<154 223>
Fore
588 729 m 1
 601 470 l 1
 548 470 l 1
 489 612 406 685 302 685 c 0
 223 685 167 641 167 580 c 0
 167 539 190 510 235 494 c 0
 260 485 260 485 337 470 c 1
 385 459 l 2
 558 421 633 350 633 223 c 0
 633 83 525 -15 369 -15 c 0
 289 -15 225 6 164 52 c 1
 102 -7 l 1
 57 -7 l 1
 51 276 l 1
 102 276 l 1
 157 126 256 37 369 37 c 0
 456 37 513 84 513 154 c 0
 513 189 497 219 469 234 c 0
 445 247 425 252 361 264 c 2
 299 276 l 2
 142 305 52 392 52 514 c 0
 52 647 157 737 311 737 c 0
 381 737 435 721 491 683 c 1
 543 729 l 1
 588 729 l 1
251 790 m 1
 364 928 l 2
 399 971 411 979 441 979 c 0
 473 979 498 957 498 929 c 0
 498 908 486 891 462 877 c 2
 315 790 l 1
 251 790 l 1
EndSplineSet
Ligature: 0 0 'liga' S acutecomb
EndChar
StartChar: Scaron
Encoding: 295 352 189
Width: 667
Flags: W
HStem: -15 52<369 391> 685 52<290 313>
VStem: 52 115<514 580> 513 120<154 223>
Fore
588 729 m 1
 601 470 l 1
 548 470 l 1
 489 612 406 685 302 685 c 0
 223 685 167 641 167 580 c 0
 167 539 190 510 235 494 c 0
 260 485 260 485 337 470 c 1
 385 459 l 2
 558 421 633 350 633 223 c 0
 633 83 525 -15 369 -15 c 0
 289 -15 225 6 164 52 c 1
 102 -7 l 1
 57 -7 l 1
 51 276 l 1
 102 276 l 1
 157 126 256 37 369 37 c 0
 456 37 513 84 513 154 c 0
 513 189 497 219 469 234 c 0
 445 247 425 252 361 264 c 2
 299 276 l 2
 142 305 52 392 52 514 c 0
 52 647 157 737 311 737 c 0
 381 737 435 721 491 683 c 1
 543 729 l 1
 588 729 l 1
510 968 m 1
 389 790 l 1
 280 790 l 1
 159 968 l 1
 226 968 l 1
 334 875 l 1
 443 968 l 1
 510 968 l 1
EndSplineSet
Ligature: 0 0 'liga' S uni030C
EndChar
StartChar: Scedilla
Encoding: 296 350 190
Width: 667
Flags: W
HStem: -222 47<297 319> -102 139<313 369> -15 52<355 387> 685 52<288 321>
VStem: 52 115<514 580> 354 104<-143 -130> 513 120<154 223>
DStem: 313 -11 356 -15 271 -98 334 -61
Fore
588 729 m 1xde
 601 470 l 1
 548 470 l 1
 489 612 406 685 302 685 c 0
 223 685 167 641 167 580 c 0
 167 539 190 510 235 494 c 0
 260 485 260 485 337 470 c 1
 385 459 l 2
 558 421 633 350 633 223 c 0
 633 83 525 -15 372 -15 c 2
 356 -15 l 1xbe
 334 -61 l 1
 355 -57 364 -56 375 -56 c 0
 422 -56 458 -88 458 -132 c 0
 458 -185 401 -222 319 -222 c 0
 284 -222 255 -216 224 -203 c 1
 242 -158 l 1
 270 -171 286 -175 305 -175 c 0
 335 -175 354 -160 354 -136 c 0
 354 -115 338 -102 313 -102 c 0
 305 -102 299 -103 290 -108 c 1
 271 -98 l 1
 313 -11 l 1
 255 -2 207 18 164 52 c 1
 102 -7 l 1
 57 -7 l 1
 51 276 l 1
 102 276 l 1
 157 126 256 37 369 37 c 0
 456 37 513 84 513 154 c 0
 513 189 497 219 469 234 c 0
 445 247 425 252 361 264 c 2
 299 276 l 2
 142 305 52 392 52 514 c 0
 52 647 157 737 311 737 c 0
 381 737 435 721 491 683 c 1
 543 729 l 1
 588 729 l 1xde
EndSplineSet
Ligature: 0 0 'liga' S uni0327
EndChar
StartChar: Tcaron
Encoding: 297 356 191
Width: 722
Flags: W
HStem: 0 54<159 563> 451 271<29 68 30 707> 670 52<30 240 30 496>
VStem: 271 180<144 641>
Fore
692 722 m 1xd0
 707 451 l 1
 654 451 l 1xd0
 639 532 623 574 595 611 c 0
 563 652 530 670 487 670 c 0
 457 670 451 663 451 629 c 2
 451 144 l 2
 451 81 451 77 458 69 c 0
 467 58 488 54 541 54 c 2
 563 54 l 1
 563 0 l 1
 159 0 l 1
 159 54 l 1
 181 54 l 2
 234 54 255 58 264 69 c 0
 271 77 271 81 271 144 c 2
 271 629 l 2
 271 663 265 670 235 670 c 0xb0
 189 670 151 647 119 599 c 0
 95 564 81 525 68 451 c 1
 15 451 l 1
 30 722 l 1
 692 722 l 1xd0
538 967 m 1
 417 789 l 1
 308 789 l 1
 187 967 l 1
 254 967 l 1
 362 874 l 1
 471 967 l 1
 538 967 l 1
EndSplineSet
Ligature: 0 0 'liga' T uni030C
EndChar
StartChar: Udieresis
Encoding: 298 220 192
Width: 833
Flags: W
HStem: -15 75<424 460> 668 54<15 64 15 404> 797 141<331 352 555 560>
VStem: 119 180<224 626> 272 141<868 870> 487 141<868 870> 647 67<304 546>
Fore
299 578 m 2xf6
 299 258 l 2
 299 185 310 136 332 109 c 0
 360 77 403 60 460 60 c 0
 543 60 601 92 630 155 c 0
 643 183 647 222 647 304 c 2
 647 505 l 2
 647 594 642 619 621 641 c 0
 605 658 578 667 539 668 c 1
 539 722 l 1
 824 722 l 1
 824 668 l 1
 784 667 756 658 740 641 c 0
 719 619 714 593 714 505 c 2
 714 304 l 2
 714 186 706 141 678 96 c 0
 629 19 552 -15 424 -15 c 0
 283 -15 186 25 145 100 c 0
 126 135 119 177 119 261 c 2
 119 578 l 2
 119 641 119 645 112 653 c 0
 103 664 82 668 30 668 c 2
 15 668 l 1
 15 722 l 1
 404 722 l 1
 404 668 l 1
 389 668 l 2
 337 668 315 664 306 653 c 0
 299 645 299 641 299 578 c 2xf6
343 938 m 0
 381 938 413 906 413 868 c 0
 413 828 381 797 342 797 c 0
 304 797 272 829 272 868 c 0xee
 272 906 304 938 343 938 c 0
558 938 m 0
 596 938 628 906 628 868 c 0
 628 828 596 797 557 797 c 0
 519 797 487 829 487 868 c 0
 487 906 519 938 558 938 c 0
EndSplineSet
KernsSLIF: 114 -33 0 0 46 -25 0 0 112 -33 0 0 110 -34 0 0 109 -34 0 0 44 -23 0 0 98 30 0 0 65 -45 0 0
Ligature: 0 0 'liga' U uni0308
EndChar
StartChar: Uacute
Encoding: 299 218 193
Width: 833
Flags: W
HStem: -15 75<424 460> 668 54<15 64 15 404>
VStem: 119 180<224 626> 647 67<304 546>
Fore
299 578 m 2
 299 258 l 2
 299 185 310 136 332 109 c 0
 360 77 403 60 460 60 c 0
 543 60 601 92 630 155 c 0
 643 183 647 222 647 304 c 2
 647 505 l 2
 647 594 642 619 621 641 c 0
 605 658 578 667 539 668 c 1
 539 722 l 1
 824 722 l 1
 824 668 l 1
 784 667 756 658 740 641 c 0
 719 619 714 593 714 505 c 2
 714 304 l 2
 714 186 706 141 678 96 c 0
 629 19 552 -15 424 -15 c 0
 283 -15 186 25 145 100 c 0
 126 135 119 177 119 261 c 2
 119 578 l 2
 119 641 119 645 112 653 c 0
 103 664 82 668 30 668 c 2
 15 668 l 1
 15 722 l 1
 404 722 l 1
 404 668 l 1
 389 668 l 2
 337 668 315 664 306 653 c 0
 299 645 299 641 299 578 c 2
374 790 m 1
 487 928 l 2
 522 971 534 979 564 979 c 0
 596 979 621 957 621 929 c 0
 621 908 609 891 585 877 c 2
 438 790 l 1
 374 790 l 1
EndSplineSet
KernsSLIF: 114 -33 0 0 46 -25 0 0 112 -33 0 0 110 -34 0 0 109 -34 0 0 44 -23 0 0 65 -45 0 0
Ligature: 0 0 'liga' U acutecomb
EndChar
StartChar: Ugrave
Encoding: 300 217 194
Width: 833
Flags: W
HStem: -15 75<424 460> 668 54<15 64 15 404>
VStem: 119 180<224 626> 647 67<304 546>
Fore
299 578 m 2
 299 258 l 2
 299 185 310 136 332 109 c 0
 360 77 403 60 460 60 c 0
 543 60 601 92 630 155 c 0
 643 183 647 222 647 304 c 2
 647 505 l 2
 647 594 642 619 621 641 c 0
 605 658 578 667 539 668 c 1
 539 722 l 1
 824 722 l 1
 824 668 l 1
 784 667 756 658 740 641 c 0
 719 619 714 593 714 505 c 2
 714 304 l 2
 714 186 706 141 678 96 c 0
 629 19 552 -15 424 -15 c 0
 283 -15 186 25 145 100 c 0
 126 135 119 177 119 261 c 2
 119 578 l 2
 119 641 119 645 112 653 c 0
 103 664 82 668 30 668 c 2
 15 668 l 1
 15 722 l 1
 404 722 l 1
 404 668 l 1
 389 668 l 2
 337 668 315 664 306 653 c 0
 299 645 299 641 299 578 c 2
529 790 m 1
 465 790 l 1
 318 877 l 2
 294 891 282 909 282 929 c 0
 282 957 307 979 339 979 c 0
 356 979 372 973 387 961 c 0
 393 957 393 957 416 928 c 2
 529 790 l 1
EndSplineSet
KernsSLIF: 65 -45 0 0
Ligature: 0 0 'liga' U gravecomb
EndChar
StartChar: Ucircumflex
Encoding: 301 219 195
Width: 833
Flags: W
HStem: -15 75<424 460> 668 54<15 64 15 404>
VStem: 119 180<224 626> 647 67<304 546>
Fore
299 578 m 2
 299 258 l 2
 299 185 310 136 332 109 c 0
 360 77 403 60 460 60 c 0
 543 60 601 92 630 155 c 0
 643 183 647 222 647 304 c 2
 647 505 l 2
 647 594 642 619 621 641 c 0
 605 658 578 667 539 668 c 1
 539 722 l 1
 824 722 l 1
 824 668 l 1
 784 667 756 658 740 641 c 0
 719 619 714 593 714 505 c 2
 714 304 l 2
 714 186 706 141 678 96 c 0
 629 19 552 -15 424 -15 c 0
 283 -15 186 25 145 100 c 0
 126 135 119 177 119 261 c 2
 119 578 l 2
 119 641 119 645 112 653 c 0
 103 664 82 668 30 668 c 2
 15 668 l 1
 15 722 l 1
 404 722 l 1
 404 668 l 1
 389 668 l 2
 337 668 315 664 306 653 c 0
 299 645 299 641 299 578 c 2
265 790 m 1
 386 968 l 1
 495 968 l 1
 616 790 l 1
 549 790 l 1
 441 883 l 1
 332 790 l 1
 265 790 l 1
EndSplineSet
KernsSLIF: 65 -45 0 0
Ligature: 0 0 'liga' U uni0302
EndChar
StartChar: Uring
Encoding: 302 366 196
Width: 833
Flags: W
HStem: -15 75<424 460> 668 54<15 64 15 404> 790 52<413 426> 953 52<417 426>
VStem: 119 180<224 626> 309 55<886.721 900> 469 55<898 900> 647 67<304 546>
Fore
299 578 m 2
 299 258 l 2
 299 185 310 136 332 109 c 0
 360 77 403 60 460 60 c 0
 543 60 601 92 630 155 c 0
 643 183 647 222 647 304 c 2
 647 505 l 2
 647 594 642 619 621 641 c 0
 605 658 578 667 539 668 c 1
 539 722 l 1
 824 722 l 1
 824 668 l 1
 784 667 756 658 740 641 c 0
 719 619 714 593 714 505 c 2
 714 304 l 2
 714 186 706 141 678 96 c 0
 629 19 552 -15 424 -15 c 0
 283 -15 186 25 145 100 c 0
 126 135 119 177 119 261 c 2
 119 578 l 2
 119 641 119 645 112 653 c 0
 103 664 82 668 30 668 c 2
 15 668 l 1
 15 722 l 1
 404 722 l 1
 404 668 l 1
 389 668 l 2
 337 668 315 664 306 653 c 0
 299 645 299 641 299 578 c 2
417 1005 m 0
 476 1005 524 957 524 898 c 0
 524 838 476 790 415 790 c 0
 358 790 309 839 309 898 c 0
 309 956 358 1005 417 1005 c 0
417 953 m 0
 388 953 364 928 364 897 c 0
 364 868 388 842 416 842 c 0
 445 842 469 867 469 898 c 0
 469 928 445 953 417 953 c 0
EndSplineSet
Ligature: 0 0 'liga' U uni030A
EndChar
StartChar: Uhungarumlaut
Encoding: 303 368 197
Width: 833
Flags: W
HStem: -15 75<424 460> 668 54<15 64 15 404>
VStem: 119 180<224 626> 647 67<304 546>
Fore
299 578 m 2
 299 258 l 2
 299 185 310 136 332 109 c 0
 360 77 403 60 460 60 c 0
 543 60 601 92 630 155 c 0
 643 183 647 222 647 304 c 2
 647 505 l 2
 647 594 642 619 621 641 c 0
 605 658 578 667 539 668 c 1
 539 722 l 1
 824 722 l 1
 824 668 l 1
 784 667 756 658 740 641 c 0
 719 619 714 593 714 505 c 2
 714 304 l 2
 714 186 706 141 678 96 c 0
 629 19 552 -15 424 -15 c 0
 283 -15 186 25 145 100 c 0
 126 135 119 177 119 261 c 2
 119 578 l 2
 119 641 119 645 112 653 c 0
 103 664 82 668 30 668 c 2
 15 668 l 1
 15 722 l 1
 404 722 l 1
 404 668 l 1
 389 668 l 2
 337 668 315 664 306 653 c 0
 299 645 299 641 299 578 c 2
343 790 m 1
 318 805 l 1
 337 902 l 2
 343 933 347 943 354 955 c 0
 363 969 379 978 396 978 c 0
 424 978 446 956 446 929 c 0
 446 909 437 889 420 871 c 2
 343 790 l 1
512 790 m 1
 487 805 l 1
 506 902 l 2
 512 933 516 943 523 955 c 0
 532 969 548 978 565 978 c 0
 593 978 615 956 615 929 c 0
 615 909 606 889 589 871 c 2
 512 790 l 1
EndSplineSet
Ligature: 0 0 'liga' U uni030B
EndChar
StartChar: Yacute
Encoding: 304 221 198
Width: 722
Flags: W
HStem: 0 54<159 563> 668 54<-12 12.0553 -12 348 440 469>
VStem: 271 180<144 305>
DStem: 67 632 288 615 271 305 420 396 520 574 601 575 420 396 451 318
Fore
420 396 m 1
 520 574 l 1
 528 590 534 608 534 620 c 0
 534 649 505 668 461 668 c 2
 440 668 l 1
 440 722 l 1
 735 722 l 1
 735 668 l 1
 679 664 639 637 601 575 c 1
 451 318 l 1
 451 144 l 2
 451 81 451 77 458 69 c 0
 467 58 488 54 541 54 c 2
 563 54 l 1
 563 0 l 1
 159 0 l 1
 159 54 l 1
 181 54 l 2
 234 54 255 58 264 69 c 0
 271 77 271 82 271 144 c 2
 271 305 l 1
 67 632 l 1
 48 661 33 668 -12 668 c 1
 -12 722 l 1
 348 722 l 1
 348 668 l 1
 332 668 l 2
 294 668 276 661 276 646 c 0
 276 637 278 631 288 615 c 2
 420 396 l 1
307 790 m 1
 420 928 l 2
 455 971 467 979 497 979 c 0
 529 979 554 957 554 929 c 0
 554 908 542 891 518 877 c 2
 371 790 l 1
 307 790 l 1
EndSplineSet
Ligature: 0 0 'liga' Y acutecomb
EndChar
StartChar: Zacute
Encoding: 305 377 199
Width: 667
Flags: W
HStem: 0 55<233 618> 667 55<61 425>
DStem: 425 667 634 666 24 58 233 55
Fore
634 722 m 1
 634 666 l 1
 233 55 l 1
 322 55 l 2
 393 55 421 59 452 75 c 0
 516 107 563 180 581 276 c 1
 634 276 l 1
 618 0 l 1
 24 0 l 1
 24 58 l 1
 425 667 l 1
 351 667 l 2
 245 667 198 648 154 586 c 0
 132 556 117 524 100 470 c 1
 49 470 l 1
 61 722 l 1
 634 722 l 1
271 790 m 1
 384 928 l 2
 419 971 431 979 461 979 c 0
 493 979 518 957 518 929 c 0
 518 908 506 891 482 877 c 2
 335 790 l 1
 271 790 l 1
EndSplineSet
Ligature: 0 0 'liga' Z acutecomb
EndChar
StartChar: Zcaron
Encoding: 306 381 200
Width: 667
Flags: W
HStem: 0 55<233 618> 667 55<61 425>
DStem: 425 667 634 666 24 58 233 55
Fore
634 722 m 1
 634 666 l 1
 233 55 l 1
 322 55 l 2
 393 55 421 59 452 75 c 0
 516 107 563 180 581 276 c 1
 634 276 l 1
 618 0 l 1
 24 0 l 1
 24 58 l 1
 425 667 l 1
 351 667 l 2
 245 667 198 648 154 586 c 0
 132 556 117 524 100 470 c 1
 49 470 l 1
 61 722 l 1
 634 722 l 1
527 968 m 1
 406 790 l 1
 297 790 l 1
 176 968 l 1
 243 968 l 1
 351 875 l 1
 460 968 l 1
 527 968 l 1
EndSplineSet
Ligature: 0 0 'liga' Z uni030C
EndChar
StartChar: Zdotaccent
Encoding: 307 379 201
Width: 667
Flags: W
HStem: 0 55<233 618> 667 55<61 424> 797 141<343 361>
VStem: 283 141<868 870>
DStem: 425 667 634 666 24 58 233 55
Fore
634 722 m 1
 634 666 l 1
 233 55 l 1
 322 55 l 2
 393 55 421 59 452 75 c 0
 516 107 563 180 581 276 c 1
 634 276 l 1
 618 0 l 1
 24 0 l 1
 24 58 l 1
 425 667 l 1
 351 667 l 2
 245 667 198 648 154 586 c 0
 132 556 117 524 100 470 c 1
 49 470 l 1
 61 722 l 1
 634 722 l 1
354 938 m 0
 392 938 424 906 424 868 c 0
 424 828 392 797 353 797 c 0
 315 797 283 829 283 868 c 0
 283 906 315 938 354 938 c 0
EndSplineSet
Ligature: 0 0 'liga' Z uni0307
EndChar
StartChar: Amacron
Encoding: 308 256 202
Width: 759
Flags: W
HStem: 0 55<444 469.92> 218 67<229 452> 717 20G<351 427> 828 80<218 562>
DStem: 330 524 427 737 427 285 684 117 351 737 330 524 124 207 229 285
Fore
351 737 m 1
 427 737 l 1
 684 117 l 2
 705 66 721 56 778 54 c 1
 778 0 l 1
 427 0 l 1
 427 54 l 1
 444 55 l 2
 489 55 502 61 502 79 c 0
 502 87 498 102 490 120 c 1
 452 218 l 1
 203 218 l 1
 187 180 l 1
 174 151 171 140 171 123 c 0
 171 77 199 58 271 54 c 1
 271 0 l 1
 -18 0 l 1
 -18 54 l 1
 41 60 78 99 124 207 c 2
 351 737 l 1
330 524 m 1
 229 285 l 1
 427 285 l 1
 330 524 l 1
218 908 m 1
 562 908 l 1
 562 828 l 1
 218 828 l 1
 218 908 l 1
EndSplineSet
Ligature: 0 0 'liga' A uni0304
EndChar
StartChar: Tcommaaccent
Encoding: 309 354 203
Width: 722
Flags: W
HStem: -216 166<346 361> 0 54<159 563> 451 271<29 68 30 707> 670 52<30 240 30 496>
VStem: 273 177<-158 -139 144 637>
Fore
692 722 m 1xe8
 707 451 l 1
 654 451 l 1xe8
 639 532 623 574 595 611 c 0
 563 652 530 670 487 670 c 0
 457 670 451 663 451 629 c 2
 451 144 l 2
 451 81 451 77 458 69 c 0
 467 58 488 54 541 54 c 2
 563 54 l 1
 563 0 l 1
 159 0 l 1
 159 54 l 1
 181 54 l 2
 234 54 255 58 264 69 c 0
 271 77 271 81 271 144 c 2
 271 629 l 2
 271 663 265 670 235 670 c 0xd8
 189 670 151 647 119 599 c 0
 95 564 81 525 68 451 c 1
 15 451 l 1
 30 722 l 1
 692 722 l 1xe8
298 -372 m 1
 274 -336 l 1
 329 -298 363 -254 363 -220 c 0
 363 -217 362 -215 359 -215 c 2
 356 -215 l 2
 353 -216 351 -216 348 -216 c 0
 306 -216 273 -182 273 -139 c 0
 273 -89 311 -50 359 -50 c 0
 413 -50 450 -94 450 -158 c 0
 450 -238 399 -310 298 -372 c 1
EndSplineSet
Ligature: 0 0 'liga' T uni0327
EndChar
StartChar: Ydieresis
Encoding: 310 376 204
Width: 722
Flags: W
HStem: 0 54<159 563> 668 54<-12 12.0553 -12 348 440 469> 797 141<269 290 483 501>
VStem: 207 141<868 870> 271 180<144 305> 422 141<868 870>
DStem: 67 632 288 615 271 305 420 396 520 574 601 575 420 396 451 318
Fore
420 396 m 1xf0
 520 574 l 1
 528 590 534 608 534 620 c 0
 534 649 505 668 461 668 c 2
 440 668 l 1
 440 722 l 1
 735 722 l 1
 735 668 l 1
 679 664 639 637 601 575 c 1
 451 318 l 1
 451 144 l 2xe8
 451 81 451 77 458 69 c 0
 467 58 488 54 541 54 c 2
 563 54 l 1
 563 0 l 1xe4
 159 0 l 1
 159 54 l 1
 181 54 l 2
 234 54 255 58 264 69 c 0
 271 77 271 82 271 144 c 2
 271 305 l 1xe8
 67 632 l 1
 48 661 33 668 -12 668 c 1
 -12 722 l 1
 348 722 l 1
 348 668 l 1
 332 668 l 2
 294 668 276 661 276 646 c 0
 276 637 278 631 288 615 c 2
 420 396 l 1xf0
278 938 m 0
 316 938 348 906 348 868 c 0
 348 828 316 797 277 797 c 0
 239 797 207 829 207 868 c 0xf0
 207 906 239 938 278 938 c 0
493 938 m 0
 531 938 563 906 563 868 c 0
 563 828 531 797 492 797 c 0
 454 797 422 829 422 868 c 0xe4
 422 906 454 938 493 938 c 0
EndSplineSet
Ligature: 0 0 'liga' Y uni0308
EndChar
StartChar: Emacron
Encoding: 311 274 205
Width: 759
Flags: W
HStem: 0 54<16 695> 462 260<16 693> 668 54<16 65 16 433> 828 80<208 552>
VStem: 120 180<111 346 144 609>
Fore
687 722 m 1xd8
 693 462 l 1
 641 462 l 1xd8
 626 514 604 564 583 594 c 0
 549 641 488 668 414 668 c 2
 386 668 l 2
 345 668 321 661 310 646 c 0
 302 634 300 623 300 582 c 2
 300 401 l 1
 317 401 l 2
 395 401 444 451 455 543 c 1
 509 543 l 1
 509 204 l 1
 455 204 l 1
 444 296 395 346 317 346 c 2
 300 346 l 1
 300 124 l 2
 300 91 303 80 316 68 c 0
 328 56 341 54 390 54 c 2
 420 54 l 2
 541 54 612 119 654 269 c 1
 707 269 l 1
 695 0 l 1
 16 0 l 1
 16 54 l 1
 31 54 l 2
 83 54 104 58 113 69 c 0
 120 77 120 81 120 144 c 2
 120 578 l 2
 120 641 120 645 113 653 c 0
 104 664 83 668 31 668 c 2
 16 668 l 1xb8
 16 722 l 1
 687 722 l 1xd8
208 908 m 1
 552 908 l 1
 552 828 l 1
 208 828 l 1
 208 908 l 1
EndSplineSet
Ligature: 0 0 'liga' E uni0304
EndChar
StartChar: Imacron
Encoding: 312 298 206
Width: 444
Flags: W
HStem: 0 54<28 417> 668 54<28 77 28 417> 828 80<51 395>
VStem: 132 180<144 625>
Fore
132 144 m 2
 132 578 l 2
 132 641 132 645 125 653 c 0
 116 664 95 668 43 668 c 2
 28 668 l 1
 28 722 l 1
 417 722 l 1
 417 668 l 1
 402 668 l 2
 350 668 328 664 319 653 c 0
 312 645 312 642 312 578 c 2
 312 144 l 2
 312 80 312 77 319 69 c 0
 328 58 350 54 402 54 c 2
 417 54 l 1
 417 0 l 1
 28 0 l 1
 28 54 l 1
 43 54 l 2
 95 54 116 58 125 69 c 0
 132 77 132 81 132 144 c 2
51 908 m 1
 395 908 l 1
 395 828 l 1
 51 828 l 1
 51 908 l 1
EndSplineSet
Ligature: 0 0 'liga' I uni0304
EndChar
StartChar: Iogonek
Encoding: 313 302 207
Width: 444
Flags: W
HStem: -170 75<383 417> 0 54<28 349> 668 54<28 77 28 417>
VStem: 132 180<144 631> 307 80<-89 -59>
Fore
417 54 m 1xf0
 417 0 l 1
 393 -25 387 -37 387 -59 c 0
 387 -82 398 -95 417 -95 c 0
 434 -95 448 -89 466 -73 c 1
 485 -105 l 1
 459 -148 424 -170 383 -170 c 0
 337 -170 307 -138 307 -89 c 0xe8
 307 -53 318 -29 349 0 c 1
 28 0 l 1
 28 54 l 1
 43 54 l 2
 95 54 116 58 125 68 c 0
 132 77 132 80 132 144 c 2
 132 578 l 2
 132 641 132 645 125 653 c 0
 116 664 95 668 43 668 c 2
 28 668 l 1
 28 722 l 1
 417 722 l 1
 417 668 l 1
 402 668 l 2
 350 668 328 664 319 653 c 0
 312 645 312 642 312 578 c 2
 312 144 l 2
 312 80 312 77 319 68 c 0
 328 58 350 54 402 54 c 2
 417 54 l 1xf0
EndSplineSet
Ligature: 0 0 'liga' I uni0328
EndChar
StartChar: Kcommaaccent
Encoding: 314 310 208
Width: 815
Flags: W
HStem: -216 166<392 407> 0 54<15 404 454 818> 668 54<15 64 15 404 454 498>
VStem: 119 180<144 250 144 637> 319 177<-158 -139>
DStem: 383 338 505 463 523 109 713 131 520 578 588 550 299 344 505 463
Fore
383 338 m 1
 299 250 l 1
 299 144 l 2
 299 81 299 77 306 69 c 0
 315 58 337 54 389 54 c 2
 404 54 l 1
 404 0 l 1
 15 0 l 1
 15 54 l 1
 30 54 l 2
 82 54 103 58 112 69 c 0
 119 77 119 81 119 144 c 2
 119 578 l 2
 119 641 119 645 112 653 c 0
 103 664 82 668 30 668 c 2
 15 668 l 1
 15 722 l 1
 404 722 l 1
 404 668 l 1
 389 668 l 2
 337 668 315 664 306 653 c 0
 299 645 299 641 299 578 c 2
 299 344 l 1
 520 578 l 2
 538 598 553 622 553 633 c 0
 553 656 527 668 478 668 c 2
 454 668 l 1
 454 722 l 1
 791 722 l 1
 791 668 l 1
 725 664 675 635 588 550 c 1
 505 463 l 1
 713 131 l 1
 759 59 763 57 818 54 c 1
 818 0 l 1
 454 0 l 1
 454 54 l 1
 467 54 l 2
 513 54 535 61 535 77 c 0
 535 86 531 95 523 109 c 2
 383 338 l 1
344 -372 m 1
 320 -336 l 1
 375 -298 409 -254 409 -220 c 0
 409 -217 408 -215 405 -215 c 2
 402 -215 l 2
 399 -216 397 -216 394 -216 c 0
 352 -216 319 -182 319 -139 c 0
 319 -89 357 -50 405 -50 c 0
 459 -50 496 -94 496 -158 c 0
 496 -238 445 -310 344 -372 c 1
EndSplineSet
Ligature: 0 0 'liga' K uni0327
EndChar
StartChar: Lcommaaccent
Encoding: 315 315 209
Width: 722
Flags: W
HStem: -216 166<346 361> 0 54<19 689> 668 54<19 68 19 414>
VStem: 123 180<107 637> 273 177<-158 -139>
Fore
648 269 m 1xf0
 701 269 l 1
 689 0 l 1
 19 0 l 1
 19 54 l 1
 34 54 l 2
 86 54 107 58 116 69 c 0
 123 77 123 81 123 145 c 2
 123 578 l 2
 123 641 123 645 116 653 c 0
 107 664 86 668 34 668 c 2
 19 668 l 1
 19 722 l 1
 415 722 l 1
 415 668 l 1
 393 668 l 2
 340 668 319 664 310 653 c 0
 303 645 303 641 303 578 c 2
 303 124 l 2
 303 91 306 80 319 68 c 0
 331 56 344 54 393 54 c 2
 414 54 l 2
 485 54 542 80 583 129 c 0
 610 162 628 200 648 269 c 1xf0
298 -372 m 1
 274 -336 l 1
 329 -298 363 -254 363 -220 c 0
 363 -217 362 -215 359 -215 c 2
 356 -215 l 2
 353 -216 351 -216 348 -216 c 0
 306 -216 273 -182 273 -139 c 0
 273 -89 311 -50 359 -50 c 0
 413 -50 450 -94 450 -158 c 0xe8
 450 -238 399 -310 298 -372 c 1
EndSplineSet
Ligature: 0 0 'liga' L uni0327
EndChar
StartChar: Ncommaaccent
Encoding: 316 325 210
Width: 833
Flags: W
HStem: -216 166<401 416> -7 21G<656 723> 702 20G<18 270 548 833>
VStem: 124 67<217 546> 328 177<-158 -139> 656 67<270 557>
DStem: 191 546 270 722 656 -7 656 270
Fore
270 722 m 1
 656 270 l 1
 656 505 l 2
 656 593 651 619 630 641 c 0
 614 658 587 667 548 668 c 1
 548 722 l 1
 833 722 l 1
 833 668 l 1
 793 667 765 658 749 641 c 0
 728 619 723 594 723 505 c 2
 723 -7 l 1
 656 -7 l 1
 191 546 l 1
 191 217 l 2
 191 129 196 104 217 82 c 0
 233 65 258 57 301 55 c 1
 301 0 l 1
 16 0 l 1
 16 55 l 1
 59 57 82 65 98 82 c 0
 119 104 124 129 124 217 c 2
 124 611 l 1
 99 647 63 666 18 667 c 1
 18 722 l 1
 270 722 l 1
353 -372 m 1
 329 -336 l 1
 384 -298 418 -254 418 -220 c 0
 418 -217 417 -215 414 -215 c 2
 411 -215 l 2
 408 -216 406 -216 403 -216 c 0
 361 -216 328 -182 328 -139 c 0
 328 -89 366 -50 414 -50 c 0
 468 -50 505 -94 505 -158 c 0
 505 -238 454 -310 353 -372 c 1
EndSplineSet
LCarets: 0 65535 '    ' 1 0 
Ligature: 0 0 'liga' N uni0327
EndChar
StartChar: Omacron
Encoding: 317 332 211
Width: 833
Flags: W
HStem: -15 52<406 424> 685 52<406 424> 828 80<245 589>
VStem: 39 200<336 371> 594 200<336 371>
Fore
417 737 m 0
 515 737 593 710 660 652 c 0
 743 581 794 467 794 351 c 0
 794 234 746 132 660 63 c 0
 593 10 514 -15 412 -15 c 0
 195 -15 39 138 39 350 c 0
 39 467 89 580 173 652 c 0
 238 709 320 737 417 737 c 0
418 685 m 0
 359 685 319 663 290 614 c 0
 256 557 239 477 239 369 c 0
 239 264 257 176 290 114 c 0
 318 62 360 37 418 37 c 0
 532 37 594 147 594 350 c 0
 594 458 576 548 543 608 c 0
 514 659 472 685 418 685 c 0
245 908 m 1
 589 908 l 1
 589 828 l 1
 245 828 l 1
 245 908 l 1
EndSplineSet
Ligature: 0 0 'liga' O uni0304
EndChar
StartChar: Rcommaaccent
Encoding: 318 342 212
Width: 815
Flags: W
HStem: -216 166<392 407> 0 55<20 420> 347 55<304 377> 668 54<20 69 20 422>
VStem: 124 180<145 347 145 621> 319 177<-158 -139> 534 191<523 557> 763 54<143 164>
Fore
304 347 m 1
 304 145 l 2
 304 81 304 78 311 69 c 0
 320 59 342 55 394 55 c 2
 420 55 l 1
 420 0 l 1
 20 0 l 1
 20 55 l 1
 35 55 l 2
 87 55 108 59 117 69 c 0
 124 78 124 81 124 145 c 2
 124 578 l 2
 124 642 124 645 117 654 c 0
 108 664 87 668 35 668 c 2
 20 668 l 1
 20 722 l 1
 447 722 l 2
 539 722 606 710 644 686 c 0
 696 652 725 601 725 541 c 0
 725 476 690 421 629 390 c 0
 604 378 578 371 525 361 c 1
 612 332 650 287 665 197 c 1
 672 159 l 1
 674 145 676 135 676 131 c 0
 681 99 682 92 688 84 c 0
 694 75 706 69 717 69 c 0
 747 69 762 101 763 164 c 1
 817 164 l 1
 817 152 l 2
 817 46 755 -15 647 -15 c 0
 560 -15 504 26 487 104 c 0
 484 120 479 162 473 229 c 0
 469 286 465 298 449 317 c 0
 431 337 403 347 360 347 c 2
 304 347 l 1
304 402 m 1
 359 402 l 2
 492 402 534 434 534 536 c 0
 534 627 492 668 399 668 c 2
 375 668 l 2
 311 668 304 661 304 604 c 2
 304 402 l 1
344 -372 m 1
 320 -336 l 1
 375 -298 409 -254 409 -220 c 0
 409 -217 408 -215 405 -215 c 2
 402 -215 l 2
 399 -216 397 -216 394 -216 c 0
 352 -216 319 -182 319 -139 c 0
 319 -89 357 -50 405 -50 c 0
 459 -50 496 -94 496 -158 c 0
 496 -238 445 -310 344 -372 c 1
EndSplineSet
LCarets: 0 65535 '    ' 1 0 
Ligature: 0 0 'liga' R uni0327
EndChar
StartChar: Gcommaaccent
Encoding: 319 290 213
Width: 833
Flags: W
HStem: -216 166<401 416> -15 52<388 416> 282 54<462 508 462 817> 685 52<417 456>
VStem: 39 200<331 381> 328 177<-158 -139> 564 164<192 237>
Fore
719 733 m 1
 728 446 l 1
 675 446 l 1
 642 598 555 685 437 685 c 0
 378 685 325 657 296 610 c 0
 259 550 239 462 239 356 c 0
 239 262 253 181 280 123 c 0
 305 69 355 37 416 37 c 0
 505 37 564 98 564 192 c 2
 564 206 l 2
 564 279 560 282 473 282 c 2
 462 282 l 1
 462 336 l 1
 817 336 l 1
 817 282 l 1
 760 281 744 278 735 268 c 0
 728 260 728 255 728 192 c 2
 728 -14 l 1
 675 -14 l 1
 626 84 l 1
 597 54 581 41 556 26 c 0
 510 0 449 -15 388 -15 c 0
 181 -15 39 134 39 350 c 0
 39 460 70 544 138 616 c 0
 212 696 310 737 425 737 c 0
 497 737 546 723 616 683 c 1
 675 733 l 1
 719 733 l 1
353 -372 m 1
 329 -336 l 1
 384 -298 418 -254 418 -220 c 0
 418 -217 417 -215 414 -215 c 2
 411 -215 l 2
 408 -216 406 -216 403 -216 c 0
 361 -216 328 -182 328 -139 c 0
 328 -89 366 -50 414 -50 c 0
 468 -50 505 -94 505 -158 c 0
 505 -238 454 -310 353 -372 c 1
EndSplineSet
Ligature: 0 0 'liga' G uni0327
EndChar
StartChar: Umacron
Encoding: 320 362 214
Width: 833
Flags: W
HStem: -15 75<424 460> 668 54<15 64 15 404> 828 80<245 589>
VStem: 119 180<224 626> 647 67<304 546>
Fore
299 578 m 2
 299 258 l 2
 299 185 310 136 332 109 c 0
 360 77 403 60 460 60 c 0
 543 60 601 92 630 155 c 0
 643 183 647 222 647 304 c 2
 647 505 l 2
 647 594 642 619 621 641 c 0
 605 658 578 667 539 668 c 1
 539 722 l 1
 824 722 l 1
 824 668 l 1
 784 667 756 658 740 641 c 0
 719 619 714 593 714 505 c 2
 714 304 l 2
 714 186 706 141 678 96 c 0
 629 19 552 -15 424 -15 c 0
 283 -15 186 25 145 100 c 0
 126 135 119 177 119 261 c 2
 119 578 l 2
 119 641 119 645 112 653 c 0
 103 664 82 668 30 668 c 2
 15 668 l 1
 15 722 l 1
 404 722 l 1
 404 668 l 1
 389 668 l 2
 337 668 315 664 306 653 c 0
 299 645 299 641 299 578 c 2
245 908 m 1
 589 908 l 1
 589 828 l 1
 245 828 l 1
 245 908 l 1
EndSplineSet
Ligature: 0 0 'liga' U uni0304
EndChar
StartChar: Uogonek
Encoding: 321 370 215
Width: 833
Flags: W
HStem: -170 75<574 608> -15 75<421 460> 668 54<15 64 15 404>
VStem: 119 180<229 631> 498 80<-89 -62> 647 67<304 551>
Fore
657 -73 m 1
 676 -105 l 1
 650 -148 615 -170 574 -170 c 0
 528 -170 498 -138 498 -89 c 0
 498 -55 510 -29 537 -3 c 1
 500 -12 466 -15 421 -15 c 0
 283 -15 186 26 145 100 c 0
 126 135 119 178 119 261 c 2
 119 578 l 2
 119 641 119 645 112 653 c 0
 103 664 82 668 30 668 c 2
 15 668 l 1
 15 722 l 1
 404 722 l 1
 404 668 l 1
 389 668 l 2
 337 668 315 664 306 653 c 0
 299 645 299 641 299 578 c 2
 299 258 l 2
 299 185 310 136 332 109 c 0
 360 77 403 60 460 60 c 0
 543 60 601 92 630 155 c 0
 643 183 647 222 647 304 c 2
 647 505 l 2
 647 594 642 619 621 641 c 0
 605 658 578 667 539 668 c 1
 539 722 l 1
 824 722 l 1
 824 668 l 1
 784 667 756 658 740 641 c 0
 719 619 714 593 714 505 c 2
 714 304 l 2
 714 144 710 132 617 20 c 0
 592 -10 578 -39 578 -62 c 0
 578 -82 590 -95 608 -95 c 0
 625 -95 639 -88 657 -73 c 1
EndSplineSet
Ligature: 0 0 'liga' U uni0328
EndChar
StartChar: adieresis
Encoding: 322 228 216
Width: 611
Flags: W
HStem: -15 85<487 543> 436 52<259 293> 552 141<179 192 387 405>
VStem: 36 167<102 123> 63 163<347 359> 112 141<611.149 626> 327 141<611.149 626> 359 157<160 343>
Fore
516 318 m 2xe9
 516 142 l 2
 516 84 521 70 543 70 c 0
 550 70 553 71 562 77 c 0
 570 82 576 84 582 84 c 0
 591 84 597 78 597 68 c 0
 597 25 544 -15 487 -15 c 0
 436 -15 398 11 381 56 c 1
 328 4 276 -15 190 -15 c 0
 93 -15 36 28 36 102 c 0
 36 162 70 202 143 232 c 0
 190 251 225 260 326 282 c 0
 335 283 348 286 359 289 c 1
 359 341 l 2
 359 410 337 436 277 436 c 0
 237 436 203 421 203 404 c 0xf1
 203 399 203 398 212 387 c 0
 221 375 226 361 226 349 c 0
 226 312 190 284 144 284 c 0
 98 284 63 316 63 359 c 0
 63 437 153 488 291 488 c 0
 369 488 432 472 469 442 c 0
 504 414 516 383 516 318 c 2xe9
359 235 m 1
 306 223 l 2
 234 206 203 176 203 123 c 0
 203 80 228 53 267 53 c 0
 323 53 359 102 359 179 c 2
 359 235 l 1
183 693 m 0
 221 693 253 661 253 623 c 0
 253 583 221 552 182 552 c 0
 144 552 112 584 112 623 c 0xe4
 112 661 144 693 183 693 c 0
398 693 m 0
 436 693 468 661 468 623 c 0
 468 583 436 552 397 552 c 0
 359 552 327 584 327 623 c 0xe2
 327 661 359 693 398 693 c 0
EndSplineSet
KernsSLIF: 121 -32 0 0 119 -32 0 0 118 -29 0 0
Ligature: 0 0 'liga' a uni0308
EndChar
StartChar: aacute
Encoding: 323 225 217
Width: 611
Flags: W
HStem: -15 85<487 543> 436 52<259 293> 714 20G<395 426>
VStem: 36 167<102 123> 63 163<347 359> 359 157<160 343>
Fore
516 318 m 2xec
 516 142 l 2
 516 84 521 70 543 70 c 0
 550 70 553 71 562 77 c 0
 570 82 576 84 582 84 c 0
 591 84 597 78 597 68 c 0
 597 25 544 -15 487 -15 c 0
 436 -15 398 11 381 56 c 1
 328 4 276 -15 190 -15 c 0
 93 -15 36 28 36 102 c 0
 36 162 70 202 143 232 c 0
 190 251 225 260 326 282 c 0
 335 283 348 286 359 289 c 1
 359 341 l 2
 359 410 337 436 277 436 c 0
 237 436 203 421 203 404 c 0xf4
 203 399 203 398 212 387 c 0
 221 375 226 361 226 349 c 0
 226 312 190 284 144 284 c 0
 98 284 63 316 63 359 c 0
 63 437 153 488 291 488 c 0
 369 488 432 472 469 442 c 0
 504 414 516 383 516 318 c 2xec
359 235 m 1
 306 223 l 2
 234 206 203 176 203 123 c 0
 203 80 228 53 267 53 c 0
 323 53 359 102 359 179 c 2
 359 235 l 1
220 545 m 1
 333 683 l 2
 368 726 380 734 410 734 c 0
 442 734 467 712 467 684 c 0
 467 663 455 646 431 632 c 2
 284 545 l 1
 220 545 l 1
EndSplineSet
KernsSLIF: 121 -32 0 0 119 -32 0 0 118 -29 0 0
Ligature: 0 0 'liga' a acutecomb
EndChar
StartChar: agrave
Encoding: 324 224 218
Width: 611
Flags: W
HStem: -15 85<487 543> 436 52<259 293> 714 20G<168 192.5>
VStem: 36 167<102 123> 63 163<347 359> 359 157<160 343>
Fore
516 318 m 2xec
 516 142 l 2
 516 84 521 70 543 70 c 0
 550 70 553 71 562 77 c 0
 570 82 576 84 582 84 c 0
 591 84 597 78 597 68 c 0
 597 25 544 -15 487 -15 c 0
 436 -15 398 11 381 56 c 1
 328 4 276 -15 190 -15 c 0
 93 -15 36 28 36 102 c 0
 36 162 70 202 143 232 c 0
 190 251 225 260 326 282 c 0
 335 283 348 286 359 289 c 1
 359 341 l 2
 359 410 337 436 277 436 c 0
 237 436 203 421 203 404 c 0xf4
 203 399 203 398 212 387 c 0
 221 375 226 361 226 349 c 0
 226 312 190 284 144 284 c 0
 98 284 63 316 63 359 c 0
 63 437 153 488 291 488 c 0
 369 488 432 472 469 442 c 0
 504 414 516 383 516 318 c 2xec
359 235 m 1
 306 223 l 2
 234 206 203 176 203 123 c 0
 203 80 228 53 267 53 c 0
 323 53 359 102 359 179 c 2
 359 235 l 1
374 545 m 1
 310 545 l 1
 163 632 l 2
 139 646 127 664 127 684 c 0
 127 712 152 734 184 734 c 0
 201 734 217 728 232 716 c 0
 238 712 238 712 261 683 c 2
 374 545 l 1
EndSplineSet
KernsSLIF: 121 -32 0 0 119 -32 0 0 118 -29 0 0
Ligature: 0 0 'liga' a gravecomb
EndChar
StartChar: acircumflex
Encoding: 325 226 219
Width: 611
Flags: W
HStem: -15 85<487 543> 436 52<259 295> 702 20G<239 348>
VStem: 36 167<102 123> 63 163<347 359> 359 157<160 343>
Fore
516 318 m 2xec
 516 142 l 2
 516 84 521 70 543 70 c 0
 550 70 553 71 562 77 c 0
 570 82 576 84 582 84 c 0
 591 84 597 78 597 68 c 0
 597 25 544 -15 487 -15 c 0
 436 -15 398 11 381 56 c 1
 328 4 276 -15 190 -15 c 0
 93 -15 36 28 36 102 c 0
 36 162 70 202 143 232 c 0
 190 251 225 260 326 282 c 0
 335 283 348 286 359 289 c 1
 359 341 l 2
 359 410 337 436 277 436 c 0
 237 436 203 421 203 404 c 0xf4
 203 399 203 398 212 387 c 0
 221 375 226 361 226 349 c 0
 226 312 190 284 144 284 c 0
 98 284 63 316 63 359 c 0
 63 437 153 488 291 488 c 0
 369 488 432 472 469 442 c 0
 504 414 516 383 516 318 c 2xec
359 235 m 1
 306 223 l 2
 234 206 203 176 203 123 c 0
 203 80 228 53 267 53 c 0
 323 53 359 102 359 179 c 2
 359 235 l 1
118 544 m 1
 239 722 l 1
 348 722 l 1
 469 544 l 1
 402 544 l 1
 294 637 l 1
 185 544 l 1
 118 544 l 1
EndSplineSet
Ligature: 0 0 'liga' a uni0302
EndChar
StartChar: abreve
Encoding: 326 259 220
Width: 611
Flags: W
HStem: -15 85<487 543> 436 52<259 293> 545 85<289 325> 692 20G<148 201 410 463>
VStem: 36 167<102 123> 63 163<347 359> 359 157<160 343>
Fore
516 318 m 2xf6
 516 142 l 2
 516 84 521 70 543 70 c 0
 550 70 553 71 562 77 c 0
 570 82 576 84 582 84 c 0
 591 84 597 78 597 68 c 0
 597 25 544 -15 487 -15 c 0
 436 -15 398 11 381 56 c 1
 328 4 276 -15 190 -15 c 0
 93 -15 36 28 36 102 c 0
 36 162 70 202 143 232 c 0
 190 251 225 260 326 282 c 0
 335 283 348 286 359 289 c 1
 359 341 l 2
 359 410 337 436 277 436 c 0
 237 436 203 421 203 404 c 0xfa
 203 399 203 398 212 387 c 0
 221 375 226 361 226 349 c 0
 226 312 190 284 144 284 c 0
 98 284 63 316 63 359 c 0
 63 437 153 488 291 488 c 0
 369 488 432 472 469 442 c 0
 504 414 516 383 516 318 c 2xf6
359 235 m 1
 306 223 l 2
 234 206 203 176 203 123 c 0
 203 80 228 53 267 53 c 0
 323 53 359 102 359 179 c 2
 359 235 l 1
148 712 m 1
 201 712 l 1
 208 657 242 630 306 630 c 0
 369 630 403 657 410 712 c 1
 463 712 l 1
 463 607 405 545 305 545 c 0
 205 545 148 606 148 712 c 1
EndSplineSet
Ligature: 0 0 'liga' a uni0306
EndChar
StartChar: atilde
Encoding: 327 227 221
Width: 611
Flags: W
HStem: -15 85<487 543> 436 52<259 293> 566 85<364 395> 620 85<203 228>
VStem: 36 167<102 123> 63 163<347 359> 359 157<160 343>
Fore
516 318 m 2xc6
 516 142 l 2
 516 84 521 70 543 70 c 0
 550 70 553 71 562 77 c 0
 570 82 576 84 582 84 c 0
 591 84 597 78 597 68 c 0
 597 25 544 -15 487 -15 c 0
 436 -15 398 11 381 56 c 1
 328 4 276 -15 190 -15 c 0
 93 -15 36 28 36 102 c 0
 36 162 70 202 143 232 c 0
 190 251 225 260 326 282 c 0
 335 283 348 286 359 289 c 1
 359 341 l 2
 359 410 337 436 277 436 c 0
 237 436 203 421 203 404 c 0xca
 203 399 203 398 212 387 c 0
 221 375 226 361 226 349 c 0
 226 312 190 284 144 284 c 0
 98 284 63 316 63 359 c 0
 63 437 153 488 291 488 c 0
 369 488 432 472 469 442 c 0
 504 414 516 383 516 318 c 2xc6
359 235 m 1
 306 223 l 2
 234 206 203 176 203 123 c 0
 203 80 228 53 267 53 c 0
 323 53 359 102 359 179 c 2
 359 235 l 1
441 701 m 1
 490 701 l 1
 486 667 477 643 456 616 c 0
 429 580 403 566 364 566 c 0xea
 331 566 316 571 263 599 c 0
 240 612 216 620 203 620 c 0
 184 620 168 602 159 570 c 1
 109 570 l 1
 121 649 171 705 228 705 c 0xda
 255 705 272 700 324 675 c 0
 358 659 380 651 395 651 c 0xea
 416 651 427 663 441 701 c 1
EndSplineSet
Ligature: 0 0 'liga' a tildecomb
EndChar
StartChar: aring
Encoding: 328 229 222
Width: 611
Flags: W
HStem: -15 85<487 543> 436 52<259 295> 545 52<289 299> 708 52<296 306>
VStem: 36 167<102 123> 63 163<347 359> 188 55<641.721 658> 348 55<653 658> 359 157<160 343>
Fore
516 318 m 2xf480
 516 142 l 2
 516 84 521 70 543 70 c 0
 550 70 553 71 562 77 c 0
 570 82 576 84 582 84 c 0
 591 84 597 78 597 68 c 0
 597 25 544 -15 487 -15 c 0
 436 -15 398 11 381 56 c 1
 328 4 276 -15 190 -15 c 0
 93 -15 36 28 36 102 c 0
 36 162 70 202 143 232 c 0
 190 251 225 260 326 282 c 0
 335 283 348 286 359 289 c 1
 359 341 l 2
 359 410 337 436 277 436 c 0
 237 436 203 421 203 404 c 0xf880
 203 399 203 398 212 387 c 0
 221 375 226 361 226 349 c 0
 226 312 190 284 144 284 c 0
 98 284 63 316 63 359 c 0
 63 437 153 488 291 488 c 0
 369 488 432 472 469 442 c 0
 504 414 516 383 516 318 c 2xf480
359 235 m 1
 306 223 l 2
 234 206 203 176 203 123 c 0
 203 80 228 53 267 53 c 0
 323 53 359 102 359 179 c 2
 359 235 l 1
296 760 m 0
 355 760 403 712 403 653 c 0
 403 593 355 545 294 545 c 0
 237 545 188 594 188 653 c 0xf3
 188 711 237 760 296 760 c 0
296 708 m 0
 267 708 243 683 243 652 c 0
 243 623 267 597 295 597 c 0
 324 597 348 622 348 653 c 0
 348 683 324 708 296 708 c 0
EndSplineSet
KernsSLIF: 121 -32 0 0 119 -32 0 0 118 -29 0 0
Ligature: 0 0 'liga' a uni030A
EndChar
StartChar: aogonek
Encoding: 329 261 223
Width: 611
Flags: W
HStem: -170 240<529 543> 436 52<259 293>
VStem: 36 167<102 123> 63 163<347 359> 359 157<165 343> 453 80<-89 -60>
Fore
359 289 m 1xe8
 359 341 l 2
 359 410 337 436 277 436 c 0
 237 436 203 421 203 404 c 0xe8
 203 399 203 398 212 387 c 0
 221 375 226 361 226 349 c 0
 226 312 190 284 144 284 c 0
 98 284 63 316 63 359 c 0
 63 437 153 488 291 488 c 0
 369 488 432 472 469 442 c 0
 504 414 516 383 516 318 c 2
 516 142 l 2xd8
 516 84 521 70 543 70 c 0
 550 70 553 71 562 77 c 0
 570 82 576 84 582 84 c 0
 591 84 597 78 597 69 c 0
 597 50 591 38 566 10 c 0
 543 -16 533 -38 533 -60 c 0
 533 -82 545 -95 563 -95 c 0
 580 -95 594 -89 612 -73 c 1
 631 -105 l 1
 605 -148 570 -170 529 -170 c 0
 483 -170 453 -138 453 -89 c 0xc4
 453 -60 461 -39 481 -15 c 1
 433 -13 394 15 381 56 c 1
 328 4 276 -15 190 -15 c 0
 93 -15 36 28 36 102 c 0
 36 162 70 202 143 232 c 0
 190 251 225 260 326 282 c 0
 335 283 348 286 359 289 c 1xe8
359 235 m 1
 306 223 l 2
 234 206 203 176 203 123 c 0
 203 80 228 53 267 53 c 0
 323 53 359 102 359 179 c 2
 359 235 l 1
EndSplineSet
Ligature: 0 0 'liga' a uni0328
EndChar
StartChar: cacute
Encoding: 330 263 224
Width: 556
Flags: W
HStem: -15 68<300 332> 436 52<315 336> 714 20G<411 442>
VStem: 31 173<224 249> 344 172<338 354>
Fore
475 177 m 1
 527 160 l 1
 512 113 496 83 467 53 c 0
 423 5 374 -15 300 -15 c 0
 139 -15 31 83 31 229 c 0
 31 380 151 488 317 488 c 0
 438 488 516 434 516 352 c 0
 516 301 481 267 426 267 c 0
 378 267 344 297 344 340 c 0
 344 359 348 368 365 389 c 0
 374 400 376 405 376 408 c 0
 376 424 352 436 323 436 c 0
 248 436 204 366 204 247 c 0
 204 123 251 53 332 53 c 0
 373 53 413 72 437 104 c 0
 452 124 461 140 475 177 c 1
236 545 m 1
 349 683 l 2
 384 726 396 734 426 734 c 0
 458 734 483 712 483 684 c 0
 483 663 471 646 447 632 c 2
 300 545 l 1
 236 545 l 1
EndSplineSet
Ligature: 0 0 'liga' c acutecomb
EndChar
StartChar: ccaron
Encoding: 331 269 225
Width: 556
Flags: W
HStem: -15 68<300 332> 436 52<315 336> 702 20G<144 211 428 495>
VStem: 31 173<224 249> 344 172<338 354>
Fore
475 177 m 1
 527 160 l 1
 512 113 496 83 467 53 c 0
 423 5 374 -15 300 -15 c 0
 139 -15 31 83 31 229 c 0
 31 380 151 488 317 488 c 0
 438 488 516 434 516 352 c 0
 516 301 481 267 426 267 c 0
 378 267 344 297 344 340 c 0
 344 359 348 368 365 389 c 0
 374 400 376 405 376 408 c 0
 376 424 352 436 323 436 c 0
 248 436 204 366 204 247 c 0
 204 123 251 53 332 53 c 0
 373 53 413 72 437 104 c 0
 452 124 461 140 475 177 c 1
495 722 m 1
 374 544 l 1
 265 544 l 1
 144 722 l 1
 211 722 l 1
 319 629 l 1
 428 722 l 1
 495 722 l 1
EndSplineSet
Ligature: 0 0 'liga' c uni030C
EndChar
StartChar: ccedilla
Encoding: 332 231 226
Width: 556
Flags: W
HStem: -222 47<252 268> -15 70<305 333> 436 52<315 335>
VStem: 31 173<225 250> 303 104<-143 -130> 344 172<337 354>
DStem: 261 -13 305 -15 220 -98 283 -61
Fore
305 -15 m 1xf4
 283 -61 l 1
 304 -57 313 -56 324 -56 c 0
 372 -56 407 -88 407 -132 c 0
 407 -185 350 -222 268 -222 c 0
 233 -222 204 -216 173 -203 c 1
 191 -158 l 1
 219 -171 235 -175 254 -175 c 0
 284 -175 303 -160 303 -136 c 0xf8
 303 -115 287 -102 262 -102 c 0
 254 -102 248 -103 239 -108 c 1
 220 -98 l 1
 261 -13 l 1
 118 4 31 95 31 229 c 0
 31 380 150 488 317 488 c 0
 438 488 516 434 516 352 c 0
 516 301 481 267 426 267 c 0
 378 267 344 297 344 340 c 0
 344 359 348 368 365 389 c 0
 374 400 376 405 376 408 c 0
 376 424 352 436 323 436 c 0
 248 436 204 367 204 248 c 0
 204 125 251 55 333 55 c 0
 373 55 413 74 437 106 c 0
 452 125 461 141 475 177 c 1
 527 160 l 1
 491 46 411 -17 305 -15 c 1xf4
EndSplineSet
Ligature: 0 0 'liga' c uni0327
EndChar
StartChar: dcaron
Encoding: 333 271 227
Width: 747
Flags: W
HStem: -15 68<256 309> 420 68<265 311> 571 166<663 678>
VStem: 37 173<208 242> 413 155<208 737> 590 177<629 648>
Fore
568 737 m 1
 568 122 l 2
 568 92 571 80 580 72 c 0
 588 65 591 65 627 65 c 2
 654 65 l 1
 654 11 l 1
 420 0 l 1
 420 72 l 1
 379 12 328 -15 256 -15 c 0
 126 -15 37 84 37 229 c 0
 37 375 137 488 265 488 c 0
 328 488 373 467 411 421 c 1
 411 578 l 2
 411 667 408 671 347 671 c 2
 315 671 l 1
 315 722 l 1
 568 737 l 1
311 420 m 0
 247 420 210 350 210 231 c 0
 210 117 246 53 309 53 c 0
 371 53 413 128 413 237 c 0
 413 348 373 420 311 420 c 0
615 415 m 1
 591 451 l 1
 646 489 680 533 680 567 c 0
 680 570 679 572 676 572 c 2
 673 572 l 2
 670 571 668 571 665 571 c 0
 623 571 590 605 590 648 c 0
 590 698 628 737 676 737 c 0
 730 737 767 693 767 629 c 0
 767 549 716 477 615 415 c 1
EndSplineSet
Ligature: 0 0 'liga' d uni030C
EndChar
StartChar: edieresis
Encoding: 334 235 228
Width: 574
Flags: W
HStem: -15 68<302 341> 228 55<206 540> 436 52<299 306> 552 141<185 193 399 405>
VStem: 32 173<224 232> 117 141<611.149 626> 332 141<611.149 626> 383 157<244 315>
Fore
540 228 m 1xf9
 205 228 l 1
 206 171 213 140 230 113 c 0
 255 75 295 53 341 53 c 0
 406 53 451 86 491 164 c 1
 540 144 l 1
 496 37 419 -15 302 -15 c 0
 226 -15 159 7 113 46 c 0
 63 89 32 161 32 232 c 0
 32 298 59 364 104 411 c 0
 154 462 221 488 301 488 c 0
 447 488 540 393 540 244 c 2
 540 228 l 1xf9
206 283 m 1
 356 283 l 2
 376 283 383 291 383 315 c 0
 383 394 355 436 304 436 c 0
 244 436 206 378 206 283 c 1
188 693 m 0
 226 693 258 661 258 623 c 0
 258 583 226 552 187 552 c 0
 149 552 117 584 117 623 c 0xf4
 117 661 149 693 188 693 c 0
403 693 m 0
 441 693 473 661 473 623 c 0
 473 583 441 552 402 552 c 0
 364 552 332 584 332 623 c 0xf2
 332 661 364 693 403 693 c 0
EndSplineSet
Ligature: 0 0 'liga' e uni0308
EndChar
StartChar: eacute
Encoding: 335 233 229
Width: 574
Flags: W
HStem: -15 68<302 341> 228 55<206 540> 436 52<290 306> 714 20G<400 431>
VStem: 32 173<224 232> 383 157<244 315>
Fore
540 228 m 1
 205 228 l 1
 206 171 213 140 230 113 c 0
 255 75 295 53 341 53 c 0
 406 53 451 86 491 164 c 1
 540 144 l 1
 496 37 419 -15 302 -15 c 0
 226 -15 159 7 113 46 c 0
 63 89 32 161 32 232 c 0
 32 298 59 364 104 411 c 0
 154 462 221 488 301 488 c 0
 447 488 540 393 540 244 c 2
 540 228 l 1
206 283 m 1
 356 283 l 2
 376 283 383 291 383 315 c 0
 383 394 355 436 304 436 c 0
 244 436 206 378 206 283 c 1
225 545 m 1
 338 683 l 2
 373 726 385 734 415 734 c 0
 447 734 472 712 472 684 c 0
 472 663 460 646 436 632 c 2
 289 545 l 1
 225 545 l 1
EndSplineSet
KernsSLIF: 121 -20 0 0 119 -19 0 0 118 -15 0 0
Ligature: 0 0 'liga' e acutecomb
EndChar
StartChar: egrave
Encoding: 336 232 230
Width: 574
Flags: W
HStem: -15 68<302 341> 228 55<206 540> 436 52<299 318> 714 20G<176 200.5>
VStem: 32 173<224 232> 383 157<244 315>
Fore
540 228 m 1
 205 228 l 1
 206 171 213 140 230 113 c 0
 255 75 295 53 341 53 c 0
 406 53 451 86 491 164 c 1
 540 144 l 1
 496 37 419 -15 302 -15 c 0
 226 -15 159 7 113 46 c 0
 63 89 32 161 32 232 c 0
 32 298 59 364 104 411 c 0
 154 462 221 488 301 488 c 0
 447 488 540 393 540 244 c 2
 540 228 l 1
206 283 m 1
 356 283 l 2
 376 283 383 291 383 315 c 0
 383 394 355 436 304 436 c 0
 244 436 206 378 206 283 c 1
382 545 m 1
 318 545 l 1
 171 632 l 2
 147 646 135 664 135 684 c 0
 135 712 160 734 192 734 c 0
 209 734 225 728 240 716 c 0
 246 712 246 712 269 683 c 2
 382 545 l 1
EndSplineSet
Ligature: 0 0 'liga' e gravecomb
EndChar
StartChar: ecircumflex
Encoding: 337 234 231
Width: 574
Flags: W
HStem: -15 68<302 341> 228 55<206 540> 436 52<291 306> 702 20G<238 347>
VStem: 32 173<224 232> 383 157<244 315>
Fore
540 228 m 1
 205 228 l 1
 206 171 213 140 230 113 c 0
 255 75 295 53 341 53 c 0
 406 53 451 86 491 164 c 1
 540 144 l 1
 496 37 419 -15 302 -15 c 0
 226 -15 159 7 113 46 c 0
 63 89 32 161 32 232 c 0
 32 298 59 364 104 411 c 0
 154 462 221 488 301 488 c 0
 447 488 540 393 540 244 c 2
 540 228 l 1
206 283 m 1
 356 283 l 2
 376 283 383 291 383 315 c 0
 383 394 355 436 304 436 c 0
 244 436 206 378 206 283 c 1
117 544 m 1
 238 722 l 1
 347 722 l 1
 468 544 l 1
 401 544 l 1
 293 637 l 1
 184 544 l 1
 117 544 l 1
EndSplineSet
KernsSLIF: 121 -20 0 0 119 -19 0 0 118 -15 0 0
Ligature: 0 0 'liga' e uni0302
EndChar
StartChar: ecaron
Encoding: 338 283 232
Width: 574
Flags: W
HStem: -15 68<302 341> 228 55<206 540> 436 52<299 306> 702 20G<113 180 397 464>
VStem: 32 173<224 232> 383 157<244 315>
Fore
540 228 m 1
 205 228 l 1
 206 171 213 140 230 113 c 0
 255 75 295 53 341 53 c 0
 406 53 451 86 491 164 c 1
 540 144 l 1
 496 37 419 -15 302 -15 c 0
 226 -15 159 7 113 46 c 0
 63 89 32 161 32 232 c 0
 32 298 59 364 104 411 c 0
 154 462 221 488 301 488 c 0
 447 488 540 393 540 244 c 2
 540 228 l 1
206 283 m 1
 356 283 l 2
 376 283 383 291 383 315 c 0
 383 394 355 436 304 436 c 0
 244 436 206 378 206 283 c 1
464 722 m 1
 343 544 l 1
 234 544 l 1
 113 722 l 1
 180 722 l 1
 288 629 l 1
 397 722 l 1
 464 722 l 1
EndSplineSet
Ligature: 0 0 'liga' e uni030C
EndChar
StartChar: edotaccent
Encoding: 339 279 233
Width: 574
Flags: W
HStem: -15 68<302 341> 228 55<206 540> 436 52<299 306> 552 141<284 289>
VStem: 32 173<224 232> 216 141<611.149 626> 383 157<244 315>
Fore
540 228 m 1
 205 228 l 1
 206 171 213 140 230 113 c 0
 255 75 295 53 341 53 c 0
 406 53 451 86 491 164 c 1
 540 144 l 1
 496 37 419 -15 302 -15 c 0
 226 -15 159 7 113 46 c 0
 63 89 32 161 32 232 c 0
 32 298 59 364 104 411 c 0
 154 462 221 488 301 488 c 0
 447 488 540 393 540 244 c 2
 540 228 l 1
206 283 m 1
 356 283 l 2
 376 283 383 291 383 315 c 0
 383 394 355 436 304 436 c 0
 244 436 206 378 206 283 c 1
287 693 m 0
 325 693 357 661 357 623 c 0
 357 583 325 552 286 552 c 0
 248 552 216 584 216 623 c 0
 216 661 248 693 287 693 c 0
EndSplineSet
Ligature: 0 0 'liga' e uni0307
EndChar
StartChar: eogonek
Encoding: 340 281 234
Width: 574
Flags: W
HStem: -170 75<411 445> -15 68<301 341> 228 55<206 540> 436 52<299 306>
VStem: 32 173<213 232> 335 80<-89 -61>
Fore
540 228 m 1
 205 228 l 1
 206 171 213 140 230 113 c 0
 255 75 295 53 341 53 c 0
 406 53 451 86 491 164 c 1
 540 144 l 1
 526 108 513 89 468 33 c 0
 422 -24 415 -35 415 -61 c 0
 415 -82 427 -95 445 -95 c 0
 462 -95 476 -89 494 -73 c 1
 513 -105 l 1
 487 -147 452 -170 411 -170 c 0
 365 -170 335 -138 335 -89 c 0
 335 -57 344 -36 369 -9 c 1
 343 -13 324 -15 301 -15 c 0
 226 -15 159 7 113 46 c 0
 63 89 32 161 32 232 c 0
 32 298 59 364 104 411 c 0
 154 462 221 488 301 488 c 0
 447 488 540 393 540 244 c 2
 540 228 l 1
206 283 m 1
 356 283 l 2
 376 283 383 291 383 315 c 0
 383 394 355 436 304 436 c 0
 244 436 206 378 206 283 c 1
EndSplineSet
Ligature: 0 0 'liga' e uni0328
EndChar
StartChar: gbreve
Encoding: 341 287 235
Width: 611
Flags: W
HStem: -202 52<253 309> -43 140<237 367> 159 48<274 294> 409 129<549 563> 436 52<279 303> 545 85<285 319> 692 20G<148 201 410 463>
VStem: 30 130<-104 -92> 51 162<309 328> 363 162<309 328>
Fore
263 97 m 2xf6c0
 332 97 l 2
 404 97 448 93 481 82 c 0
 531 67 564 20 564 -36 c 0
 564 -143 460 -202 274 -202 c 0
 111 -202 30 -170 30 -104 c 0xf740
 30 -57 69 -25 136 -15 c 1
 78 1 45 34 45 78 c 0
 45 130 83 162 161 176 c 1
 89 201 51 250 51 317 c 0
 51 416 150 488 287 488 c 0xeec0
 338 488 383 478 421 459 c 1
 465 514 504 538 549 538 c 0
 593 538 623 512 623 473 c 0
 623 437 596 409 561 409 c 0
 534 409 507 431 507 454 c 2
 507 458 l 2
 507 462 505 463 502 463 c 0
 490 463 478 453 465 435 c 1
 509 399 525 369 525 322 c 0
 525 261 491 210 433 183 c 0
 395 165 358 159 292 159 c 2
 274 159 l 2
 216 159 198 151 198 126 c 0
 198 102 210 97 263 97 c 2xf6c0
290 436 m 0xeec0
 239 436 213 399 213 326 c 0
 213 294 218 265 229 243 c 0
 240 218 259 207 289 207 c 0
 336 207 363 249 363 320 c 0
 363 396 338 436 290 436 c 0xeec0
328 -43 m 2
 197 -43 l 1
 172 -54 160 -70 160 -92 c 0xe740
 160 -129 204 -150 281 -150 c 0
 384 -150 434 -130 434 -89 c 0
 434 -76 428 -62 419 -56 c 0
 402 -45 390 -43 328 -43 c 2
148 712 m 1
 201 712 l 1
 208 657 242 630 306 630 c 0
 369 630 403 657 410 712 c 1
 463 712 l 1
 463 607 405 545 305 545 c 0
 205 545 148 606 148 712 c 1
EndSplineSet
Ligature: 0 0 'liga' g uni0306
EndChar
StartChar: idieresis
Encoding: 342 239 236
Width: 370
Flags: W
HStem: 0 51<28 341> 552 141<71 89 291 296>
VStem: 8 141<611.149 626> 106 157<81.2754 369> 223 141<611.149 626>
Fore
263 473 m 1xd0
 263 144 l 1
 263 97 l 2
 263 58 274 51 335 51 c 2
 341 51 l 1
 341 0 l 1
 28 0 l 1
 28 51 l 1
 32 51 l 2
 95 51 106 58 106 98 c 2
 106 144 l 1
 106 321 l 2
 106 410 103 415 42 415 c 2
 28 415 l 1
 28 466 l 1
 263 473 l 1xd0
79 693 m 0
 117 693 149 661 149 623 c 0
 149 583 117 552 78 552 c 0
 40 552 8 584 8 623 c 0xe0
 8 661 40 693 79 693 c 0
294 693 m 0
 332 693 364 661 364 623 c 0
 364 583 332 552 293 552 c 0
 255 552 223 584 223 623 c 0xc8
 223 661 255 693 294 693 c 0
EndSplineSet
Ligature: 0 0 'liga' i uni0308
EndChar
StartChar: iacute
Encoding: 343 237 237
Width: 370
Flags: W
HStem: 0 51<28 341> 714 20G<278 309>
VStem: 106 157<81.2754 369>
Fore
263 473 m 1
 263 144 l 1
 263 97 l 2
 263 58 274 51 335 51 c 2
 341 51 l 1
 341 0 l 1
 28 0 l 1
 28 51 l 1
 32 51 l 2
 95 51 106 58 106 98 c 2
 106 144 l 1
 106 321 l 2
 106 410 103 415 42 415 c 2
 28 415 l 1
 28 466 l 1
 263 473 l 1
103 545 m 1
 216 683 l 2
 251 726 263 734 293 734 c 0
 325 734 350 712 350 684 c 0
 350 663 338 646 314 632 c 2
 167 545 l 1
 103 545 l 1
EndSplineSet
Ligature: 0 0 'liga' i acutecomb
EndChar
StartChar: igrave
Encoding: 344 236 238
Width: 370
Flags: W
HStem: 0 51<28 341> 714 20G<62 86.5>
VStem: 106 157<81.2754 369>
Fore
263 473 m 1
 263 144 l 1
 263 97 l 2
 263 58 274 51 335 51 c 2
 341 51 l 1
 341 0 l 1
 28 0 l 1
 28 51 l 1
 32 51 l 2
 95 51 106 58 106 98 c 2
 106 144 l 1
 106 321 l 2
 106 410 103 415 42 415 c 2
 28 415 l 1
 28 466 l 1
 263 473 l 1
268 545 m 1
 204 545 l 1
 57 632 l 2
 33 646 21 664 21 684 c 0
 21 712 46 734 78 734 c 0
 95 734 111 728 126 716 c 0
 132 712 132 712 155 683 c 2
 268 545 l 1
EndSplineSet
Ligature: 0 0 'liga' i gravecomb
EndChar
StartChar: icircumflex
Encoding: 345 238 239
Width: 370
Flags: W
HStem: 0 51<28 341> 702 20G<132 241>
VStem: 106 157<81.2754 369>
Fore
263 473 m 1
 263 144 l 1
 263 97 l 2
 263 58 274 51 335 51 c 2
 341 51 l 1
 341 0 l 1
 28 0 l 1
 28 51 l 1
 32 51 l 2
 95 51 106 58 106 98 c 2
 106 144 l 1
 106 321 l 2
 106 410 103 415 42 415 c 2
 28 415 l 1
 28 466 l 1
 263 473 l 1
11 544 m 1
 132 722 l 1
 241 722 l 1
 362 544 l 1
 295 544 l 1
 187 637 l 1
 78 544 l 1
 11 544 l 1
EndSplineSet
Ligature: 0 0 'liga' i uni0302
EndChar
StartChar: lacute
Encoding: 346 314 240
Width: 352
Flags: W
HStem: 0 51<19 331>
VStem: 99 157<80.4319 625>
Fore
256 737 m 1
 256 144 l 1
 256 97 l 2
 256 72 259 64 271 58 c 0
 278 54 305 51 324 51 c 2
 331 51 l 1
 331 0 l 1
 19 0 l 1
 19 51 l 1
 23 51 l 2
 88 51 99 57 99 97 c 2
 99 144 l 1
 99 578 l 2
 99 667 96 671 35 671 c 2
 16 671 l 1
 16 722 l 1
 256 737 l 1
94 790 m 1
 207 928 l 2
 242 971 254 979 284 979 c 0
 316 979 341 957 341 929 c 0
 341 908 329 891 305 877 c 2
 158 790 l 1
 94 790 l 1
EndSplineSet
Ligature: 0 0 'liga' l acutecomb
EndChar
StartChar: lcaron
Encoding: 347 318 241
Width: 436
Flags: W
HStem: 0 51<19 331> 571 166<351 367>
VStem: 99 157<80.4319 625>
Fore
256 737 m 1
 256 144 l 1
 256 97 l 2
 256 72 259 64 271 58 c 0
 278 54 305 51 324 51 c 2
 331 51 l 1
 331 0 l 1
 19 0 l 1
 19 51 l 1
 23 51 l 2
 88 51 99 57 99 97 c 2
 99 144 l 1
 99 578 l 2
 99 667 96 671 35 671 c 2
 16 671 l 1
 16 722 l 1
 256 737 l 1
304 415 m 1
 280 451 l 1
 335 489 369 533 369 567 c 0
 369 570 368 572 365 572 c 2
 362 572 l 2
 359 571 357 571 354 571 c 0
 312 571 279 605 279 648 c 0
 279 698 317 737 365 737 c 0
 419 737 456 693 456 629 c 0
 456 549 405 477 304 415 c 1
EndSplineSet
Ligature: 0 0 'liga' l uni030C
EndChar
StartChar: nacute
Encoding: 348 324 242
Width: 685
Flags: W
HStem: 0 51<20 325 363 392.398 643 668> 395 93<359 427> 714 20G<435 466>
VStem: 99 157<80.9697 273> 432 157<80.9697 318>
Fore
249 473 m 1
 249 385 l 1
 298 459 348 488 427 488 c 0
 479 488 524 471 551 440 c 0
 578 411 589 373 589 311 c 2
 589 144 l 1
 589 98 l 2
 589 57 600 51 664 51 c 2
 668 51 l 1
 668 0 l 1
 363 0 l 1
 363 51 l 1
 422 51 432 58 432 97 c 2
 432 144 l 1
 432 297 l 2
 432 361 406 395 359 395 c 0
 323 395 288 372 272 336 c 0
 260 312 256 286 256 241 c 2
 256 144 l 1
 256 97 l 2
 256 58 266 51 325 51 c 1
 325 0 l 1
 20 0 l 1
 20 51 l 1
 24 51 l 2
 88 51 99 57 99 98 c 2
 99 144 l 1
 99 318 l 2
 99 411 96 415 35 415 c 2
 20 415 l 1
 20 466 l 1
 249 473 l 1
260 545 m 1
 373 683 l 2
 408 726 420 734 450 734 c 0
 482 734 507 712 507 684 c 0
 507 663 495 646 471 632 c 2
 324 545 l 1
 260 545 l 1
EndSplineSet
Ligature: 0 0 'liga' n acutecomb
EndChar
StartChar: ncaron
Encoding: 349 328 243
Width: 685
Flags: W
HStem: 0 51<20 325 363 392.398 643 668> 395 93<359 427> 702 20G<168 235 452 519>
VStem: 99 157<80.9697 273> 432 157<80.9697 318>
Fore
249 473 m 1
 249 385 l 1
 298 459 348 488 427 488 c 0
 479 488 524 471 551 440 c 0
 578 411 589 373 589 311 c 2
 589 144 l 1
 589 98 l 2
 589 57 600 51 664 51 c 2
 668 51 l 1
 668 0 l 1
 363 0 l 1
 363 51 l 1
 422 51 432 58 432 97 c 2
 432 144 l 1
 432 297 l 2
 432 361 406 395 359 395 c 0
 323 395 288 372 272 336 c 0
 260 312 256 286 256 241 c 2
 256 144 l 1
 256 97 l 2
 256 58 266 51 325 51 c 1
 325 0 l 1
 20 0 l 1
 20 51 l 1
 24 51 l 2
 88 51 99 57 99 98 c 2
 99 144 l 1
 99 318 l 2
 99 411 96 415 35 415 c 2
 20 415 l 1
 20 466 l 1
 249 473 l 1
519 722 m 1
 398 544 l 1
 289 544 l 1
 168 722 l 1
 235 722 l 1
 343 629 l 1
 452 722 l 1
 519 722 l 1
EndSplineSet
Ligature: 0 0 'liga' n uni030C
EndChar
StartChar: ntilde
Encoding: 350 241 244
Width: 685
Flags: W
HStem: 0 51<20 325 363 392.398 643 668> 395 93<359 427> 566 85<408 439> 620 85<247 272>
VStem: 99 157<80.9697 273> 432 157<80.9697 318>
Fore
249 473 m 1xcc
 249 385 l 1
 298 459 348 488 427 488 c 0
 479 488 524 471 551 440 c 0
 578 411 589 373 589 311 c 2
 589 144 l 1
 589 98 l 2
 589 57 600 51 664 51 c 2
 668 51 l 1
 668 0 l 1
 363 0 l 1
 363 51 l 1
 422 51 432 58 432 97 c 2
 432 144 l 1
 432 297 l 2
 432 361 406 395 359 395 c 0
 323 395 288 372 272 336 c 0
 260 312 256 286 256 241 c 2
 256 144 l 1
 256 97 l 2
 256 58 266 51 325 51 c 1
 325 0 l 1
 20 0 l 1
 20 51 l 1
 24 51 l 2
 88 51 99 57 99 98 c 2
 99 144 l 1
 99 318 l 2
 99 411 96 415 35 415 c 2
 20 415 l 1
 20 466 l 1
 249 473 l 1xcc
485 701 m 1
 534 701 l 1
 530 667 521 643 500 616 c 0
 473 580 447 566 408 566 c 0xec
 375 566 360 571 307 599 c 0
 284 612 260 620 247 620 c 0
 228 620 212 602 203 570 c 1
 153 570 l 1
 165 649 215 705 272 705 c 0xdc
 299 705 316 700 368 675 c 0
 402 659 424 651 439 651 c 0xec
 460 651 471 663 485 701 c 1
EndSplineSet
Ligature: 0 0 'liga' n tildecomb
EndChar
StartChar: odieresis
Encoding: 351 246 245
Width: 611
Flags: W
HStem: -15 52<291.247 311> 436 52<302 310> 552 141<190 208 404 416>
VStem: 31 173<236 258> 128 141<611.149 626> 343 141<611.149 626> 406 173<224 242>
Fore
308 488 m 0xf2
 460 488 579 376 579 234 c 0
 579 91 462 -15 304 -15 c 0
 146 -15 31 91 31 236 c 0
 31 380 149 488 308 488 c 0xf2
306 436 m 0
 239 436 204 368 204 236 c 0
 204 104 238 37 305 37 c 0
 369 37 406 108 406 235 c 0
 406 287 398 344 386 377 c 0
 373 412 341 436 306 436 c 0
199 693 m 0
 237 693 269 661 269 623 c 0
 269 583 237 552 198 552 c 0
 160 552 128 584 128 623 c 0xe8
 128 661 160 693 199 693 c 0
414 693 m 0
 452 693 484 661 484 623 c 0
 484 583 452 552 413 552 c 0
 375 552 343 584 343 623 c 0xe4
 343 661 375 693 414 693 c 0
EndSplineSet
KernsSLIF: 121 -29 0 0 120 -25 0 0 119 -28 0 0 118 -24 0 0 116 -17 0 0
Ligature: 0 0 'liga' o uni0308
EndChar
StartChar: oacute
Encoding: 352 243 246
Width: 611
Flags: W
HStem: -15 52<291.247 311> 436 52<302 310> 714 20G<415 446>
VStem: 31 173<236 258> 406 173<224 242>
Fore
308 488 m 0
 460 488 579 376 579 234 c 0
 579 91 462 -15 304 -15 c 0
 146 -15 31 91 31 236 c 0
 31 380 149 488 308 488 c 0
306 436 m 0
 239 436 204 368 204 236 c 0
 204 104 238 37 305 37 c 0
 369 37 406 108 406 235 c 0
 406 287 398 344 386 377 c 0
 373 412 341 436 306 436 c 0
240 545 m 1
 353 683 l 2
 388 726 400 734 430 734 c 0
 462 734 487 712 487 684 c 0
 487 663 475 646 451 632 c 2
 304 545 l 1
 240 545 l 1
EndSplineSet
KernsSLIF: 121 -29 0 0 119 -28 0 0 118 -24 0 0
Ligature: 0 0 'liga' o acutecomb
EndChar
StartChar: ograve
Encoding: 353 242 247
Width: 611
Flags: W
HStem: -15 52<291.247 311> 436 52<302 310> 714 20G<181 205.5>
VStem: 31 173<236 258> 406 173<224 242>
Fore
308 488 m 0
 460 488 579 376 579 234 c 0
 579 91 462 -15 304 -15 c 0
 146 -15 31 91 31 236 c 0
 31 380 149 488 308 488 c 0
306 436 m 0
 239 436 204 368 204 236 c 0
 204 104 238 37 305 37 c 0
 369 37 406 108 406 235 c 0
 406 287 398 344 386 377 c 0
 373 412 341 436 306 436 c 0
387 545 m 1
 323 545 l 1
 176 632 l 2
 152 646 140 664 140 684 c 0
 140 712 165 734 197 734 c 0
 214 734 230 728 245 716 c 0
 251 712 251 712 274 683 c 2
 387 545 l 1
EndSplineSet
KernsSLIF: 121 -29 0 0 119 -28 0 0 118 -24 0 0
Ligature: 0 0 'liga' o gravecomb
EndChar
StartChar: ocircumflex
Encoding: 354 244 248
Width: 611
Flags: W
HStem: -15 52<291.247 311> 436 52<302 310> 702 20G<252 361>
VStem: 31 173<236 258> 406 173<224 242>
Fore
308 488 m 0
 460 488 579 376 579 234 c 0
 579 91 462 -15 304 -15 c 0
 146 -15 31 91 31 236 c 0
 31 380 149 488 308 488 c 0
306 436 m 0
 239 436 204 368 204 236 c 0
 204 104 238 37 305 37 c 0
 369 37 406 108 406 235 c 0
 406 287 398 344 386 377 c 0
 373 412 341 436 306 436 c 0
131 544 m 1
 252 722 l 1
 361 722 l 1
 482 544 l 1
 415 544 l 1
 307 637 l 1
 198 544 l 1
 131 544 l 1
EndSplineSet
KernsSLIF: 116 -17 0 0
Ligature: 0 0 'liga' o uni0302
EndChar
StartChar: otilde
Encoding: 355 245 249
Width: 611
Flags: W
HStem: -15 52<291.247 311> 436 52<302 310> 566 85<378 409> 620 85<217 242>
VStem: 31 173<236 258> 406 173<224 242>
Fore
308 488 m 0xcc
 460 488 579 376 579 234 c 0
 579 91 462 -15 304 -15 c 0
 146 -15 31 91 31 236 c 0
 31 380 149 488 308 488 c 0xcc
306 436 m 0
 239 436 204 368 204 236 c 0
 204 104 238 37 305 37 c 0
 369 37 406 108 406 235 c 0
 406 287 398 344 386 377 c 0
 373 412 341 436 306 436 c 0
455 701 m 1
 504 701 l 1
 500 667 491 643 470 616 c 0
 443 580 417 566 378 566 c 0xec
 345 566 330 571 277 599 c 0
 254 612 230 620 217 620 c 0
 198 620 182 602 173 570 c 1
 123 570 l 1
 135 649 185 705 242 705 c 0xdc
 269 705 286 700 338 675 c 0
 372 659 394 651 409 651 c 0xec
 430 651 441 663 455 701 c 1
EndSplineSet
Ligature: 0 0 'liga' o tildecomb
EndChar
StartChar: ohungarumlaut
Encoding: 356 337 250
Width: 611
Flags: W
HStem: -15 52<291.247 311> 436 52<302 312> 713 20G<276.5 299 445.5 468>
VStem: 31 173<236 258> 406 173<224 242>
Fore
308 488 m 0
 460 488 579 376 579 234 c 0
 579 91 462 -15 304 -15 c 0
 146 -15 31 91 31 236 c 0
 31 380 149 488 308 488 c 0
306 436 m 0
 239 436 204 368 204 236 c 0
 204 104 238 37 305 37 c 0
 369 37 406 108 406 235 c 0
 406 287 398 344 386 377 c 0
 373 412 341 436 306 436 c 0
232 545 m 1
 207 560 l 1
 226 657 l 2
 232 688 236 698 243 710 c 0
 252 724 268 733 285 733 c 0
 313 733 335 711 335 684 c 0
 335 664 326 644 309 626 c 2
 232 545 l 1
401 545 m 1
 376 560 l 1
 395 657 l 2
 401 688 405 698 412 710 c 0
 421 724 437 733 454 733 c 0
 482 733 504 711 504 684 c 0
 504 664 495 644 478 626 c 2
 401 545 l 1
EndSplineSet
Ligature: 0 0 'liga' o uni030B
EndChar
StartChar: racute
Encoding: 357 341 251
Width: 519
Flags: W
HStem: 0 51<18 352> 301 187<407 431> 714 20G<392 423>
VStem: 97 144<318 473> 97 158<80.9697 193> 356 161<373 389>
Fore
241 473 m 1xf4
 241 352 l 1xf4
 277 444 330 488 407 488 c 0
 471 488 517 445 517 387 c 0
 517 338 480 301 431 301 c 0
 388 301 356 332 356 375 c 0
 356 393 360 404 373 422 c 1
 339 412 318 394 297 357 c 0
 272 313 255 234 255 164 c 2
 255 144 l 1
 255 98 l 2
 255 57 266 51 330 51 c 2
 352 51 l 1
 352 0 l 1
 18 0 l 1
 18 51 l 1
 22 51 l 2
 86 51 97 57 97 98 c 2
 97 144 l 1xec
 97 318 l 2
 97 411 94 415 33 415 c 2
 18 415 l 1
 18 466 l 1
 241 473 l 1xf4
217 545 m 1
 330 683 l 2
 365 726 377 734 407 734 c 0
 439 734 464 712 464 684 c 0
 464 663 452 646 428 632 c 2
 281 545 l 1
 217 545 l 1
EndSplineSet
Ligature: 0 0 'liga' r acutecomb
EndChar
StartChar: sacute
Encoding: 358 347 252
Width: 500
Flags: W
HStem: -15 52<265 283> 436 52<229 254> 714 20G<363 394>
VStem: 42 110<326 378> 351 115<96 155>
Fore
439 478 m 1
 443 320 l 1
 396 320 l 1
 347 402 300 436 236 436 c 0
 187 436 152 412 152 378 c 0
 152 352 165 342 214 329 c 2
 304 307 l 2
 376 289 397 280 423 257 c 0
 451 232 466 197 466 155 c 0
 466 55 383 -15 265 -15 c 0
 213 -15 161 -2 124 20 c 1
 85 2 l 1
 43 2 l 1
 38 175 l 1
 83 175 l 1
 131 80 188 37 265 37 c 0
 318 37 351 60 351 96 c 0
 351 126 331 143 281 154 c 2
 208 170 l 2
 143 184 114 198 84 227 c 0
 57 253 42 288 42 326 c 0
 42 420 123 488 235 488 c 0
 283 488 321 478 359 456 c 1
 396 478 l 1
 439 478 l 1
188 545 m 1
 301 683 l 2
 336 726 348 734 378 734 c 0
 410 734 435 712 435 684 c 0
 435 663 423 646 399 632 c 2
 252 545 l 1
 188 545 l 1
EndSplineSet
Ligature: 0 0 'liga' s acutecomb
EndChar
